G75*
%MOIN*%
%OFA0B0*%
%FSLAX25Y25*%
%IPPOS*%
%LPD*%
%AMOC8*
5,1,8,0,0,1.08239X$1,22.5*
%
%ADD10C,0.06500*%
%ADD11C,0.05200*%
%ADD12C,0.06000*%
%ADD13C,0.07874*%
%ADD14OC8,0.07400*%
%ADD15C,0.05543*%
%ADD16OC8,0.05200*%
%ADD17C,0.13100*%
%ADD18C,0.01000*%
%ADD19R,0.03962X0.03962*%
%ADD20C,0.01200*%
%ADD21C,0.04000*%
D10*
X0223957Y0096000D03*
X0243643Y0096000D03*
X0258957Y0121000D03*
X0278643Y0121000D03*
X0243443Y0151000D03*
X0223757Y0151000D03*
X0258957Y0066000D03*
X0278643Y0066000D03*
D11*
X0278800Y0188400D02*
X0278800Y0193600D01*
X0268800Y0193600D02*
X0268800Y0188400D01*
X0258800Y0188400D02*
X0258800Y0193600D01*
X0248800Y0193600D02*
X0248800Y0188400D01*
X0238800Y0188400D02*
X0238800Y0193600D01*
X0228800Y0193600D02*
X0228800Y0188400D01*
X0228800Y0218400D02*
X0228800Y0223600D01*
X0238800Y0223600D02*
X0238800Y0218400D01*
X0248800Y0218400D02*
X0248800Y0223600D01*
X0258800Y0223600D02*
X0258800Y0218400D01*
X0268800Y0218400D02*
X0268800Y0223600D01*
X0278800Y0223600D02*
X0278800Y0218400D01*
X0288800Y0218400D02*
X0288800Y0223600D01*
X0298800Y0223600D02*
X0298800Y0218400D01*
X0298800Y0193600D02*
X0298800Y0188400D01*
X0288800Y0188400D02*
X0288800Y0193600D01*
X0386200Y0196000D02*
X0391400Y0196000D01*
X0391400Y0206000D02*
X0386200Y0206000D01*
X0386200Y0216000D02*
X0391400Y0216000D01*
X0183400Y0241800D02*
X0178200Y0241800D01*
X0153400Y0241800D02*
X0148200Y0241800D01*
X0123900Y0243500D02*
X0118700Y0243500D01*
X0093900Y0243500D02*
X0088700Y0243500D01*
D12*
X0080700Y0258500D02*
X0080700Y0264500D01*
X0070700Y0264500D02*
X0070700Y0258500D01*
X0141200Y0259400D02*
X0141200Y0265400D01*
X0151200Y0265400D02*
X0151200Y0259400D01*
X0340800Y0211000D02*
X0346800Y0211000D01*
X0346800Y0201000D02*
X0340800Y0201000D01*
X0340800Y0191000D02*
X0346800Y0191000D01*
X0433800Y0193000D02*
X0433800Y0199000D01*
X0443800Y0199000D02*
X0443800Y0193000D01*
X0433800Y0044000D02*
X0433800Y0038000D01*
X0423800Y0038000D02*
X0423800Y0044000D01*
X0398800Y0044000D02*
X0398800Y0038000D01*
X0388800Y0038000D02*
X0388800Y0044000D01*
X0378800Y0044000D02*
X0378800Y0038000D01*
X0346800Y0041000D02*
X0340800Y0041000D01*
X0340800Y0031000D02*
X0346800Y0031000D01*
X0346800Y0021000D02*
X0340800Y0021000D01*
X0231900Y0021000D02*
X0225900Y0021000D01*
X0225900Y0031000D02*
X0231900Y0031000D01*
X0231900Y0041000D02*
X0225900Y0041000D01*
X0049800Y0121000D02*
X0043800Y0121000D01*
X0043800Y0131000D02*
X0049800Y0131000D01*
D13*
X0047383Y0056157D02*
X0055257Y0056157D01*
X0063131Y0071906D02*
X0063131Y0079780D01*
X0038328Y0079780D02*
X0038328Y0071906D01*
D14*
X0223800Y0251000D03*
X0233800Y0251000D03*
X0243800Y0251000D03*
X0253800Y0251000D03*
X0263800Y0251000D03*
X0273800Y0251000D03*
X0283800Y0251000D03*
X0293800Y0251000D03*
X0303800Y0251000D03*
X0313800Y0251000D03*
X0323800Y0251000D03*
X0333800Y0251000D03*
X0343800Y0251000D03*
X0353800Y0251000D03*
X0363800Y0251000D03*
X0373800Y0251000D03*
X0383800Y0251000D03*
X0393800Y0251000D03*
X0403800Y0251000D03*
X0413800Y0251000D03*
X0413800Y0261000D03*
X0403800Y0261000D03*
X0393800Y0261000D03*
X0383800Y0261000D03*
X0373800Y0261000D03*
X0363800Y0261000D03*
X0353800Y0261000D03*
X0343800Y0261000D03*
X0333800Y0261000D03*
X0323800Y0261000D03*
X0313800Y0261000D03*
X0303800Y0261000D03*
X0293800Y0261000D03*
X0283800Y0261000D03*
X0273800Y0261000D03*
X0263800Y0261000D03*
X0253800Y0261000D03*
X0243800Y0261000D03*
X0233800Y0261000D03*
X0223800Y0261000D03*
D15*
X0186943Y0230000D02*
X0181400Y0230000D01*
X0151400Y0230000D02*
X0145857Y0230000D01*
X0126043Y0229900D02*
X0120500Y0229900D01*
X0090500Y0229900D02*
X0084957Y0229900D01*
X0087357Y0087900D02*
X0092900Y0087900D01*
X0118100Y0087900D02*
X0123643Y0087900D01*
X0148257Y0088000D02*
X0153800Y0088000D01*
X0179000Y0088000D02*
X0184543Y0088000D01*
X0376028Y0091000D02*
X0381572Y0091000D01*
X0381572Y0081000D02*
X0376028Y0081000D01*
X0376028Y0101000D02*
X0381572Y0101000D01*
X0381572Y0111000D02*
X0376028Y0111000D01*
X0376028Y0141000D02*
X0381572Y0141000D01*
X0381572Y0151000D02*
X0376028Y0151000D01*
X0376028Y0161000D02*
X0381572Y0161000D01*
X0381572Y0171000D02*
X0376028Y0171000D01*
X0427528Y0171000D02*
X0433072Y0171000D01*
X0433072Y0161000D02*
X0427528Y0161000D01*
X0427528Y0151000D02*
X0433072Y0151000D01*
X0433072Y0141000D02*
X0427528Y0141000D01*
X0427528Y0111000D02*
X0433072Y0111000D01*
X0433072Y0101000D02*
X0427528Y0101000D01*
X0427528Y0091000D02*
X0433072Y0091000D01*
X0433072Y0081000D02*
X0427528Y0081000D01*
D16*
X0253800Y0081000D03*
X0213800Y0081000D03*
X0213800Y0109000D03*
X0253800Y0109000D03*
X0253800Y0136000D03*
X0213800Y0136000D03*
X0213800Y0166000D03*
X0253800Y0166000D03*
X0402800Y0223000D03*
X0442800Y0223000D03*
D17*
X0042211Y0223550D03*
X0042211Y0171850D03*
D18*
X0228800Y0191000D02*
X0230300Y0191000D01*
X0250800Y0170500D01*
X0257800Y0170500D01*
X0277300Y0151000D01*
X0326800Y0151000D01*
X0370300Y0107500D01*
X0370300Y0099000D01*
X0378300Y0091000D01*
X0378800Y0091000D01*
X0388800Y0041000D02*
X0388800Y0150000D01*
X0383300Y0155500D01*
X0345800Y0155500D01*
X0283300Y0218000D01*
X0283300Y0225000D01*
X0263800Y0244500D01*
X0240300Y0244500D01*
X0233800Y0251000D01*
X0243800Y0261000D02*
X0252300Y0269500D01*
X0412800Y0269500D01*
X0419300Y0263000D01*
X0419300Y0233500D01*
X0398800Y0213000D01*
X0398800Y0041000D01*
X0378800Y0151000D02*
X0376800Y0153000D01*
X0278300Y0153000D01*
X0240300Y0191000D01*
X0238800Y0191000D01*
X0333800Y0261000D02*
X0336300Y0261000D01*
X0342800Y0267500D01*
X0407300Y0267500D01*
X0413800Y0261000D01*
D19*
X0324000Y0146100D03*
X0296600Y0120600D03*
X0301600Y0093400D03*
X0311800Y0093300D03*
D20*
X0311800Y0093400D01*
X0301600Y0093400D01*
X0296600Y0120600D02*
X0324000Y0120600D01*
X0324000Y0031000D01*
X0343800Y0031000D01*
X0324000Y0120600D02*
X0324000Y0146100D01*
D21*
X0347800Y0245500D03*
M02*
