G75*
%MOIN*%
%OFA0B0*%
%FSLAX25Y25*%
%IPPOS*%
%LPD*%
%AMOC8*
5,1,8,0,0,1.08239X$1,22.5*
%
%ADD10C,0.04756*%
%ADD11C,0.05200*%
%ADD12C,0.06000*%
%ADD13C,0.05937*%
%ADD14C,0.05543*%
%ADD15C,0.13100*%
%ADD16C,0.03962*%
%ADD17C,0.02400*%
%ADD18C,0.04000*%
D10*
X0223957Y0096000D03*
X0243643Y0096000D03*
X0258957Y0121000D03*
X0278643Y0121000D03*
X0243443Y0151000D03*
X0223757Y0151000D03*
X0258957Y0066000D03*
X0278643Y0066000D03*
D11*
X0253800Y0081000D03*
X0213800Y0081000D03*
X0213800Y0109000D03*
X0253800Y0109000D03*
X0253800Y0136000D03*
X0213800Y0136000D03*
X0213800Y0166000D03*
X0253800Y0166000D03*
X0248800Y0191000D03*
X0238800Y0191000D03*
X0228800Y0191000D03*
X0258800Y0191000D03*
X0268800Y0191000D03*
X0278800Y0191000D03*
X0288800Y0191000D03*
X0298800Y0191000D03*
X0298800Y0221000D03*
X0288800Y0221000D03*
X0278800Y0221000D03*
X0268800Y0221000D03*
X0258800Y0221000D03*
X0248800Y0221000D03*
X0238800Y0221000D03*
X0228800Y0221000D03*
X0180800Y0241800D03*
X0150800Y0241800D03*
X0121300Y0243500D03*
X0091300Y0243500D03*
X0388800Y0216000D03*
X0388800Y0206000D03*
X0388800Y0196000D03*
X0402800Y0223000D03*
X0442800Y0223000D03*
D12*
X0413800Y0251000D03*
X0403800Y0251000D03*
X0393800Y0251000D03*
X0383800Y0251000D03*
X0373800Y0251000D03*
X0363800Y0251000D03*
X0353800Y0251000D03*
X0343800Y0251000D03*
X0333800Y0251000D03*
X0323800Y0251000D03*
X0313800Y0251000D03*
X0303800Y0251000D03*
X0293800Y0251000D03*
X0283800Y0251000D03*
X0273800Y0251000D03*
X0263800Y0251000D03*
X0253800Y0251000D03*
X0243800Y0251000D03*
X0233800Y0251000D03*
X0223800Y0251000D03*
X0223800Y0261000D03*
X0233800Y0261000D03*
X0243800Y0261000D03*
X0253800Y0261000D03*
X0263800Y0261000D03*
X0273800Y0261000D03*
X0283800Y0261000D03*
X0293800Y0261000D03*
X0303800Y0261000D03*
X0313800Y0261000D03*
X0323800Y0261000D03*
X0333800Y0261000D03*
X0343800Y0261000D03*
X0353800Y0261000D03*
X0363800Y0261000D03*
X0373800Y0261000D03*
X0383800Y0261000D03*
X0393800Y0261000D03*
X0403800Y0261000D03*
X0413800Y0261000D03*
X0343800Y0211000D03*
X0343800Y0201000D03*
X0343800Y0191000D03*
X0433800Y0196000D03*
X0443800Y0196000D03*
X0433800Y0041000D03*
X0423800Y0041000D03*
X0398800Y0041000D03*
X0388800Y0041000D03*
X0378800Y0041000D03*
X0343800Y0041000D03*
X0343800Y0031000D03*
X0343800Y0021000D03*
X0228900Y0021000D03*
X0228900Y0031000D03*
X0228900Y0041000D03*
X0046800Y0121000D03*
X0046800Y0131000D03*
X0070700Y0261500D03*
X0080700Y0261500D03*
X0141200Y0262400D03*
X0151200Y0262400D03*
D13*
X0063131Y0075843D03*
X0038328Y0075843D03*
X0051320Y0056157D03*
D14*
X0092900Y0087900D03*
X0118100Y0087900D03*
X0153800Y0088000D03*
X0179000Y0088000D03*
X0378800Y0091000D03*
X0378800Y0081000D03*
X0378800Y0101000D03*
X0378800Y0111000D03*
X0378800Y0141000D03*
X0378800Y0151000D03*
X0378800Y0161000D03*
X0378800Y0171000D03*
X0430300Y0171000D03*
X0430300Y0161000D03*
X0430300Y0151000D03*
X0430300Y0141000D03*
X0430300Y0111000D03*
X0430300Y0101000D03*
X0430300Y0091000D03*
X0430300Y0081000D03*
X0181400Y0230000D03*
X0151400Y0230000D03*
X0120500Y0229900D03*
X0090500Y0229900D03*
D15*
X0042211Y0223550D03*
X0042211Y0171850D03*
D16*
X0296600Y0120600D03*
X0301600Y0093400D03*
X0311800Y0093300D03*
X0324000Y0146100D03*
D17*
X0023800Y0260504D02*
X0023800Y0027496D01*
X0024467Y0028163D01*
X0027933Y0030164D01*
X0031799Y0031200D01*
X0035801Y0031200D01*
X0039667Y0030164D01*
X0043133Y0028163D01*
X0045963Y0025333D01*
X0047964Y0021867D01*
X0049000Y0018001D01*
X0049000Y0013999D01*
X0047964Y0010133D01*
X0045963Y0006667D01*
X0045296Y0006000D01*
X0447304Y0006000D01*
X0446637Y0006667D01*
X0444636Y0010133D01*
X0443600Y0013999D01*
X0443600Y0018001D01*
X0444636Y0021867D01*
X0446637Y0025333D01*
X0449467Y0028163D01*
X0452933Y0030164D01*
X0456799Y0031200D01*
X0460801Y0031200D01*
X0463800Y0030396D01*
X0463800Y0257604D01*
X0460801Y0256800D01*
X0456799Y0256800D01*
X0452933Y0257836D01*
X0449467Y0259837D01*
X0446637Y0262667D01*
X0444636Y0266133D01*
X0443600Y0269999D01*
X0443600Y0274001D01*
X0444136Y0276000D01*
X0048464Y0276000D01*
X0049000Y0274001D01*
X0049000Y0269999D01*
X0047964Y0266133D01*
X0045963Y0262667D01*
X0043133Y0259837D01*
X0039667Y0257836D01*
X0035801Y0256800D01*
X0031799Y0256800D01*
X0027933Y0257836D01*
X0024467Y0259837D01*
X0023800Y0260504D01*
X0023800Y0258250D02*
X0027216Y0258250D01*
X0023800Y0255851D02*
X0068136Y0255851D01*
X0067188Y0256244D02*
X0069467Y0255300D01*
X0071933Y0255300D01*
X0074212Y0256244D01*
X0075956Y0257988D01*
X0076271Y0258749D01*
X0076734Y0258112D01*
X0077312Y0257534D01*
X0077975Y0257053D01*
X0078704Y0256681D01*
X0079482Y0256428D01*
X0080291Y0256300D01*
X0080700Y0256300D01*
X0081109Y0256300D01*
X0081918Y0256428D01*
X0082696Y0256681D01*
X0083425Y0257053D01*
X0084088Y0257534D01*
X0084666Y0258112D01*
X0085147Y0258775D01*
X0085519Y0259504D01*
X0085772Y0260282D01*
X0085900Y0261091D01*
X0085900Y0261500D01*
X0085900Y0261909D01*
X0085772Y0262718D01*
X0085519Y0263496D01*
X0085147Y0264225D01*
X0084666Y0264888D01*
X0084088Y0265466D01*
X0083425Y0265947D01*
X0082696Y0266319D01*
X0081918Y0266572D01*
X0081109Y0266700D01*
X0080700Y0266700D01*
X0080700Y0261500D01*
X0080700Y0261500D01*
X0085900Y0261500D01*
X0080700Y0261500D01*
X0080700Y0261500D01*
X0080700Y0266700D01*
X0080291Y0266700D01*
X0079482Y0266572D01*
X0078704Y0266319D01*
X0077975Y0265947D01*
X0077312Y0265466D01*
X0076734Y0264888D01*
X0076271Y0264251D01*
X0075956Y0265012D01*
X0074212Y0266756D01*
X0071933Y0267700D01*
X0069467Y0267700D01*
X0067188Y0266756D01*
X0065444Y0265012D01*
X0064500Y0262733D01*
X0064500Y0260267D01*
X0065444Y0257988D01*
X0067188Y0256244D01*
X0065336Y0258250D02*
X0040384Y0258250D01*
X0043944Y0260648D02*
X0064500Y0260648D01*
X0064630Y0263047D02*
X0046182Y0263047D01*
X0047567Y0265445D02*
X0065877Y0265445D01*
X0075523Y0265445D02*
X0077291Y0265445D01*
X0080700Y0265445D02*
X0080700Y0265445D01*
X0080700Y0263047D02*
X0080700Y0263047D01*
X0080700Y0261500D02*
X0080700Y0256300D01*
X0080700Y0261500D01*
X0080700Y0261500D01*
X0080700Y0260648D02*
X0080700Y0260648D01*
X0080700Y0258250D02*
X0080700Y0258250D01*
X0084766Y0258250D02*
X0136582Y0258250D01*
X0135944Y0258888D02*
X0137688Y0257144D01*
X0139967Y0256200D01*
X0142433Y0256200D01*
X0144712Y0257144D01*
X0146456Y0258888D01*
X0146771Y0259649D01*
X0147234Y0259012D01*
X0147812Y0258434D01*
X0148475Y0257953D01*
X0149204Y0257581D01*
X0149982Y0257328D01*
X0150791Y0257200D01*
X0151200Y0257200D01*
X0151609Y0257200D01*
X0152418Y0257328D01*
X0153196Y0257581D01*
X0153925Y0257953D01*
X0154588Y0258434D01*
X0155166Y0259012D01*
X0155647Y0259675D01*
X0156019Y0260404D01*
X0156272Y0261182D01*
X0156400Y0261991D01*
X0156400Y0262400D01*
X0156400Y0262809D01*
X0156272Y0263618D01*
X0156019Y0264396D01*
X0155647Y0265125D01*
X0155166Y0265788D01*
X0154588Y0266366D01*
X0153925Y0266847D01*
X0153196Y0267219D01*
X0152418Y0267472D01*
X0151609Y0267600D01*
X0151200Y0267600D01*
X0151200Y0262400D01*
X0151200Y0262400D01*
X0156400Y0262400D01*
X0151200Y0262400D01*
X0151200Y0262400D01*
X0151200Y0267600D01*
X0150791Y0267600D01*
X0149982Y0267472D01*
X0149204Y0267219D01*
X0148475Y0266847D01*
X0147812Y0266366D01*
X0147234Y0265788D01*
X0146771Y0265151D01*
X0146456Y0265912D01*
X0144712Y0267656D01*
X0142433Y0268600D01*
X0139967Y0268600D01*
X0137688Y0267656D01*
X0135944Y0265912D01*
X0135000Y0263633D01*
X0135000Y0261167D01*
X0135944Y0258888D01*
X0135215Y0260648D02*
X0085830Y0260648D01*
X0085665Y0263047D02*
X0135000Y0263047D01*
X0135751Y0265445D02*
X0084109Y0265445D01*
X0076634Y0258250D02*
X0076064Y0258250D01*
X0073264Y0255851D02*
X0219883Y0255851D01*
X0220288Y0256256D02*
X0218544Y0254512D01*
X0217600Y0252233D01*
X0217600Y0249767D01*
X0218544Y0247488D01*
X0220288Y0245744D01*
X0222567Y0244800D01*
X0225033Y0244800D01*
X0227312Y0245744D01*
X0228800Y0247232D01*
X0230288Y0245744D01*
X0232567Y0244800D01*
X0235033Y0244800D01*
X0237312Y0245744D01*
X0238800Y0247232D01*
X0240288Y0245744D01*
X0242567Y0244800D01*
X0245033Y0244800D01*
X0247312Y0245744D01*
X0249056Y0247488D01*
X0249371Y0248249D01*
X0249834Y0247612D01*
X0250412Y0247034D01*
X0251075Y0246553D01*
X0251804Y0246181D01*
X0252582Y0245928D01*
X0253391Y0245800D01*
X0253800Y0245800D01*
X0254209Y0245800D01*
X0255018Y0245928D01*
X0255796Y0246181D01*
X0256525Y0246553D01*
X0257188Y0247034D01*
X0257766Y0247612D01*
X0258229Y0248249D01*
X0258544Y0247488D01*
X0260288Y0245744D01*
X0262567Y0244800D01*
X0265033Y0244800D01*
X0267312Y0245744D01*
X0269056Y0247488D01*
X0269371Y0248249D01*
X0269834Y0247612D01*
X0270412Y0247034D01*
X0271075Y0246553D01*
X0271804Y0246181D01*
X0272582Y0245928D01*
X0273391Y0245800D01*
X0273800Y0245800D01*
X0274209Y0245800D01*
X0275018Y0245928D01*
X0275796Y0246181D01*
X0276525Y0246553D01*
X0277188Y0247034D01*
X0277766Y0247612D01*
X0278229Y0248249D01*
X0278544Y0247488D01*
X0280288Y0245744D01*
X0282567Y0244800D01*
X0285033Y0244800D01*
X0287312Y0245744D01*
X0288800Y0247232D01*
X0290288Y0245744D01*
X0292567Y0244800D01*
X0295033Y0244800D01*
X0297312Y0245744D01*
X0298800Y0247232D01*
X0300288Y0245744D01*
X0302567Y0244800D01*
X0305033Y0244800D01*
X0307312Y0245744D01*
X0308800Y0247232D01*
X0310288Y0245744D01*
X0312567Y0244800D01*
X0315033Y0244800D01*
X0317312Y0245744D01*
X0319056Y0247488D01*
X0319371Y0248249D01*
X0319834Y0247612D01*
X0320412Y0247034D01*
X0321075Y0246553D01*
X0321804Y0246181D01*
X0322582Y0245928D01*
X0323391Y0245800D01*
X0323800Y0245800D01*
X0324209Y0245800D01*
X0325018Y0245928D01*
X0325796Y0246181D01*
X0326525Y0246553D01*
X0327188Y0247034D01*
X0327766Y0247612D01*
X0328229Y0248249D01*
X0328544Y0247488D01*
X0330288Y0245744D01*
X0332567Y0244800D01*
X0335033Y0244800D01*
X0337312Y0245744D01*
X0338800Y0247232D01*
X0340288Y0245744D01*
X0342567Y0244800D01*
X0342600Y0244800D01*
X0342600Y0244466D01*
X0343392Y0242554D01*
X0344854Y0241092D01*
X0346766Y0240300D01*
X0348834Y0240300D01*
X0350746Y0241092D01*
X0352208Y0242554D01*
X0353000Y0244466D01*
X0353000Y0245862D01*
X0353391Y0245800D01*
X0353800Y0245800D01*
X0354209Y0245800D01*
X0355018Y0245928D01*
X0355796Y0246181D01*
X0356525Y0246553D01*
X0357188Y0247034D01*
X0357766Y0247612D01*
X0358229Y0248249D01*
X0358544Y0247488D01*
X0360288Y0245744D01*
X0362567Y0244800D01*
X0365033Y0244800D01*
X0367312Y0245744D01*
X0368800Y0247232D01*
X0370288Y0245744D01*
X0372567Y0244800D01*
X0375033Y0244800D01*
X0377312Y0245744D01*
X0378800Y0247232D01*
X0380288Y0245744D01*
X0382567Y0244800D01*
X0385033Y0244800D01*
X0387312Y0245744D01*
X0389056Y0247488D01*
X0389371Y0248249D01*
X0389834Y0247612D01*
X0390412Y0247034D01*
X0391075Y0246553D01*
X0391804Y0246181D01*
X0392582Y0245928D01*
X0393391Y0245800D01*
X0393800Y0245800D01*
X0394209Y0245800D01*
X0395018Y0245928D01*
X0395796Y0246181D01*
X0396525Y0246553D01*
X0397188Y0247034D01*
X0397766Y0247612D01*
X0398229Y0248249D01*
X0398544Y0247488D01*
X0400288Y0245744D01*
X0402567Y0244800D01*
X0405033Y0244800D01*
X0407312Y0245744D01*
X0408800Y0247232D01*
X0410288Y0245744D01*
X0412567Y0244800D01*
X0415033Y0244800D01*
X0417312Y0245744D01*
X0419056Y0247488D01*
X0420000Y0249767D01*
X0420000Y0252233D01*
X0419056Y0254512D01*
X0417568Y0256000D01*
X0419056Y0257488D01*
X0420000Y0259767D01*
X0420000Y0262233D01*
X0419056Y0264512D01*
X0417312Y0266256D01*
X0415033Y0267200D01*
X0412567Y0267200D01*
X0410288Y0266256D01*
X0408800Y0264768D01*
X0407312Y0266256D01*
X0405033Y0267200D01*
X0402567Y0267200D01*
X0400288Y0266256D01*
X0398800Y0264768D01*
X0397312Y0266256D01*
X0395033Y0267200D01*
X0392567Y0267200D01*
X0390288Y0266256D01*
X0388800Y0264768D01*
X0387312Y0266256D01*
X0385033Y0267200D01*
X0382567Y0267200D01*
X0380288Y0266256D01*
X0378544Y0264512D01*
X0378229Y0263751D01*
X0377766Y0264388D01*
X0377188Y0264966D01*
X0376525Y0265447D01*
X0375796Y0265819D01*
X0375018Y0266072D01*
X0374209Y0266200D01*
X0373800Y0266200D01*
X0373800Y0261000D01*
X0373800Y0261000D01*
X0373800Y0266200D01*
X0373391Y0266200D01*
X0372582Y0266072D01*
X0371804Y0265819D01*
X0371075Y0265447D01*
X0370412Y0264966D01*
X0369834Y0264388D01*
X0369371Y0263751D01*
X0369056Y0264512D01*
X0367312Y0266256D01*
X0365033Y0267200D01*
X0362567Y0267200D01*
X0360288Y0266256D01*
X0358800Y0264768D01*
X0357312Y0266256D01*
X0355033Y0267200D01*
X0352567Y0267200D01*
X0350288Y0266256D01*
X0348800Y0264768D01*
X0347312Y0266256D01*
X0345033Y0267200D01*
X0342567Y0267200D01*
X0340288Y0266256D01*
X0338800Y0264768D01*
X0337312Y0266256D01*
X0335033Y0267200D01*
X0332567Y0267200D01*
X0330288Y0266256D01*
X0328800Y0264768D01*
X0327312Y0266256D01*
X0325033Y0267200D01*
X0322567Y0267200D01*
X0320288Y0266256D01*
X0318800Y0264768D01*
X0317312Y0266256D01*
X0315033Y0267200D01*
X0312567Y0267200D01*
X0310288Y0266256D01*
X0308800Y0264768D01*
X0307312Y0266256D01*
X0305033Y0267200D01*
X0302567Y0267200D01*
X0300288Y0266256D01*
X0298544Y0264512D01*
X0298229Y0263751D01*
X0297766Y0264388D01*
X0297188Y0264966D01*
X0296525Y0265447D01*
X0295796Y0265819D01*
X0295018Y0266072D01*
X0294209Y0266200D01*
X0293800Y0266200D01*
X0293800Y0261000D01*
X0293800Y0261000D01*
X0293800Y0266200D01*
X0293391Y0266200D01*
X0292582Y0266072D01*
X0291804Y0265819D01*
X0291075Y0265447D01*
X0290412Y0264966D01*
X0289834Y0264388D01*
X0289371Y0263751D01*
X0289056Y0264512D01*
X0287312Y0266256D01*
X0285033Y0267200D01*
X0282567Y0267200D01*
X0280288Y0266256D01*
X0278800Y0264768D01*
X0277312Y0266256D01*
X0275033Y0267200D01*
X0272567Y0267200D01*
X0270288Y0266256D01*
X0268800Y0264768D01*
X0267312Y0266256D01*
X0265033Y0267200D01*
X0262567Y0267200D01*
X0260288Y0266256D01*
X0258800Y0264768D01*
X0257312Y0266256D01*
X0255033Y0267200D01*
X0252567Y0267200D01*
X0250288Y0266256D01*
X0248800Y0264768D01*
X0247312Y0266256D01*
X0245033Y0267200D01*
X0242567Y0267200D01*
X0240288Y0266256D01*
X0238800Y0264768D01*
X0237312Y0266256D01*
X0235033Y0267200D01*
X0232567Y0267200D01*
X0230288Y0266256D01*
X0228544Y0264512D01*
X0228229Y0263751D01*
X0227766Y0264388D01*
X0227188Y0264966D01*
X0226525Y0265447D01*
X0225796Y0265819D01*
X0225018Y0266072D01*
X0224209Y0266200D01*
X0223800Y0266200D01*
X0223800Y0261000D01*
X0223800Y0261000D01*
X0223800Y0266200D01*
X0223391Y0266200D01*
X0222582Y0266072D01*
X0221804Y0265819D01*
X0221075Y0265447D01*
X0220412Y0264966D01*
X0219834Y0264388D01*
X0219353Y0263725D01*
X0218981Y0262996D01*
X0218728Y0262218D01*
X0218600Y0261409D01*
X0218600Y0261000D01*
X0223800Y0261000D01*
X0223800Y0261000D01*
X0218600Y0261000D01*
X0218600Y0260591D01*
X0218728Y0259782D01*
X0218981Y0259004D01*
X0219353Y0258275D01*
X0219834Y0257612D01*
X0220412Y0257034D01*
X0221049Y0256571D01*
X0220288Y0256256D01*
X0219371Y0258250D02*
X0154334Y0258250D01*
X0156098Y0260648D02*
X0218600Y0260648D01*
X0219007Y0263047D02*
X0156362Y0263047D01*
X0155415Y0265445D02*
X0221072Y0265445D01*
X0223800Y0265445D02*
X0223800Y0265445D01*
X0223800Y0263047D02*
X0223800Y0263047D01*
X0226528Y0265445D02*
X0229477Y0265445D01*
X0238123Y0265445D02*
X0239477Y0265445D01*
X0248123Y0265445D02*
X0249477Y0265445D01*
X0258123Y0265445D02*
X0259477Y0265445D01*
X0268123Y0265445D02*
X0269477Y0265445D01*
X0278123Y0265445D02*
X0279477Y0265445D01*
X0288123Y0265445D02*
X0291072Y0265445D01*
X0293800Y0265445D02*
X0293800Y0265445D01*
X0293800Y0263047D02*
X0293800Y0263047D01*
X0296528Y0265445D02*
X0299477Y0265445D01*
X0308123Y0265445D02*
X0309477Y0265445D01*
X0318123Y0265445D02*
X0319477Y0265445D01*
X0328123Y0265445D02*
X0329477Y0265445D01*
X0338123Y0265445D02*
X0339477Y0265445D01*
X0348123Y0265445D02*
X0349477Y0265445D01*
X0358123Y0265445D02*
X0359477Y0265445D01*
X0368123Y0265445D02*
X0371072Y0265445D01*
X0373800Y0265445D02*
X0373800Y0265445D01*
X0373800Y0263047D02*
X0373800Y0263047D01*
X0376528Y0265445D02*
X0379477Y0265445D01*
X0388123Y0265445D02*
X0389477Y0265445D01*
X0398123Y0265445D02*
X0399477Y0265445D01*
X0408123Y0265445D02*
X0409477Y0265445D01*
X0418123Y0265445D02*
X0445033Y0265445D01*
X0444177Y0267844D02*
X0144259Y0267844D01*
X0146649Y0265445D02*
X0146985Y0265445D01*
X0151200Y0265445D02*
X0151200Y0265445D01*
X0151200Y0263047D02*
X0151200Y0263047D01*
X0151200Y0262400D02*
X0151200Y0257200D01*
X0151200Y0262400D01*
X0151200Y0262400D01*
X0151200Y0260648D02*
X0151200Y0260648D01*
X0151200Y0258250D02*
X0151200Y0258250D01*
X0148066Y0258250D02*
X0145818Y0258250D01*
X0138141Y0267844D02*
X0048423Y0267844D01*
X0049000Y0270242D02*
X0443600Y0270242D01*
X0443600Y0272641D02*
X0049000Y0272641D01*
X0048722Y0275039D02*
X0443878Y0275039D01*
X0446418Y0263047D02*
X0419663Y0263047D01*
X0420000Y0260648D02*
X0448656Y0260648D01*
X0452216Y0258250D02*
X0419372Y0258250D01*
X0417717Y0255851D02*
X0463800Y0255851D01*
X0463800Y0253453D02*
X0419495Y0253453D01*
X0420000Y0251054D02*
X0463800Y0251054D01*
X0463800Y0248656D02*
X0419540Y0248656D01*
X0417825Y0246257D02*
X0463800Y0246257D01*
X0463800Y0243859D02*
X0352749Y0243859D01*
X0353800Y0245800D02*
X0353800Y0251000D01*
X0353800Y0245800D01*
X0353800Y0246257D02*
X0353800Y0246257D01*
X0355945Y0246257D02*
X0359775Y0246257D01*
X0353800Y0248656D02*
X0353800Y0248656D01*
X0353800Y0251000D02*
X0353800Y0251000D01*
X0342851Y0243859D02*
X0186225Y0243859D01*
X0186600Y0242954D02*
X0185717Y0245085D01*
X0184085Y0246717D01*
X0181954Y0247600D01*
X0179646Y0247600D01*
X0177515Y0246717D01*
X0175883Y0245085D01*
X0175000Y0242954D01*
X0175000Y0240646D01*
X0175883Y0238515D01*
X0177515Y0236883D01*
X0179646Y0236000D01*
X0181954Y0236000D01*
X0184085Y0236883D01*
X0185717Y0238515D01*
X0186600Y0240646D01*
X0186600Y0242954D01*
X0186600Y0241460D02*
X0344486Y0241460D01*
X0351114Y0241460D02*
X0463800Y0241460D01*
X0463800Y0239062D02*
X0185944Y0239062D01*
X0183554Y0236663D02*
X0463800Y0236663D01*
X0463800Y0234265D02*
X0185581Y0234265D01*
X0184783Y0235063D02*
X0186463Y0233383D01*
X0187372Y0231188D01*
X0187372Y0228812D01*
X0186463Y0226617D01*
X0184783Y0224937D01*
X0182588Y0224028D01*
X0180212Y0224028D01*
X0178017Y0224937D01*
X0176337Y0226617D01*
X0175428Y0228812D01*
X0175428Y0231188D01*
X0176337Y0233383D01*
X0178017Y0235063D01*
X0180212Y0235972D01*
X0182588Y0235972D01*
X0184783Y0235063D01*
X0187091Y0231866D02*
X0463800Y0231866D01*
X0463800Y0229468D02*
X0187372Y0229468D01*
X0186650Y0227069D02*
X0398667Y0227069D01*
X0397883Y0226285D02*
X0397000Y0224154D01*
X0397000Y0221846D01*
X0397883Y0219715D01*
X0399515Y0218083D01*
X0401646Y0217200D01*
X0403954Y0217200D01*
X0406085Y0218083D01*
X0407717Y0219715D01*
X0408600Y0221846D01*
X0408600Y0224154D01*
X0407717Y0226285D01*
X0406085Y0227917D01*
X0403954Y0228800D01*
X0401646Y0228800D01*
X0399515Y0227917D01*
X0397883Y0226285D01*
X0397214Y0224670D02*
X0301914Y0224670D01*
X0301927Y0224661D02*
X0301316Y0225105D01*
X0300643Y0225448D01*
X0299924Y0225682D01*
X0299178Y0225800D01*
X0298800Y0225800D01*
X0298800Y0221000D01*
X0298800Y0221000D01*
X0303600Y0221000D01*
X0303600Y0221378D01*
X0303482Y0222124D01*
X0303248Y0222843D01*
X0302905Y0223516D01*
X0302461Y0224127D01*
X0301927Y0224661D01*
X0303434Y0222272D02*
X0397000Y0222272D01*
X0397817Y0219873D02*
X0393129Y0219873D01*
X0393717Y0219285D02*
X0392085Y0220917D01*
X0389954Y0221800D01*
X0387646Y0221800D01*
X0385515Y0220917D01*
X0383883Y0219285D01*
X0383000Y0217154D01*
X0383000Y0214846D01*
X0383883Y0212715D01*
X0385515Y0211083D01*
X0385715Y0211000D01*
X0385515Y0210917D01*
X0383883Y0209285D01*
X0383000Y0207154D01*
X0383000Y0204846D01*
X0383883Y0202715D01*
X0385515Y0201083D01*
X0385715Y0201000D01*
X0385515Y0200917D01*
X0383883Y0199285D01*
X0383000Y0197154D01*
X0383000Y0194846D01*
X0383883Y0192715D01*
X0385515Y0191083D01*
X0387646Y0190200D01*
X0389954Y0190200D01*
X0392085Y0191083D01*
X0393717Y0192715D01*
X0394600Y0194846D01*
X0394600Y0197154D01*
X0393717Y0199285D01*
X0392085Y0200917D01*
X0391885Y0201000D01*
X0392085Y0201083D01*
X0393717Y0202715D01*
X0394600Y0204846D01*
X0394600Y0207154D01*
X0393717Y0209285D01*
X0392085Y0210917D01*
X0391885Y0211000D01*
X0392085Y0211083D01*
X0393717Y0212715D01*
X0394600Y0214846D01*
X0394600Y0217154D01*
X0393717Y0219285D01*
X0394467Y0217475D02*
X0400983Y0217475D01*
X0404617Y0217475D02*
X0440983Y0217475D01*
X0441646Y0217200D02*
X0439515Y0218083D01*
X0437883Y0219715D01*
X0437000Y0221846D01*
X0437000Y0224154D01*
X0437883Y0226285D01*
X0439515Y0227917D01*
X0441646Y0228800D01*
X0443954Y0228800D01*
X0446085Y0227917D01*
X0447717Y0226285D01*
X0448600Y0224154D01*
X0448600Y0221846D01*
X0447717Y0219715D01*
X0446085Y0218083D01*
X0443954Y0217200D01*
X0441646Y0217200D01*
X0444617Y0217475D02*
X0463800Y0217475D01*
X0463800Y0219873D02*
X0447783Y0219873D01*
X0448600Y0222272D02*
X0463800Y0222272D01*
X0463800Y0224670D02*
X0448386Y0224670D01*
X0446933Y0227069D02*
X0463800Y0227069D01*
X0463800Y0215076D02*
X0394600Y0215076D01*
X0393680Y0212678D02*
X0463800Y0212678D01*
X0463800Y0210279D02*
X0392723Y0210279D01*
X0394299Y0207881D02*
X0463800Y0207881D01*
X0463800Y0205482D02*
X0394600Y0205482D01*
X0393870Y0203084D02*
X0463800Y0203084D01*
X0463800Y0200685D02*
X0446058Y0200685D01*
X0445796Y0200819D02*
X0445018Y0201072D01*
X0444209Y0201200D01*
X0443800Y0201200D01*
X0443800Y0196000D01*
X0443800Y0196000D01*
X0449000Y0196000D01*
X0449000Y0196409D01*
X0448872Y0197218D01*
X0448619Y0197996D01*
X0448247Y0198725D01*
X0447766Y0199388D01*
X0447188Y0199966D01*
X0446525Y0200447D01*
X0445796Y0200819D01*
X0443800Y0200685D02*
X0443800Y0200685D01*
X0443800Y0201200D02*
X0443800Y0196000D01*
X0443800Y0196000D01*
X0449000Y0196000D01*
X0449000Y0195591D01*
X0448872Y0194782D01*
X0448619Y0194004D01*
X0448247Y0193275D01*
X0447766Y0192612D01*
X0447188Y0192034D01*
X0446525Y0191553D01*
X0445796Y0191181D01*
X0445018Y0190928D01*
X0444209Y0190800D01*
X0443800Y0190800D01*
X0443800Y0196000D01*
X0443800Y0196000D01*
X0443800Y0190800D01*
X0443391Y0190800D01*
X0442582Y0190928D01*
X0441804Y0191181D01*
X0441075Y0191553D01*
X0440412Y0192034D01*
X0439834Y0192612D01*
X0439371Y0193249D01*
X0439056Y0192488D01*
X0437312Y0190744D01*
X0435033Y0189800D01*
X0432567Y0189800D01*
X0430288Y0190744D01*
X0428544Y0192488D01*
X0427600Y0194767D01*
X0427600Y0197233D01*
X0428544Y0199512D01*
X0430288Y0201256D01*
X0432567Y0202200D01*
X0435033Y0202200D01*
X0437312Y0201256D01*
X0439056Y0199512D01*
X0439371Y0198751D01*
X0439834Y0199388D01*
X0440412Y0199966D01*
X0441075Y0200447D01*
X0441804Y0200819D01*
X0442582Y0201072D01*
X0443391Y0201200D01*
X0443800Y0201200D01*
X0441542Y0200685D02*
X0437883Y0200685D01*
X0443800Y0198287D02*
X0443800Y0198287D01*
X0443800Y0195888D02*
X0443800Y0195888D01*
X0443800Y0193490D02*
X0443800Y0193490D01*
X0443800Y0191091D02*
X0443800Y0191091D01*
X0445520Y0191091D02*
X0463800Y0191091D01*
X0463800Y0188693D02*
X0349555Y0188693D01*
X0350000Y0189767D02*
X0350000Y0192233D01*
X0349056Y0194512D01*
X0347568Y0196000D01*
X0349056Y0197488D01*
X0350000Y0199767D01*
X0350000Y0202233D01*
X0349056Y0204512D01*
X0347312Y0206256D01*
X0346551Y0206571D01*
X0347188Y0207034D01*
X0347766Y0207612D01*
X0348247Y0208275D01*
X0348619Y0209004D01*
X0348872Y0209782D01*
X0349000Y0210591D01*
X0349000Y0211000D01*
X0349000Y0211409D01*
X0348872Y0212218D01*
X0348619Y0212996D01*
X0348247Y0213725D01*
X0347766Y0214388D01*
X0347188Y0214966D01*
X0346525Y0215447D01*
X0345796Y0215819D01*
X0345018Y0216072D01*
X0344209Y0216200D01*
X0343800Y0216200D01*
X0343800Y0211000D01*
X0349000Y0211000D01*
X0343800Y0211000D01*
X0343800Y0211000D01*
X0343800Y0211000D01*
X0343800Y0211000D01*
X0338600Y0211000D01*
X0338600Y0211409D01*
X0338728Y0212218D01*
X0338981Y0212996D01*
X0339353Y0213725D01*
X0339834Y0214388D01*
X0340412Y0214966D01*
X0341075Y0215447D01*
X0341804Y0215819D01*
X0342582Y0216072D01*
X0343391Y0216200D01*
X0343800Y0216200D01*
X0343800Y0211000D01*
X0338600Y0211000D01*
X0338600Y0210591D01*
X0338728Y0209782D01*
X0338981Y0209004D01*
X0339353Y0208275D01*
X0339834Y0207612D01*
X0340412Y0207034D01*
X0341049Y0206571D01*
X0340288Y0206256D01*
X0338544Y0204512D01*
X0337600Y0202233D01*
X0337600Y0199767D01*
X0338544Y0197488D01*
X0340032Y0196000D01*
X0338544Y0194512D01*
X0337600Y0192233D01*
X0337600Y0189767D01*
X0338544Y0187488D01*
X0340288Y0185744D01*
X0342567Y0184800D01*
X0345033Y0184800D01*
X0347312Y0185744D01*
X0349056Y0187488D01*
X0350000Y0189767D01*
X0350000Y0191091D02*
X0385506Y0191091D01*
X0383562Y0193490D02*
X0349479Y0193490D01*
X0347680Y0195888D02*
X0383000Y0195888D01*
X0383469Y0198287D02*
X0349387Y0198287D01*
X0350000Y0200685D02*
X0385283Y0200685D01*
X0383730Y0203084D02*
X0349648Y0203084D01*
X0348086Y0205482D02*
X0383000Y0205482D01*
X0383301Y0207881D02*
X0347961Y0207881D01*
X0348951Y0210279D02*
X0384877Y0210279D01*
X0383920Y0212678D02*
X0348722Y0212678D01*
X0347036Y0215076D02*
X0383000Y0215076D01*
X0383133Y0217475D02*
X0302063Y0217475D01*
X0301927Y0217339D02*
X0302461Y0217873D01*
X0302905Y0218484D01*
X0303248Y0219157D01*
X0303482Y0219876D01*
X0303600Y0220622D01*
X0303600Y0221000D01*
X0298800Y0221000D01*
X0298800Y0221000D01*
X0298800Y0225800D01*
X0298422Y0225800D01*
X0297676Y0225682D01*
X0296957Y0225448D01*
X0296284Y0225105D01*
X0295673Y0224661D01*
X0295139Y0224127D01*
X0294695Y0223516D01*
X0294352Y0222843D01*
X0294335Y0222792D01*
X0293717Y0224285D01*
X0292085Y0225917D01*
X0289954Y0226800D01*
X0287646Y0226800D01*
X0285515Y0225917D01*
X0283883Y0224285D01*
X0283800Y0224085D01*
X0283717Y0224285D01*
X0282085Y0225917D01*
X0279954Y0226800D01*
X0277646Y0226800D01*
X0275515Y0225917D01*
X0273883Y0224285D01*
X0273800Y0224085D01*
X0273717Y0224285D01*
X0272085Y0225917D01*
X0269954Y0226800D01*
X0267646Y0226800D01*
X0265515Y0225917D01*
X0263883Y0224285D01*
X0263800Y0224085D01*
X0263717Y0224285D01*
X0262085Y0225917D01*
X0259954Y0226800D01*
X0257646Y0226800D01*
X0255515Y0225917D01*
X0253883Y0224285D01*
X0253265Y0222792D01*
X0253248Y0222843D01*
X0252905Y0223516D01*
X0252461Y0224127D01*
X0251927Y0224661D01*
X0251316Y0225105D01*
X0250643Y0225448D01*
X0249924Y0225682D01*
X0249178Y0225800D01*
X0248800Y0225800D01*
X0248800Y0221000D01*
X0248800Y0221000D01*
X0248800Y0225800D01*
X0248422Y0225800D01*
X0247676Y0225682D01*
X0246957Y0225448D01*
X0246284Y0225105D01*
X0245673Y0224661D01*
X0245139Y0224127D01*
X0244695Y0223516D01*
X0244352Y0222843D01*
X0244335Y0222792D01*
X0243717Y0224285D01*
X0242085Y0225917D01*
X0239954Y0226800D01*
X0237646Y0226800D01*
X0235515Y0225917D01*
X0233883Y0224285D01*
X0233800Y0224085D01*
X0233717Y0224285D01*
X0232085Y0225917D01*
X0229954Y0226800D01*
X0227646Y0226800D01*
X0225515Y0225917D01*
X0223883Y0224285D01*
X0223000Y0222154D01*
X0223000Y0219846D01*
X0223883Y0217715D01*
X0225515Y0216083D01*
X0227646Y0215200D01*
X0229954Y0215200D01*
X0232085Y0216083D01*
X0233717Y0217715D01*
X0233800Y0217915D01*
X0233883Y0217715D01*
X0235515Y0216083D01*
X0237646Y0215200D01*
X0239954Y0215200D01*
X0242085Y0216083D01*
X0243717Y0217715D01*
X0244335Y0219208D01*
X0244352Y0219157D01*
X0244695Y0218484D01*
X0245139Y0217873D01*
X0245673Y0217339D01*
X0246284Y0216895D01*
X0246957Y0216552D01*
X0247676Y0216318D01*
X0248422Y0216200D01*
X0248800Y0216200D01*
X0249178Y0216200D01*
X0249924Y0216318D01*
X0250643Y0216552D01*
X0251316Y0216895D01*
X0251927Y0217339D01*
X0252461Y0217873D01*
X0252905Y0218484D01*
X0253248Y0219157D01*
X0253265Y0219208D01*
X0253883Y0217715D01*
X0255515Y0216083D01*
X0257646Y0215200D01*
X0259954Y0215200D01*
X0262085Y0216083D01*
X0263717Y0217715D01*
X0263800Y0217915D01*
X0263883Y0217715D01*
X0265515Y0216083D01*
X0267646Y0215200D01*
X0269954Y0215200D01*
X0272085Y0216083D01*
X0273717Y0217715D01*
X0273800Y0217915D01*
X0273883Y0217715D01*
X0275515Y0216083D01*
X0277646Y0215200D01*
X0279954Y0215200D01*
X0282085Y0216083D01*
X0283717Y0217715D01*
X0283800Y0217915D01*
X0283883Y0217715D01*
X0285515Y0216083D01*
X0287646Y0215200D01*
X0289954Y0215200D01*
X0292085Y0216083D01*
X0293717Y0217715D01*
X0294335Y0219208D01*
X0294352Y0219157D01*
X0294695Y0218484D01*
X0295139Y0217873D01*
X0295673Y0217339D01*
X0296284Y0216895D01*
X0296957Y0216552D01*
X0297676Y0216318D01*
X0298422Y0216200D01*
X0298800Y0216200D01*
X0299178Y0216200D01*
X0299924Y0216318D01*
X0300643Y0216552D01*
X0301316Y0216895D01*
X0301927Y0217339D01*
X0303481Y0219873D02*
X0384471Y0219873D01*
X0407783Y0219873D02*
X0437817Y0219873D01*
X0437000Y0222272D02*
X0408600Y0222272D01*
X0408386Y0224670D02*
X0437214Y0224670D01*
X0438667Y0227069D02*
X0406933Y0227069D01*
X0407825Y0246257D02*
X0409775Y0246257D01*
X0399775Y0246257D02*
X0395945Y0246257D01*
X0393800Y0246257D02*
X0393800Y0246257D01*
X0393800Y0245800D02*
X0393800Y0251000D01*
X0393800Y0251000D01*
X0393800Y0245800D01*
X0391654Y0246257D02*
X0387825Y0246257D01*
X0393800Y0248656D02*
X0393800Y0248656D01*
X0379775Y0246257D02*
X0377825Y0246257D01*
X0369775Y0246257D02*
X0367825Y0246257D01*
X0339775Y0246257D02*
X0337825Y0246257D01*
X0329775Y0246257D02*
X0325945Y0246257D01*
X0323800Y0246257D02*
X0323800Y0246257D01*
X0323800Y0245800D02*
X0323800Y0251000D01*
X0323800Y0251000D01*
X0323800Y0245800D01*
X0321654Y0246257D02*
X0317825Y0246257D01*
X0309775Y0246257D02*
X0307825Y0246257D01*
X0299775Y0246257D02*
X0297825Y0246257D01*
X0289775Y0246257D02*
X0287825Y0246257D01*
X0279775Y0246257D02*
X0275945Y0246257D01*
X0273800Y0246257D02*
X0273800Y0246257D01*
X0273800Y0245800D02*
X0273800Y0251000D01*
X0273800Y0251000D01*
X0273800Y0245800D01*
X0271654Y0246257D02*
X0267825Y0246257D01*
X0273800Y0248656D02*
X0273800Y0248656D01*
X0259775Y0246257D02*
X0255945Y0246257D01*
X0253800Y0246257D02*
X0253800Y0246257D01*
X0253800Y0245800D02*
X0253800Y0251000D01*
X0253800Y0251000D01*
X0253800Y0245800D01*
X0251654Y0246257D02*
X0247825Y0246257D01*
X0253800Y0248656D02*
X0253800Y0248656D01*
X0239775Y0246257D02*
X0237825Y0246257D01*
X0229775Y0246257D02*
X0227825Y0246257D01*
X0219775Y0246257D02*
X0184545Y0246257D01*
X0177055Y0246257D02*
X0152616Y0246257D01*
X0152643Y0246248D02*
X0151924Y0246482D01*
X0151178Y0246600D01*
X0150800Y0246600D01*
X0150800Y0241800D01*
X0155600Y0241800D01*
X0155600Y0242178D01*
X0155482Y0242924D01*
X0155248Y0243643D01*
X0154905Y0244316D01*
X0154461Y0244927D01*
X0153927Y0245461D01*
X0153316Y0245905D01*
X0152643Y0246248D01*
X0150800Y0246257D02*
X0150800Y0246257D01*
X0150800Y0246600D02*
X0150422Y0246600D01*
X0149676Y0246482D01*
X0148957Y0246248D01*
X0148284Y0245905D01*
X0147673Y0245461D01*
X0147139Y0244927D01*
X0146695Y0244316D01*
X0146352Y0243643D01*
X0146118Y0242924D01*
X0146000Y0242178D01*
X0146000Y0241800D01*
X0150800Y0241800D01*
X0150800Y0241800D01*
X0150800Y0241800D01*
X0155600Y0241800D01*
X0155600Y0241422D01*
X0155482Y0240676D01*
X0155248Y0239957D01*
X0154905Y0239284D01*
X0154461Y0238673D01*
X0153927Y0238139D01*
X0153316Y0237695D01*
X0152643Y0237352D01*
X0151924Y0237118D01*
X0151178Y0237000D01*
X0150800Y0237000D01*
X0150800Y0241800D01*
X0150800Y0241800D01*
X0150800Y0241800D01*
X0150800Y0246600D01*
X0148984Y0246257D02*
X0126436Y0246257D01*
X0126217Y0246785D02*
X0124585Y0248417D01*
X0122454Y0249300D01*
X0120146Y0249300D01*
X0118015Y0248417D01*
X0116383Y0246785D01*
X0115500Y0244654D01*
X0115500Y0242346D01*
X0116383Y0240215D01*
X0118015Y0238583D01*
X0120146Y0237700D01*
X0122454Y0237700D01*
X0124585Y0238583D01*
X0126217Y0240215D01*
X0127100Y0242346D01*
X0127100Y0244654D01*
X0126217Y0246785D01*
X0124009Y0248656D02*
X0218060Y0248656D01*
X0217600Y0251054D02*
X0023800Y0251054D01*
X0023800Y0248656D02*
X0118591Y0248656D01*
X0116164Y0246257D02*
X0095230Y0246257D01*
X0095405Y0246016D02*
X0094961Y0246627D01*
X0094427Y0247161D01*
X0093816Y0247605D01*
X0093143Y0247948D01*
X0092424Y0248182D01*
X0091678Y0248300D01*
X0091300Y0248300D01*
X0091300Y0243500D01*
X0096100Y0243500D01*
X0096100Y0243878D01*
X0095982Y0244624D01*
X0095748Y0245343D01*
X0095405Y0246016D01*
X0096100Y0243859D02*
X0115500Y0243859D01*
X0115867Y0241460D02*
X0095648Y0241460D01*
X0095748Y0241657D02*
X0095982Y0242376D01*
X0096100Y0243122D01*
X0096100Y0243500D01*
X0091300Y0243500D01*
X0091300Y0243500D01*
X0091300Y0243500D01*
X0091300Y0238700D01*
X0091678Y0238700D01*
X0092424Y0238818D01*
X0093143Y0239052D01*
X0093816Y0239395D01*
X0094427Y0239839D01*
X0094961Y0240373D01*
X0095405Y0240984D01*
X0095748Y0241657D01*
X0093162Y0239062D02*
X0117536Y0239062D01*
X0119312Y0235872D02*
X0117117Y0234963D01*
X0115437Y0233283D01*
X0114528Y0231088D01*
X0114528Y0228712D01*
X0115437Y0226517D01*
X0117117Y0224837D01*
X0119312Y0223928D01*
X0121688Y0223928D01*
X0123883Y0224837D01*
X0125563Y0226517D01*
X0126472Y0228712D01*
X0126472Y0231088D01*
X0125563Y0233283D01*
X0123883Y0234963D01*
X0121688Y0235872D01*
X0119312Y0235872D01*
X0116419Y0234265D02*
X0092885Y0234265D01*
X0093106Y0234152D02*
X0092408Y0234507D01*
X0091664Y0234749D01*
X0090891Y0234872D01*
X0090500Y0234872D01*
X0090109Y0234872D01*
X0089336Y0234749D01*
X0088592Y0234507D01*
X0087894Y0234152D01*
X0087261Y0233692D01*
X0086708Y0233139D01*
X0086248Y0232506D01*
X0085893Y0231808D01*
X0085651Y0231064D01*
X0085528Y0230291D01*
X0085528Y0229900D01*
X0085528Y0229509D01*
X0085651Y0228736D01*
X0085893Y0227992D01*
X0086248Y0227294D01*
X0086708Y0226661D01*
X0087261Y0226108D01*
X0087894Y0225648D01*
X0088592Y0225293D01*
X0089336Y0225051D01*
X0090109Y0224928D01*
X0090500Y0224928D01*
X0090500Y0229900D01*
X0095472Y0229900D01*
X0095472Y0230291D01*
X0095349Y0231064D01*
X0095107Y0231808D01*
X0094752Y0232506D01*
X0094292Y0233139D01*
X0093739Y0233692D01*
X0093106Y0234152D01*
X0090500Y0234265D02*
X0090500Y0234265D01*
X0090500Y0234872D02*
X0090500Y0229900D01*
X0090500Y0229900D01*
X0090500Y0229900D01*
X0090500Y0234872D01*
X0088115Y0234265D02*
X0023800Y0234265D01*
X0023800Y0236663D02*
X0178046Y0236663D01*
X0177219Y0234265D02*
X0153981Y0234265D01*
X0154006Y0234252D02*
X0153308Y0234607D01*
X0152564Y0234849D01*
X0151791Y0234972D01*
X0151400Y0234972D01*
X0151009Y0234972D01*
X0150236Y0234849D01*
X0149492Y0234607D01*
X0148794Y0234252D01*
X0148161Y0233792D01*
X0147608Y0233239D01*
X0147148Y0232606D01*
X0146793Y0231908D01*
X0146551Y0231164D01*
X0146428Y0230391D01*
X0146428Y0230000D01*
X0146428Y0229609D01*
X0146551Y0228836D01*
X0146793Y0228092D01*
X0147148Y0227394D01*
X0147608Y0226761D01*
X0148161Y0226208D01*
X0148794Y0225748D01*
X0149492Y0225393D01*
X0150236Y0225151D01*
X0151009Y0225028D01*
X0151400Y0225028D01*
X0151400Y0230000D01*
X0156372Y0230000D01*
X0156372Y0230391D01*
X0156249Y0231164D01*
X0156007Y0231908D01*
X0155652Y0232606D01*
X0155192Y0233239D01*
X0154639Y0233792D01*
X0154006Y0234252D01*
X0151400Y0234265D02*
X0151400Y0234265D01*
X0151400Y0234972D02*
X0151400Y0230000D01*
X0151400Y0230000D01*
X0151400Y0230000D01*
X0151400Y0234972D01*
X0150800Y0237000D02*
X0150800Y0241800D01*
X0146000Y0241800D01*
X0146000Y0241422D01*
X0146118Y0240676D01*
X0146352Y0239957D01*
X0146695Y0239284D01*
X0147139Y0238673D01*
X0147673Y0238139D01*
X0148284Y0237695D01*
X0148957Y0237352D01*
X0149676Y0237118D01*
X0150422Y0237000D01*
X0150800Y0237000D01*
X0150800Y0239062D02*
X0150800Y0239062D01*
X0150800Y0241460D02*
X0150800Y0241460D01*
X0150800Y0243859D02*
X0150800Y0243859D01*
X0146462Y0243859D02*
X0127100Y0243859D01*
X0126733Y0241460D02*
X0146000Y0241460D01*
X0146856Y0239062D02*
X0125064Y0239062D01*
X0124581Y0234265D02*
X0148819Y0234265D01*
X0146779Y0231866D02*
X0126149Y0231866D01*
X0126472Y0229468D02*
X0146451Y0229468D01*
X0146428Y0230000D02*
X0151400Y0230000D01*
X0156372Y0230000D01*
X0156372Y0229609D01*
X0156249Y0228836D01*
X0156007Y0228092D01*
X0155652Y0227394D01*
X0155192Y0226761D01*
X0154639Y0226208D01*
X0154006Y0225748D01*
X0153308Y0225393D01*
X0152564Y0225151D01*
X0151791Y0225028D01*
X0151400Y0225028D01*
X0151400Y0230000D01*
X0151400Y0230000D01*
X0151400Y0230000D01*
X0146428Y0230000D01*
X0147384Y0227069D02*
X0125791Y0227069D01*
X0123480Y0224670D02*
X0178662Y0224670D01*
X0176150Y0227069D02*
X0155416Y0227069D01*
X0156349Y0229468D02*
X0175428Y0229468D01*
X0175709Y0231866D02*
X0156021Y0231866D01*
X0151400Y0231866D02*
X0151400Y0231866D01*
X0151400Y0229468D02*
X0151400Y0229468D01*
X0151400Y0227069D02*
X0151400Y0227069D01*
X0154744Y0239062D02*
X0175656Y0239062D01*
X0175000Y0241460D02*
X0155600Y0241460D01*
X0155138Y0243859D02*
X0175375Y0243859D01*
X0184138Y0224670D02*
X0224268Y0224670D01*
X0223049Y0222272D02*
X0051961Y0222272D01*
X0051961Y0221611D02*
X0050477Y0218027D01*
X0047734Y0215284D01*
X0044150Y0213800D01*
X0040272Y0213800D01*
X0036688Y0215284D01*
X0033945Y0218027D01*
X0032461Y0221611D01*
X0032461Y0225489D01*
X0033945Y0229073D01*
X0036688Y0231816D01*
X0040272Y0233300D01*
X0044150Y0233300D01*
X0047734Y0231816D01*
X0050477Y0229073D01*
X0051961Y0225489D01*
X0051961Y0221611D01*
X0051241Y0219873D02*
X0223000Y0219873D01*
X0224123Y0217475D02*
X0049925Y0217475D01*
X0047232Y0215076D02*
X0340564Y0215076D01*
X0338878Y0212678D02*
X0023800Y0212678D01*
X0023800Y0215076D02*
X0037190Y0215076D01*
X0034497Y0217475D02*
X0023800Y0217475D01*
X0023800Y0219873D02*
X0033181Y0219873D01*
X0032461Y0222272D02*
X0023800Y0222272D01*
X0023800Y0224670D02*
X0032461Y0224670D01*
X0033115Y0227069D02*
X0023800Y0227069D01*
X0023800Y0229468D02*
X0034340Y0229468D01*
X0036810Y0231866D02*
X0023800Y0231866D01*
X0023800Y0239062D02*
X0089438Y0239062D01*
X0089457Y0239052D02*
X0090176Y0238818D01*
X0090922Y0238700D01*
X0091300Y0238700D01*
X0091300Y0243500D01*
X0091300Y0243500D01*
X0091300Y0243500D01*
X0086500Y0243500D01*
X0086500Y0243878D01*
X0086618Y0244624D01*
X0086852Y0245343D01*
X0087195Y0246016D01*
X0087639Y0246627D01*
X0088173Y0247161D01*
X0088784Y0247605D01*
X0089457Y0247948D01*
X0090176Y0248182D01*
X0090922Y0248300D01*
X0091300Y0248300D01*
X0091300Y0243500D01*
X0086500Y0243500D01*
X0086500Y0243122D01*
X0086618Y0242376D01*
X0086852Y0241657D01*
X0087195Y0240984D01*
X0087639Y0240373D01*
X0088173Y0239839D01*
X0088784Y0239395D01*
X0089457Y0239052D01*
X0091300Y0239062D02*
X0091300Y0239062D01*
X0091300Y0241460D02*
X0091300Y0241460D01*
X0091300Y0243859D02*
X0091300Y0243859D01*
X0091300Y0246257D02*
X0091300Y0246257D01*
X0087370Y0246257D02*
X0023800Y0246257D01*
X0023800Y0243859D02*
X0086500Y0243859D01*
X0086952Y0241460D02*
X0023800Y0241460D01*
X0023800Y0253453D02*
X0218105Y0253453D01*
X0233332Y0224670D02*
X0234268Y0224670D01*
X0234123Y0217475D02*
X0233477Y0217475D01*
X0243477Y0217475D02*
X0245537Y0217475D01*
X0248800Y0217475D02*
X0248800Y0217475D01*
X0248800Y0216200D02*
X0248800Y0221000D01*
X0248800Y0221000D01*
X0248800Y0216200D01*
X0252063Y0217475D02*
X0254123Y0217475D01*
X0248800Y0219873D02*
X0248800Y0219873D01*
X0248800Y0222272D02*
X0248800Y0222272D01*
X0248800Y0224670D02*
X0248800Y0224670D01*
X0245686Y0224670D02*
X0243332Y0224670D01*
X0251914Y0224670D02*
X0254268Y0224670D01*
X0263332Y0224670D02*
X0264268Y0224670D01*
X0264123Y0217475D02*
X0263477Y0217475D01*
X0273477Y0217475D02*
X0274123Y0217475D01*
X0274268Y0224670D02*
X0273332Y0224670D01*
X0283332Y0224670D02*
X0284268Y0224670D01*
X0284123Y0217475D02*
X0283477Y0217475D01*
X0293477Y0217475D02*
X0295537Y0217475D01*
X0298800Y0217475D02*
X0298800Y0217475D01*
X0298800Y0216200D02*
X0298800Y0221000D01*
X0298800Y0221000D01*
X0298800Y0216200D01*
X0298800Y0219873D02*
X0298800Y0219873D01*
X0298800Y0222272D02*
X0298800Y0222272D01*
X0298800Y0224670D02*
X0298800Y0224670D01*
X0295686Y0224670D02*
X0293332Y0224670D01*
X0289954Y0196800D02*
X0287646Y0196800D01*
X0285515Y0195917D01*
X0283883Y0194285D01*
X0283800Y0194085D01*
X0283717Y0194285D01*
X0282085Y0195917D01*
X0279954Y0196800D01*
X0277646Y0196800D01*
X0275515Y0195917D01*
X0273883Y0194285D01*
X0273800Y0194085D01*
X0273717Y0194285D01*
X0272085Y0195917D01*
X0269954Y0196800D01*
X0267646Y0196800D01*
X0265515Y0195917D01*
X0263883Y0194285D01*
X0263800Y0194085D01*
X0263717Y0194285D01*
X0262085Y0195917D01*
X0259954Y0196800D01*
X0257646Y0196800D01*
X0255515Y0195917D01*
X0253883Y0194285D01*
X0253800Y0194085D01*
X0253717Y0194285D01*
X0252085Y0195917D01*
X0249954Y0196800D01*
X0247646Y0196800D01*
X0245515Y0195917D01*
X0243883Y0194285D01*
X0243800Y0194085D01*
X0243717Y0194285D01*
X0242085Y0195917D01*
X0239954Y0196800D01*
X0237646Y0196800D01*
X0235515Y0195917D01*
X0233883Y0194285D01*
X0233800Y0194085D01*
X0233717Y0194285D01*
X0232085Y0195917D01*
X0229954Y0196800D01*
X0227646Y0196800D01*
X0225515Y0195917D01*
X0223883Y0194285D01*
X0223000Y0192154D01*
X0223000Y0189846D01*
X0223883Y0187715D01*
X0225515Y0186083D01*
X0227646Y0185200D01*
X0229954Y0185200D01*
X0232085Y0186083D01*
X0233717Y0187715D01*
X0233800Y0187915D01*
X0233883Y0187715D01*
X0235515Y0186083D01*
X0237646Y0185200D01*
X0239954Y0185200D01*
X0242085Y0186083D01*
X0243717Y0187715D01*
X0243800Y0187915D01*
X0243883Y0187715D01*
X0245515Y0186083D01*
X0247646Y0185200D01*
X0249954Y0185200D01*
X0252085Y0186083D01*
X0253717Y0187715D01*
X0253800Y0187915D01*
X0253883Y0187715D01*
X0255515Y0186083D01*
X0257646Y0185200D01*
X0259954Y0185200D01*
X0262085Y0186083D01*
X0263717Y0187715D01*
X0263800Y0187915D01*
X0263883Y0187715D01*
X0265515Y0186083D01*
X0267646Y0185200D01*
X0269954Y0185200D01*
X0272085Y0186083D01*
X0273717Y0187715D01*
X0273800Y0187915D01*
X0273883Y0187715D01*
X0275515Y0186083D01*
X0277646Y0185200D01*
X0279954Y0185200D01*
X0282085Y0186083D01*
X0283717Y0187715D01*
X0283800Y0187915D01*
X0283883Y0187715D01*
X0285515Y0186083D01*
X0287646Y0185200D01*
X0289954Y0185200D01*
X0292085Y0186083D01*
X0293717Y0187715D01*
X0293800Y0187915D01*
X0293883Y0187715D01*
X0295515Y0186083D01*
X0297646Y0185200D01*
X0299954Y0185200D01*
X0302085Y0186083D01*
X0303717Y0187715D01*
X0304600Y0189846D01*
X0304600Y0192154D01*
X0303717Y0194285D01*
X0302085Y0195917D01*
X0299954Y0196800D01*
X0297646Y0196800D01*
X0295515Y0195917D01*
X0293883Y0194285D01*
X0293800Y0194085D01*
X0293717Y0194285D01*
X0292085Y0195917D01*
X0289954Y0196800D01*
X0292114Y0195888D02*
X0295486Y0195888D01*
X0302114Y0195888D02*
X0339920Y0195888D01*
X0338213Y0198287D02*
X0023800Y0198287D01*
X0023800Y0200685D02*
X0337600Y0200685D01*
X0337952Y0203084D02*
X0023800Y0203084D01*
X0023800Y0205482D02*
X0339514Y0205482D01*
X0339639Y0207881D02*
X0023800Y0207881D01*
X0023800Y0210279D02*
X0338649Y0210279D01*
X0343800Y0212678D02*
X0343800Y0212678D01*
X0343800Y0215076D02*
X0343800Y0215076D01*
X0338121Y0193490D02*
X0304047Y0193490D01*
X0304600Y0191091D02*
X0337600Y0191091D01*
X0338045Y0188693D02*
X0304122Y0188693D01*
X0302297Y0186294D02*
X0339738Y0186294D01*
X0347862Y0186294D02*
X0463800Y0186294D01*
X0463800Y0183896D02*
X0023800Y0183896D01*
X0023800Y0186294D02*
X0225303Y0186294D01*
X0223478Y0188693D02*
X0023800Y0188693D01*
X0023800Y0191091D02*
X0223000Y0191091D01*
X0223553Y0193490D02*
X0023800Y0193490D01*
X0023800Y0195888D02*
X0225486Y0195888D01*
X0232114Y0195888D02*
X0235486Y0195888D01*
X0242114Y0195888D02*
X0245486Y0195888D01*
X0252114Y0195888D02*
X0255486Y0195888D01*
X0262114Y0195888D02*
X0265486Y0195888D01*
X0272114Y0195888D02*
X0275486Y0195888D01*
X0282114Y0195888D02*
X0285486Y0195888D01*
X0285303Y0186294D02*
X0282297Y0186294D01*
X0275303Y0186294D02*
X0272297Y0186294D01*
X0265303Y0186294D02*
X0262297Y0186294D01*
X0255303Y0186294D02*
X0252297Y0186294D01*
X0245303Y0186294D02*
X0242297Y0186294D01*
X0235303Y0186294D02*
X0232297Y0186294D01*
X0216316Y0170105D02*
X0215643Y0170448D01*
X0214924Y0170682D01*
X0214178Y0170800D01*
X0213800Y0170800D01*
X0213800Y0166000D01*
X0218600Y0166000D01*
X0218600Y0166378D01*
X0218482Y0167124D01*
X0218248Y0167843D01*
X0217905Y0168516D01*
X0217461Y0169127D01*
X0216927Y0169661D01*
X0216316Y0170105D01*
X0217083Y0169505D02*
X0249102Y0169505D01*
X0248883Y0169285D02*
X0248000Y0167154D01*
X0248000Y0164846D01*
X0248883Y0162715D01*
X0250515Y0161083D01*
X0252646Y0160200D01*
X0254954Y0160200D01*
X0257085Y0161083D01*
X0258717Y0162715D01*
X0259600Y0164846D01*
X0259600Y0167154D01*
X0258717Y0169285D01*
X0257085Y0170917D01*
X0254954Y0171800D01*
X0252646Y0171800D01*
X0250515Y0170917D01*
X0248883Y0169285D01*
X0248000Y0167106D02*
X0218485Y0167106D01*
X0218600Y0166000D02*
X0213800Y0166000D01*
X0213800Y0166000D01*
X0213800Y0166000D01*
X0213800Y0161200D01*
X0214178Y0161200D01*
X0214924Y0161318D01*
X0215643Y0161552D01*
X0216316Y0161895D01*
X0216927Y0162339D01*
X0217461Y0162873D01*
X0217905Y0163484D01*
X0218248Y0164157D01*
X0218482Y0164876D01*
X0218600Y0165622D01*
X0218600Y0166000D01*
X0218427Y0164708D02*
X0248057Y0164708D01*
X0249288Y0162309D02*
X0216886Y0162309D01*
X0213800Y0162309D02*
X0213800Y0162309D01*
X0213800Y0161200D02*
X0213422Y0161200D01*
X0212676Y0161318D01*
X0211957Y0161552D01*
X0211284Y0161895D01*
X0210673Y0162339D01*
X0210139Y0162873D01*
X0209695Y0163484D01*
X0209352Y0164157D01*
X0209118Y0164876D01*
X0209000Y0165622D01*
X0209000Y0166000D01*
X0213800Y0166000D01*
X0213800Y0166000D01*
X0213800Y0166000D01*
X0213800Y0170800D01*
X0213422Y0170800D01*
X0212676Y0170682D01*
X0211957Y0170448D01*
X0211284Y0170105D01*
X0210673Y0169661D01*
X0210139Y0169127D01*
X0209695Y0168516D01*
X0209352Y0167843D01*
X0209118Y0167124D01*
X0209000Y0166378D01*
X0209000Y0166000D01*
X0213800Y0166000D01*
X0213800Y0161200D01*
X0210714Y0162309D02*
X0044655Y0162309D01*
X0044150Y0162100D02*
X0047734Y0163584D01*
X0050477Y0166327D01*
X0051961Y0169911D01*
X0051961Y0173789D01*
X0050477Y0177373D01*
X0047734Y0180116D01*
X0044150Y0181600D01*
X0040272Y0181600D01*
X0036688Y0180116D01*
X0033945Y0177373D01*
X0032461Y0173789D01*
X0032461Y0169911D01*
X0033945Y0166327D01*
X0036688Y0163584D01*
X0040272Y0162100D01*
X0044150Y0162100D01*
X0039767Y0162309D02*
X0023800Y0162309D01*
X0023800Y0159911D02*
X0372828Y0159911D01*
X0372828Y0159812D02*
X0373737Y0157617D01*
X0375355Y0156000D01*
X0373737Y0154383D01*
X0372828Y0152188D01*
X0372828Y0149812D01*
X0373737Y0147617D01*
X0375417Y0145937D01*
X0376588Y0145453D01*
X0376194Y0145252D01*
X0375561Y0144792D01*
X0375008Y0144239D01*
X0374548Y0143606D01*
X0374193Y0142908D01*
X0373951Y0142164D01*
X0373828Y0141391D01*
X0373828Y0141000D01*
X0373828Y0140609D01*
X0373951Y0139836D01*
X0374193Y0139092D01*
X0374548Y0138394D01*
X0375008Y0137761D01*
X0375561Y0137208D01*
X0376194Y0136748D01*
X0376892Y0136393D01*
X0377636Y0136151D01*
X0378409Y0136028D01*
X0378800Y0136028D01*
X0378800Y0141000D01*
X0383772Y0141000D01*
X0383772Y0141391D01*
X0383649Y0142164D01*
X0383407Y0142908D01*
X0383052Y0143606D01*
X0382592Y0144239D01*
X0382039Y0144792D01*
X0381406Y0145252D01*
X0381012Y0145453D01*
X0382183Y0145937D01*
X0383863Y0147617D01*
X0384772Y0149812D01*
X0384772Y0152188D01*
X0383863Y0154383D01*
X0382245Y0156000D01*
X0383863Y0157617D01*
X0384772Y0159812D01*
X0384772Y0162188D01*
X0383863Y0164383D01*
X0382245Y0166000D01*
X0383863Y0167617D01*
X0384772Y0169812D01*
X0384772Y0172188D01*
X0383863Y0174383D01*
X0382183Y0176063D01*
X0379988Y0176972D01*
X0377612Y0176972D01*
X0375417Y0176063D01*
X0373737Y0174383D01*
X0372828Y0172188D01*
X0372828Y0169812D01*
X0373737Y0167617D01*
X0375355Y0166000D01*
X0373737Y0164383D01*
X0372828Y0162188D01*
X0372828Y0159812D01*
X0372879Y0162309D02*
X0258312Y0162309D01*
X0259543Y0164708D02*
X0374063Y0164708D01*
X0374249Y0167106D02*
X0259600Y0167106D01*
X0258498Y0169505D02*
X0372956Y0169505D01*
X0372828Y0171903D02*
X0051961Y0171903D01*
X0051793Y0169505D02*
X0210517Y0169505D01*
X0209115Y0167106D02*
X0050799Y0167106D01*
X0048857Y0164708D02*
X0209173Y0164708D01*
X0213800Y0164708D02*
X0213800Y0164708D01*
X0213800Y0167106D02*
X0213800Y0167106D01*
X0213800Y0169505D02*
X0213800Y0169505D01*
X0221358Y0154915D02*
X0220775Y0154492D01*
X0220266Y0153982D01*
X0219842Y0153399D01*
X0219515Y0152757D01*
X0219292Y0152072D01*
X0219180Y0151360D01*
X0219180Y0151000D01*
X0219180Y0150640D01*
X0219292Y0149928D01*
X0219515Y0149243D01*
X0219842Y0148601D01*
X0220266Y0148018D01*
X0220775Y0147508D01*
X0221358Y0147085D01*
X0222000Y0146757D01*
X0222685Y0146535D01*
X0223397Y0146422D01*
X0223757Y0146422D01*
X0223757Y0151000D01*
X0219180Y0151000D01*
X0223757Y0151000D01*
X0223757Y0151000D01*
X0223758Y0151000D01*
X0228335Y0151000D01*
X0228335Y0151360D01*
X0228223Y0152072D01*
X0228000Y0152757D01*
X0227673Y0153399D01*
X0227249Y0153982D01*
X0226740Y0154492D01*
X0226157Y0154915D01*
X0225515Y0155243D01*
X0224829Y0155465D01*
X0224118Y0155578D01*
X0223758Y0155578D01*
X0223758Y0151000D01*
X0223758Y0151000D01*
X0228335Y0151000D01*
X0228335Y0150640D01*
X0228223Y0149928D01*
X0228000Y0149243D01*
X0227673Y0148601D01*
X0227249Y0148018D01*
X0226740Y0147508D01*
X0226157Y0147085D01*
X0225515Y0146757D01*
X0224829Y0146535D01*
X0224118Y0146422D01*
X0223758Y0146422D01*
X0223758Y0151000D01*
X0223757Y0151000D01*
X0223757Y0155578D01*
X0223397Y0155578D01*
X0222685Y0155465D01*
X0222000Y0155243D01*
X0221358Y0154915D01*
X0221747Y0155114D02*
X0023800Y0155114D01*
X0023800Y0157512D02*
X0373843Y0157512D01*
X0374468Y0155114D02*
X0247217Y0155114D01*
X0246602Y0155729D02*
X0248171Y0154160D01*
X0249020Y0152110D01*
X0249020Y0149890D01*
X0248171Y0147840D01*
X0246602Y0146271D01*
X0244552Y0145422D01*
X0242333Y0145422D01*
X0240283Y0146271D01*
X0238714Y0147840D01*
X0237865Y0149890D01*
X0237865Y0152110D01*
X0238714Y0154160D01*
X0240283Y0155729D01*
X0242333Y0156578D01*
X0244552Y0156578D01*
X0246602Y0155729D01*
X0248770Y0152715D02*
X0373047Y0152715D01*
X0372828Y0150317D02*
X0249020Y0150317D01*
X0248203Y0147918D02*
X0373613Y0147918D01*
X0376426Y0145520D02*
X0244788Y0145520D01*
X0242097Y0145520D02*
X0023800Y0145520D01*
X0023800Y0147918D02*
X0220365Y0147918D01*
X0219231Y0150317D02*
X0023800Y0150317D01*
X0023800Y0152715D02*
X0219501Y0152715D01*
X0223757Y0152715D02*
X0223758Y0152715D01*
X0223757Y0150317D02*
X0223758Y0150317D01*
X0223757Y0147918D02*
X0223758Y0147918D01*
X0227150Y0147918D02*
X0238682Y0147918D01*
X0237865Y0150317D02*
X0228284Y0150317D01*
X0228014Y0152715D02*
X0238115Y0152715D01*
X0239668Y0155114D02*
X0225768Y0155114D01*
X0223758Y0155114D02*
X0223757Y0155114D01*
X0216316Y0140105D02*
X0215643Y0140448D01*
X0214924Y0140682D01*
X0214178Y0140800D01*
X0213800Y0140800D01*
X0213800Y0136000D01*
X0218600Y0136000D01*
X0218600Y0136378D01*
X0218482Y0137124D01*
X0218248Y0137843D01*
X0217905Y0138516D01*
X0217461Y0139127D01*
X0216927Y0139661D01*
X0216316Y0140105D01*
X0214666Y0140723D02*
X0250320Y0140723D01*
X0250515Y0140917D02*
X0248883Y0139285D01*
X0248000Y0137154D01*
X0248000Y0134846D01*
X0248883Y0132715D01*
X0250515Y0131083D01*
X0252646Y0130200D01*
X0254954Y0130200D01*
X0257085Y0131083D01*
X0258717Y0132715D01*
X0259600Y0134846D01*
X0259600Y0137154D01*
X0258717Y0139285D01*
X0257085Y0140917D01*
X0254954Y0141800D01*
X0252646Y0141800D01*
X0250515Y0140917D01*
X0248485Y0138324D02*
X0218003Y0138324D01*
X0218600Y0136000D02*
X0213800Y0136000D01*
X0213800Y0136000D01*
X0213800Y0136000D01*
X0213800Y0131200D01*
X0214178Y0131200D01*
X0214924Y0131318D01*
X0215643Y0131552D01*
X0216316Y0131895D01*
X0216927Y0132339D01*
X0217461Y0132873D01*
X0217905Y0133484D01*
X0218248Y0134157D01*
X0218482Y0134876D01*
X0218600Y0135622D01*
X0218600Y0136000D01*
X0218600Y0135926D02*
X0248000Y0135926D01*
X0248546Y0133527D02*
X0217927Y0133527D01*
X0213800Y0133527D02*
X0213800Y0133527D01*
X0213800Y0131200D02*
X0213422Y0131200D01*
X0212676Y0131318D01*
X0211957Y0131552D01*
X0211284Y0131895D01*
X0210673Y0132339D01*
X0210139Y0132873D01*
X0209695Y0133484D01*
X0209352Y0134157D01*
X0209118Y0134876D01*
X0209000Y0135622D01*
X0209000Y0136000D01*
X0213800Y0136000D01*
X0213800Y0136000D01*
X0213800Y0136000D01*
X0213800Y0140800D01*
X0213422Y0140800D01*
X0212676Y0140682D01*
X0211957Y0140448D01*
X0211284Y0140105D01*
X0210673Y0139661D01*
X0210139Y0139127D01*
X0209695Y0138516D01*
X0209352Y0137843D01*
X0209118Y0137124D01*
X0209000Y0136378D01*
X0209000Y0136000D01*
X0213800Y0136000D01*
X0213800Y0131200D01*
X0209673Y0133527D02*
X0051348Y0133527D01*
X0051247Y0133725D02*
X0050766Y0134388D01*
X0050188Y0134966D01*
X0049525Y0135447D01*
X0048796Y0135819D01*
X0048018Y0136072D01*
X0047209Y0136200D01*
X0046800Y0136200D01*
X0046800Y0131000D01*
X0052000Y0131000D01*
X0052000Y0131409D01*
X0051872Y0132218D01*
X0051619Y0132996D01*
X0051247Y0133725D01*
X0052000Y0131129D02*
X0250469Y0131129D01*
X0257131Y0131129D02*
X0463800Y0131129D01*
X0463800Y0133527D02*
X0259054Y0133527D01*
X0259600Y0135926D02*
X0426946Y0135926D01*
X0426917Y0135937D02*
X0429112Y0135028D01*
X0431488Y0135028D01*
X0433683Y0135937D01*
X0435363Y0137617D01*
X0436272Y0139812D01*
X0436272Y0142188D01*
X0435363Y0144383D01*
X0433745Y0146000D01*
X0435363Y0147617D01*
X0436272Y0149812D01*
X0436272Y0152188D01*
X0435363Y0154383D01*
X0433745Y0156000D01*
X0435363Y0157617D01*
X0436272Y0159812D01*
X0436272Y0162188D01*
X0435363Y0164383D01*
X0433745Y0166000D01*
X0435363Y0167617D01*
X0436272Y0169812D01*
X0436272Y0172188D01*
X0435363Y0174383D01*
X0433683Y0176063D01*
X0431488Y0176972D01*
X0429112Y0176972D01*
X0426917Y0176063D01*
X0425237Y0174383D01*
X0424328Y0172188D01*
X0424328Y0169812D01*
X0425237Y0167617D01*
X0426855Y0166000D01*
X0425237Y0164383D01*
X0424328Y0162188D01*
X0424328Y0159812D01*
X0425237Y0157617D01*
X0426855Y0156000D01*
X0425237Y0154383D01*
X0424328Y0152188D01*
X0424328Y0149812D01*
X0425237Y0147617D01*
X0426855Y0146000D01*
X0425237Y0144383D01*
X0424328Y0142188D01*
X0424328Y0139812D01*
X0425237Y0137617D01*
X0426917Y0135937D01*
X0424945Y0138324D02*
X0383001Y0138324D01*
X0383052Y0138394D02*
X0383407Y0139092D01*
X0383649Y0139836D01*
X0383772Y0140609D01*
X0383772Y0141000D01*
X0378800Y0141000D01*
X0378800Y0141000D01*
X0378800Y0136028D01*
X0379191Y0136028D01*
X0379964Y0136151D01*
X0380708Y0136393D01*
X0381406Y0136748D01*
X0382039Y0137208D01*
X0382592Y0137761D01*
X0383052Y0138394D01*
X0383772Y0140723D02*
X0424328Y0140723D01*
X0424715Y0143121D02*
X0383299Y0143121D01*
X0381174Y0145520D02*
X0426374Y0145520D01*
X0425113Y0147918D02*
X0383987Y0147918D01*
X0384772Y0150317D02*
X0424328Y0150317D01*
X0424547Y0152715D02*
X0384553Y0152715D01*
X0383132Y0155114D02*
X0425968Y0155114D01*
X0425343Y0157512D02*
X0383757Y0157512D01*
X0384772Y0159911D02*
X0424328Y0159911D01*
X0424379Y0162309D02*
X0384721Y0162309D01*
X0383537Y0164708D02*
X0425563Y0164708D01*
X0425749Y0167106D02*
X0383351Y0167106D01*
X0384644Y0169505D02*
X0424456Y0169505D01*
X0424328Y0171903D02*
X0384772Y0171903D01*
X0383896Y0174302D02*
X0425204Y0174302D01*
X0428457Y0176700D02*
X0380643Y0176700D01*
X0376957Y0176700D02*
X0050755Y0176700D01*
X0051749Y0174302D02*
X0373704Y0174302D01*
X0392094Y0191091D02*
X0429941Y0191091D01*
X0428129Y0193490D02*
X0394038Y0193490D01*
X0394600Y0195888D02*
X0427600Y0195888D01*
X0428036Y0198287D02*
X0394131Y0198287D01*
X0392317Y0200685D02*
X0429717Y0200685D01*
X0437659Y0191091D02*
X0442080Y0191091D01*
X0448357Y0193490D02*
X0463800Y0193490D01*
X0463800Y0195888D02*
X0449000Y0195888D01*
X0448471Y0198287D02*
X0463800Y0198287D01*
X0463800Y0181497D02*
X0044398Y0181497D01*
X0040024Y0181497D02*
X0023800Y0181497D01*
X0023800Y0179099D02*
X0035671Y0179099D01*
X0033667Y0176700D02*
X0023800Y0176700D01*
X0023800Y0174302D02*
X0032673Y0174302D01*
X0032461Y0171903D02*
X0023800Y0171903D01*
X0023800Y0169505D02*
X0032629Y0169505D01*
X0033623Y0167106D02*
X0023800Y0167106D01*
X0023800Y0164708D02*
X0035565Y0164708D01*
X0048751Y0179099D02*
X0463800Y0179099D01*
X0463800Y0176700D02*
X0432143Y0176700D01*
X0435396Y0174302D02*
X0463800Y0174302D01*
X0463800Y0171903D02*
X0436272Y0171903D01*
X0436144Y0169505D02*
X0463800Y0169505D01*
X0463800Y0167106D02*
X0434851Y0167106D01*
X0435037Y0164708D02*
X0463800Y0164708D01*
X0463800Y0162309D02*
X0436221Y0162309D01*
X0436272Y0159911D02*
X0463800Y0159911D01*
X0463800Y0157512D02*
X0435257Y0157512D01*
X0434632Y0155114D02*
X0463800Y0155114D01*
X0463800Y0152715D02*
X0436053Y0152715D01*
X0436272Y0150317D02*
X0463800Y0150317D01*
X0463800Y0147918D02*
X0435487Y0147918D01*
X0434226Y0145520D02*
X0463800Y0145520D01*
X0463800Y0143121D02*
X0435885Y0143121D01*
X0436272Y0140723D02*
X0463800Y0140723D01*
X0463800Y0138324D02*
X0435655Y0138324D01*
X0433654Y0135926D02*
X0463800Y0135926D01*
X0463800Y0128730D02*
X0051479Y0128730D01*
X0051619Y0129004D02*
X0051872Y0129782D01*
X0052000Y0130591D01*
X0052000Y0131000D01*
X0046800Y0131000D01*
X0046800Y0131000D01*
X0046800Y0131000D01*
X0046800Y0131000D01*
X0041600Y0131000D01*
X0041600Y0131409D01*
X0041728Y0132218D01*
X0041981Y0132996D01*
X0042353Y0133725D01*
X0042834Y0134388D01*
X0043412Y0134966D01*
X0044075Y0135447D01*
X0044804Y0135819D01*
X0045582Y0136072D01*
X0046391Y0136200D01*
X0046800Y0136200D01*
X0046800Y0131000D01*
X0041600Y0131000D01*
X0041600Y0130591D01*
X0041728Y0129782D01*
X0041981Y0129004D01*
X0042353Y0128275D01*
X0042834Y0127612D01*
X0043412Y0127034D01*
X0044049Y0126571D01*
X0043288Y0126256D01*
X0041544Y0124512D01*
X0040600Y0122233D01*
X0040600Y0119767D01*
X0041544Y0117488D01*
X0043288Y0115744D01*
X0045567Y0114800D01*
X0048033Y0114800D01*
X0050312Y0115744D01*
X0052056Y0117488D01*
X0053000Y0119767D01*
X0053000Y0122233D01*
X0052056Y0124512D01*
X0050312Y0126256D01*
X0049551Y0126571D01*
X0050188Y0127034D01*
X0050766Y0127612D01*
X0051247Y0128275D01*
X0051619Y0129004D01*
X0050130Y0126332D02*
X0257253Y0126332D01*
X0257848Y0126578D02*
X0255798Y0125729D01*
X0254229Y0124160D01*
X0253380Y0122110D01*
X0253380Y0119890D01*
X0254229Y0117840D01*
X0255798Y0116271D01*
X0257848Y0115422D01*
X0260067Y0115422D01*
X0262117Y0116271D01*
X0263686Y0117840D01*
X0264535Y0119890D01*
X0264535Y0122110D01*
X0263686Y0124160D01*
X0262117Y0125729D01*
X0260067Y0126578D01*
X0257848Y0126578D01*
X0260662Y0126332D02*
X0276938Y0126332D01*
X0277533Y0126578D02*
X0275483Y0125729D01*
X0273914Y0124160D01*
X0273065Y0122110D01*
X0273065Y0119890D01*
X0273914Y0117840D01*
X0275483Y0116271D01*
X0277533Y0115422D01*
X0279752Y0115422D01*
X0281802Y0116271D01*
X0283371Y0117840D01*
X0284220Y0119890D01*
X0284220Y0122110D01*
X0283371Y0124160D01*
X0281802Y0125729D01*
X0279752Y0126578D01*
X0277533Y0126578D01*
X0280347Y0126332D02*
X0463800Y0126332D01*
X0463800Y0123933D02*
X0283465Y0123933D01*
X0284220Y0121534D02*
X0463800Y0121534D01*
X0463800Y0119136D02*
X0283908Y0119136D01*
X0282268Y0116737D02*
X0377047Y0116737D01*
X0377612Y0116972D02*
X0375417Y0116063D01*
X0373737Y0114383D01*
X0372828Y0112188D01*
X0372828Y0109812D01*
X0373737Y0107617D01*
X0375355Y0106000D01*
X0373737Y0104383D01*
X0372828Y0102188D01*
X0372828Y0099812D01*
X0373737Y0097617D01*
X0375355Y0096000D01*
X0373737Y0094383D01*
X0372828Y0092188D01*
X0372828Y0089812D01*
X0373737Y0087617D01*
X0375417Y0085937D01*
X0376588Y0085453D01*
X0376194Y0085252D01*
X0375561Y0084792D01*
X0375008Y0084239D01*
X0374548Y0083606D01*
X0374193Y0082908D01*
X0373951Y0082164D01*
X0373828Y0081391D01*
X0373828Y0081000D01*
X0373828Y0080609D01*
X0373951Y0079836D01*
X0374193Y0079092D01*
X0374548Y0078394D01*
X0375008Y0077761D01*
X0375561Y0077208D01*
X0376194Y0076748D01*
X0376892Y0076393D01*
X0377636Y0076151D01*
X0378409Y0076028D01*
X0378800Y0076028D01*
X0378800Y0081000D01*
X0383772Y0081000D01*
X0383772Y0081391D01*
X0383649Y0082164D01*
X0383407Y0082908D01*
X0383052Y0083606D01*
X0382592Y0084239D01*
X0382039Y0084792D01*
X0381406Y0085252D01*
X0381012Y0085453D01*
X0382183Y0085937D01*
X0383863Y0087617D01*
X0384772Y0089812D01*
X0384772Y0092188D01*
X0383863Y0094383D01*
X0382245Y0096000D01*
X0383863Y0097617D01*
X0384772Y0099812D01*
X0384772Y0102188D01*
X0383863Y0104383D01*
X0382245Y0106000D01*
X0383863Y0107617D01*
X0384772Y0109812D01*
X0384772Y0112188D01*
X0383863Y0114383D01*
X0382183Y0116063D01*
X0379988Y0116972D01*
X0377612Y0116972D01*
X0380553Y0116737D02*
X0428547Y0116737D01*
X0429112Y0116972D02*
X0426917Y0116063D01*
X0425237Y0114383D01*
X0424328Y0112188D01*
X0424328Y0109812D01*
X0425237Y0107617D01*
X0426855Y0106000D01*
X0425237Y0104383D01*
X0424328Y0102188D01*
X0424328Y0099812D01*
X0425237Y0097617D01*
X0426855Y0096000D01*
X0425237Y0094383D01*
X0424328Y0092188D01*
X0424328Y0089812D01*
X0425237Y0087617D01*
X0426855Y0086000D01*
X0425237Y0084383D01*
X0424328Y0082188D01*
X0424328Y0079812D01*
X0425237Y0077617D01*
X0426917Y0075937D01*
X0429112Y0075028D01*
X0431488Y0075028D01*
X0433683Y0075937D01*
X0435363Y0077617D01*
X0436272Y0079812D01*
X0436272Y0082188D01*
X0435363Y0084383D01*
X0433745Y0086000D01*
X0435363Y0087617D01*
X0436272Y0089812D01*
X0436272Y0092188D01*
X0435363Y0094383D01*
X0433745Y0096000D01*
X0435363Y0097617D01*
X0436272Y0099812D01*
X0436272Y0102188D01*
X0435363Y0104383D01*
X0433745Y0106000D01*
X0435363Y0107617D01*
X0436272Y0109812D01*
X0436272Y0112188D01*
X0435363Y0114383D01*
X0433683Y0116063D01*
X0431488Y0116972D01*
X0429112Y0116972D01*
X0432053Y0116737D02*
X0463800Y0116737D01*
X0463800Y0114339D02*
X0435381Y0114339D01*
X0436272Y0111940D02*
X0463800Y0111940D01*
X0463800Y0109542D02*
X0436160Y0109542D01*
X0434889Y0107143D02*
X0463800Y0107143D01*
X0463800Y0104745D02*
X0435000Y0104745D01*
X0436206Y0102346D02*
X0463800Y0102346D01*
X0463800Y0099948D02*
X0436272Y0099948D01*
X0435295Y0097549D02*
X0463800Y0097549D01*
X0463800Y0095151D02*
X0434594Y0095151D01*
X0436038Y0092752D02*
X0463800Y0092752D01*
X0463800Y0090354D02*
X0436272Y0090354D01*
X0435503Y0087955D02*
X0463800Y0087955D01*
X0463800Y0085557D02*
X0434188Y0085557D01*
X0435870Y0083158D02*
X0463800Y0083158D01*
X0463800Y0080760D02*
X0436272Y0080760D01*
X0435671Y0078361D02*
X0463800Y0078361D01*
X0463800Y0075963D02*
X0433708Y0075963D01*
X0426892Y0075963D02*
X0256795Y0075963D01*
X0257085Y0076083D02*
X0258717Y0077715D01*
X0259600Y0079846D01*
X0259600Y0082154D01*
X0258717Y0084285D01*
X0257085Y0085917D01*
X0254954Y0086800D01*
X0252646Y0086800D01*
X0250515Y0085917D01*
X0248883Y0084285D01*
X0248000Y0082154D01*
X0248000Y0079846D01*
X0248883Y0077715D01*
X0250515Y0076083D01*
X0252646Y0075200D01*
X0254954Y0075200D01*
X0257085Y0076083D01*
X0258985Y0078361D02*
X0374572Y0078361D01*
X0373828Y0080760D02*
X0259600Y0080760D01*
X0259184Y0083158D02*
X0374320Y0083158D01*
X0373828Y0081000D02*
X0378800Y0081000D01*
X0378800Y0081000D01*
X0383772Y0081000D01*
X0383772Y0080609D01*
X0383649Y0079836D01*
X0383407Y0079092D01*
X0383052Y0078394D01*
X0382592Y0077761D01*
X0382039Y0077208D01*
X0381406Y0076748D01*
X0380708Y0076393D01*
X0379964Y0076151D01*
X0379191Y0076028D01*
X0378800Y0076028D01*
X0378800Y0081000D01*
X0378800Y0081000D01*
X0378800Y0081000D01*
X0373828Y0081000D01*
X0378800Y0080760D02*
X0378800Y0080760D01*
X0378800Y0078361D02*
X0378800Y0078361D01*
X0383028Y0078361D02*
X0424929Y0078361D01*
X0424328Y0080760D02*
X0383772Y0080760D01*
X0383280Y0083158D02*
X0424730Y0083158D01*
X0426412Y0085557D02*
X0381264Y0085557D01*
X0384003Y0087955D02*
X0425097Y0087955D01*
X0424328Y0090354D02*
X0384772Y0090354D01*
X0384538Y0092752D02*
X0424562Y0092752D01*
X0426006Y0095151D02*
X0383094Y0095151D01*
X0383795Y0097549D02*
X0425305Y0097549D01*
X0424328Y0099948D02*
X0384772Y0099948D01*
X0384706Y0102346D02*
X0424394Y0102346D01*
X0425600Y0104745D02*
X0383500Y0104745D01*
X0383389Y0107143D02*
X0425711Y0107143D01*
X0424440Y0109542D02*
X0384660Y0109542D01*
X0384772Y0111940D02*
X0424328Y0111940D01*
X0425219Y0114339D02*
X0383881Y0114339D01*
X0373719Y0114339D02*
X0256067Y0114339D01*
X0257085Y0113917D02*
X0254954Y0114800D01*
X0252646Y0114800D01*
X0250515Y0113917D01*
X0248883Y0112285D01*
X0248000Y0110154D01*
X0248000Y0107846D01*
X0248883Y0105715D01*
X0250515Y0104083D01*
X0252646Y0103200D01*
X0254954Y0103200D01*
X0257085Y0104083D01*
X0258717Y0105715D01*
X0259600Y0107846D01*
X0259600Y0110154D01*
X0258717Y0112285D01*
X0257085Y0113917D01*
X0258860Y0111940D02*
X0372828Y0111940D01*
X0372940Y0109542D02*
X0259600Y0109542D01*
X0259309Y0107143D02*
X0374211Y0107143D01*
X0374100Y0104745D02*
X0257747Y0104745D01*
X0249853Y0104745D02*
X0216022Y0104745D01*
X0216316Y0104895D02*
X0216927Y0105339D01*
X0217461Y0105873D01*
X0217905Y0106484D01*
X0218248Y0107157D01*
X0218482Y0107876D01*
X0218600Y0108622D01*
X0218600Y0109000D01*
X0218600Y0109378D01*
X0218482Y0110124D01*
X0218248Y0110843D01*
X0217905Y0111516D01*
X0217461Y0112127D01*
X0216927Y0112661D01*
X0216316Y0113105D01*
X0215643Y0113448D01*
X0214924Y0113682D01*
X0214178Y0113800D01*
X0213800Y0113800D01*
X0213800Y0109000D01*
X0218600Y0109000D01*
X0213800Y0109000D01*
X0213800Y0109000D01*
X0213800Y0109000D01*
X0213800Y0104200D01*
X0214178Y0104200D01*
X0214924Y0104318D01*
X0215643Y0104552D01*
X0216316Y0104895D01*
X0213800Y0104745D02*
X0213800Y0104745D01*
X0213800Y0104200D02*
X0213800Y0109000D01*
X0213800Y0109000D01*
X0213800Y0109000D01*
X0209000Y0109000D01*
X0209000Y0109378D01*
X0209118Y0110124D01*
X0209352Y0110843D01*
X0209695Y0111516D01*
X0210139Y0112127D01*
X0210673Y0112661D01*
X0211284Y0113105D01*
X0211957Y0113448D01*
X0212676Y0113682D01*
X0213422Y0113800D01*
X0213800Y0113800D01*
X0213800Y0109000D01*
X0209000Y0109000D01*
X0209000Y0108622D01*
X0209118Y0107876D01*
X0209352Y0107157D01*
X0209695Y0106484D01*
X0210139Y0105873D01*
X0210673Y0105339D01*
X0211284Y0104895D01*
X0211957Y0104552D01*
X0212676Y0104318D01*
X0213422Y0104200D01*
X0213800Y0104200D01*
X0211578Y0104745D02*
X0023800Y0104745D01*
X0023800Y0107143D02*
X0209359Y0107143D01*
X0209026Y0109542D02*
X0023800Y0109542D01*
X0023800Y0111940D02*
X0210003Y0111940D01*
X0213800Y0111940D02*
X0213800Y0111940D01*
X0213800Y0109542D02*
X0213800Y0109542D01*
X0213800Y0107143D02*
X0213800Y0107143D01*
X0218241Y0107143D02*
X0248291Y0107143D01*
X0248000Y0109542D02*
X0218574Y0109542D01*
X0217597Y0111940D02*
X0248740Y0111940D01*
X0251533Y0114339D02*
X0023800Y0114339D01*
X0023800Y0116737D02*
X0042294Y0116737D01*
X0040861Y0119136D02*
X0023800Y0119136D01*
X0023800Y0121534D02*
X0040600Y0121534D01*
X0041304Y0123933D02*
X0023800Y0123933D01*
X0023800Y0126332D02*
X0043470Y0126332D01*
X0042120Y0128730D02*
X0023800Y0128730D01*
X0023800Y0131129D02*
X0041600Y0131129D01*
X0042252Y0133527D02*
X0023800Y0133527D01*
X0023800Y0135926D02*
X0045132Y0135926D01*
X0046800Y0135926D02*
X0046800Y0135926D01*
X0048468Y0135926D02*
X0209000Y0135926D01*
X0209597Y0138324D02*
X0023800Y0138324D01*
X0023800Y0140723D02*
X0212934Y0140723D01*
X0213800Y0140723D02*
X0213800Y0140723D01*
X0213800Y0138324D02*
X0213800Y0138324D01*
X0213800Y0135926D02*
X0213800Y0135926D01*
X0254135Y0123933D02*
X0052296Y0123933D01*
X0053000Y0121534D02*
X0253380Y0121534D01*
X0253692Y0119136D02*
X0052739Y0119136D01*
X0051306Y0116737D02*
X0255332Y0116737D01*
X0262583Y0116737D02*
X0275017Y0116737D01*
X0273377Y0119136D02*
X0264223Y0119136D01*
X0264535Y0121534D02*
X0273065Y0121534D01*
X0273820Y0123933D02*
X0263780Y0123933D01*
X0259115Y0138324D02*
X0374599Y0138324D01*
X0373828Y0140723D02*
X0257280Y0140723D01*
X0244752Y0101578D02*
X0242533Y0101578D01*
X0240483Y0100729D01*
X0238914Y0099160D01*
X0238065Y0097110D01*
X0238065Y0094890D01*
X0238914Y0092840D01*
X0240483Y0091271D01*
X0242533Y0090422D01*
X0244752Y0090422D01*
X0246802Y0091271D01*
X0248371Y0092840D01*
X0249220Y0094890D01*
X0249220Y0097110D01*
X0248371Y0099160D01*
X0246802Y0100729D01*
X0244752Y0101578D01*
X0247583Y0099948D02*
X0372828Y0099948D01*
X0372894Y0102346D02*
X0023800Y0102346D01*
X0023800Y0099948D02*
X0221622Y0099948D01*
X0221558Y0099915D02*
X0220975Y0099492D01*
X0220466Y0098982D01*
X0220042Y0098399D01*
X0219715Y0097757D01*
X0219492Y0097072D01*
X0219380Y0096360D01*
X0219380Y0096000D01*
X0219380Y0095640D01*
X0219492Y0094928D01*
X0219715Y0094243D01*
X0220042Y0093601D01*
X0220466Y0093018D01*
X0220975Y0092508D01*
X0221558Y0092085D01*
X0222200Y0091757D01*
X0222885Y0091535D01*
X0223597Y0091422D01*
X0223957Y0091422D01*
X0223957Y0096000D01*
X0219380Y0096000D01*
X0223957Y0096000D01*
X0223957Y0096000D01*
X0223958Y0096000D01*
X0228535Y0096000D01*
X0228535Y0096360D01*
X0228423Y0097072D01*
X0228200Y0097757D01*
X0227873Y0098399D01*
X0227449Y0098982D01*
X0226940Y0099492D01*
X0226357Y0099915D01*
X0225715Y0100243D01*
X0225029Y0100465D01*
X0224318Y0100578D01*
X0223958Y0100578D01*
X0223958Y0096000D01*
X0223958Y0096000D01*
X0228535Y0096000D01*
X0228535Y0095640D01*
X0228423Y0094928D01*
X0228200Y0094243D01*
X0227873Y0093601D01*
X0227449Y0093018D01*
X0226940Y0092508D01*
X0226357Y0092085D01*
X0225715Y0091757D01*
X0225029Y0091535D01*
X0224318Y0091422D01*
X0223958Y0091422D01*
X0223958Y0096000D01*
X0223957Y0096000D01*
X0223957Y0100578D01*
X0223597Y0100578D01*
X0222885Y0100465D01*
X0222200Y0100243D01*
X0221558Y0099915D01*
X0223957Y0099948D02*
X0223958Y0099948D01*
X0226293Y0099948D02*
X0239702Y0099948D01*
X0238247Y0097549D02*
X0228268Y0097549D01*
X0228458Y0095151D02*
X0238065Y0095151D01*
X0239002Y0092752D02*
X0227184Y0092752D01*
X0223958Y0092752D02*
X0223957Y0092752D01*
X0223957Y0095151D02*
X0223958Y0095151D01*
X0223957Y0097549D02*
X0223958Y0097549D01*
X0219647Y0097549D02*
X0023800Y0097549D01*
X0023800Y0095151D02*
X0219457Y0095151D01*
X0220731Y0092752D02*
X0182693Y0092752D01*
X0182383Y0093063D02*
X0180188Y0093972D01*
X0177812Y0093972D01*
X0175617Y0093063D01*
X0173937Y0091383D01*
X0173028Y0089188D01*
X0173028Y0086812D01*
X0173937Y0084617D01*
X0175617Y0082937D01*
X0177812Y0082028D01*
X0180188Y0082028D01*
X0182383Y0082937D01*
X0184063Y0084617D01*
X0184972Y0086812D01*
X0184972Y0089188D01*
X0184063Y0091383D01*
X0182383Y0093063D01*
X0184489Y0090354D02*
X0297319Y0090354D01*
X0297208Y0090465D02*
X0298665Y0089008D01*
X0300569Y0088219D01*
X0302631Y0088219D01*
X0304535Y0089008D01*
X0305992Y0090465D01*
X0306679Y0092124D01*
X0307408Y0090365D01*
X0308865Y0088908D01*
X0310769Y0088119D01*
X0312831Y0088119D01*
X0314735Y0088908D01*
X0316192Y0090365D01*
X0316981Y0092269D01*
X0316981Y0094331D01*
X0316192Y0096235D01*
X0314735Y0097692D01*
X0312831Y0098481D01*
X0310769Y0098481D01*
X0308865Y0097692D01*
X0307408Y0096235D01*
X0306721Y0094576D01*
X0305992Y0096335D01*
X0304535Y0097792D01*
X0302631Y0098581D01*
X0300569Y0098581D01*
X0298665Y0097792D01*
X0297208Y0096335D01*
X0296419Y0094431D01*
X0296419Y0092369D01*
X0297208Y0090465D01*
X0296419Y0092752D02*
X0248283Y0092752D01*
X0249220Y0095151D02*
X0296717Y0095151D01*
X0298422Y0097549D02*
X0249038Y0097549D01*
X0250154Y0085557D02*
X0215309Y0085557D01*
X0215643Y0085448D02*
X0214924Y0085682D01*
X0214178Y0085800D01*
X0213800Y0085800D01*
X0213800Y0081000D01*
X0218600Y0081000D01*
X0218600Y0081378D01*
X0218482Y0082124D01*
X0218248Y0082843D01*
X0217905Y0083516D01*
X0217461Y0084127D01*
X0216927Y0084661D01*
X0216316Y0085105D01*
X0215643Y0085448D01*
X0213800Y0085557D02*
X0213800Y0085557D01*
X0213800Y0085800D02*
X0213422Y0085800D01*
X0212676Y0085682D01*
X0211957Y0085448D01*
X0211284Y0085105D01*
X0210673Y0084661D01*
X0210139Y0084127D01*
X0209695Y0083516D01*
X0209352Y0082843D01*
X0209118Y0082124D01*
X0209000Y0081378D01*
X0209000Y0081000D01*
X0213800Y0081000D01*
X0213800Y0081000D01*
X0213800Y0081000D01*
X0218600Y0081000D01*
X0218600Y0080622D01*
X0218482Y0079876D01*
X0218248Y0079157D01*
X0217905Y0078484D01*
X0217461Y0077873D01*
X0216927Y0077339D01*
X0216316Y0076895D01*
X0215643Y0076552D01*
X0214924Y0076318D01*
X0214178Y0076200D01*
X0213800Y0076200D01*
X0213800Y0081000D01*
X0213800Y0081000D01*
X0213800Y0081000D01*
X0213800Y0085800D01*
X0212291Y0085557D02*
X0184452Y0085557D01*
X0184972Y0087955D02*
X0373597Y0087955D01*
X0372828Y0090354D02*
X0316181Y0090354D01*
X0316981Y0092752D02*
X0373062Y0092752D01*
X0374506Y0095151D02*
X0316641Y0095151D01*
X0314878Y0097549D02*
X0373805Y0097549D01*
X0376336Y0085557D02*
X0257446Y0085557D01*
X0248416Y0083158D02*
X0218087Y0083158D01*
X0218600Y0080760D02*
X0248000Y0080760D01*
X0248615Y0078361D02*
X0217816Y0078361D01*
X0213800Y0078361D02*
X0213800Y0078361D01*
X0213800Y0076200D02*
X0213422Y0076200D01*
X0212676Y0076318D01*
X0211957Y0076552D01*
X0211284Y0076895D01*
X0210673Y0077339D01*
X0210139Y0077873D01*
X0209695Y0078484D01*
X0209352Y0079157D01*
X0209118Y0079876D01*
X0209000Y0080622D01*
X0209000Y0081000D01*
X0213800Y0081000D01*
X0213800Y0076200D01*
X0213800Y0080760D02*
X0213800Y0080760D01*
X0213800Y0083158D02*
X0213800Y0083158D01*
X0209513Y0083158D02*
X0182604Y0083158D01*
X0175396Y0083158D02*
X0157404Y0083158D01*
X0157183Y0082937D02*
X0158863Y0084617D01*
X0159772Y0086812D01*
X0159772Y0089188D01*
X0158863Y0091383D01*
X0157183Y0093063D01*
X0154988Y0093972D01*
X0152612Y0093972D01*
X0150417Y0093063D01*
X0148737Y0091383D01*
X0147828Y0089188D01*
X0147828Y0086812D01*
X0148737Y0084617D01*
X0150417Y0082937D01*
X0152612Y0082028D01*
X0154988Y0082028D01*
X0157183Y0082937D01*
X0159252Y0085557D02*
X0173548Y0085557D01*
X0173028Y0087955D02*
X0159772Y0087955D01*
X0159289Y0090354D02*
X0173511Y0090354D01*
X0175307Y0092752D02*
X0157493Y0092752D01*
X0150107Y0092752D02*
X0121693Y0092752D01*
X0121483Y0092963D02*
X0119288Y0093872D01*
X0116912Y0093872D01*
X0114717Y0092963D01*
X0113037Y0091283D01*
X0112128Y0089088D01*
X0112128Y0086712D01*
X0113037Y0084517D01*
X0114717Y0082837D01*
X0116912Y0081928D01*
X0119288Y0081928D01*
X0121483Y0082837D01*
X0123163Y0084517D01*
X0124072Y0086712D01*
X0124072Y0089088D01*
X0123163Y0091283D01*
X0121483Y0092963D01*
X0123547Y0090354D02*
X0148311Y0090354D01*
X0147828Y0087955D02*
X0124072Y0087955D01*
X0123593Y0085557D02*
X0148348Y0085557D01*
X0150196Y0083158D02*
X0121804Y0083158D01*
X0114396Y0083158D02*
X0096604Y0083158D01*
X0096283Y0082837D02*
X0097963Y0084517D01*
X0098872Y0086712D01*
X0098872Y0089088D01*
X0097963Y0091283D01*
X0096283Y0092963D01*
X0094088Y0093872D01*
X0091712Y0093872D01*
X0089517Y0092963D01*
X0087837Y0091283D01*
X0086928Y0089088D01*
X0086928Y0086712D01*
X0087837Y0084517D01*
X0089517Y0082837D01*
X0091712Y0081928D01*
X0094088Y0081928D01*
X0096283Y0082837D01*
X0098393Y0085557D02*
X0112607Y0085557D01*
X0112128Y0087955D02*
X0098872Y0087955D01*
X0098347Y0090354D02*
X0112653Y0090354D01*
X0114507Y0092752D02*
X0096493Y0092752D01*
X0089307Y0092752D02*
X0023800Y0092752D01*
X0023800Y0090354D02*
X0087453Y0090354D01*
X0086928Y0087955D02*
X0023800Y0087955D01*
X0023800Y0085557D02*
X0087407Y0085557D01*
X0089196Y0083158D02*
X0023800Y0083158D01*
X0023800Y0080760D02*
X0036736Y0080760D01*
X0037117Y0080884D02*
X0036344Y0080632D01*
X0035619Y0080263D01*
X0034960Y0079785D01*
X0034385Y0079210D01*
X0033907Y0078551D01*
X0033538Y0077827D01*
X0033286Y0077053D01*
X0033159Y0076249D01*
X0033159Y0075843D01*
X0038327Y0075843D01*
X0038327Y0075842D01*
X0033159Y0075842D01*
X0033159Y0075436D01*
X0033286Y0074632D01*
X0033538Y0073858D01*
X0033907Y0073134D01*
X0034385Y0072475D01*
X0034960Y0071900D01*
X0035619Y0071422D01*
X0036344Y0071053D01*
X0037117Y0070801D01*
X0037921Y0070674D01*
X0038327Y0070674D01*
X0038327Y0075842D01*
X0038328Y0075842D01*
X0038328Y0075843D01*
X0038327Y0075843D01*
X0038327Y0081011D01*
X0037921Y0081011D01*
X0037117Y0080884D01*
X0038327Y0080760D02*
X0038328Y0080760D01*
X0038328Y0081011D02*
X0038328Y0075843D01*
X0043496Y0075843D01*
X0043496Y0076249D01*
X0043369Y0077053D01*
X0043117Y0077827D01*
X0042748Y0078551D01*
X0042270Y0079210D01*
X0041695Y0079785D01*
X0041036Y0080263D01*
X0040312Y0080632D01*
X0039538Y0080884D01*
X0038734Y0081011D01*
X0038328Y0081011D01*
X0039919Y0080760D02*
X0059324Y0080760D01*
X0059637Y0081072D02*
X0057901Y0079337D01*
X0056962Y0077070D01*
X0056962Y0074616D01*
X0057901Y0072348D01*
X0059637Y0070613D01*
X0061904Y0069674D01*
X0064358Y0069674D01*
X0066625Y0070613D01*
X0068360Y0072348D01*
X0069299Y0074616D01*
X0069299Y0077070D01*
X0068360Y0079337D01*
X0066625Y0081072D01*
X0064358Y0082011D01*
X0061904Y0082011D01*
X0059637Y0081072D01*
X0057497Y0078361D02*
X0042845Y0078361D01*
X0043496Y0075963D02*
X0056962Y0075963D01*
X0057398Y0073564D02*
X0042967Y0073564D01*
X0043117Y0073858D02*
X0043369Y0074632D01*
X0043496Y0075436D01*
X0043496Y0075842D01*
X0038328Y0075842D01*
X0038328Y0070674D01*
X0038734Y0070674D01*
X0039538Y0070801D01*
X0040312Y0071053D01*
X0041036Y0071422D01*
X0041695Y0071900D01*
X0042270Y0072475D01*
X0042748Y0073134D01*
X0043117Y0073858D01*
X0040534Y0071166D02*
X0059084Y0071166D01*
X0067178Y0071166D02*
X0256853Y0071166D01*
X0257848Y0071578D02*
X0255798Y0070729D01*
X0254229Y0069160D01*
X0253380Y0067110D01*
X0253380Y0064890D01*
X0254229Y0062840D01*
X0255798Y0061271D01*
X0257848Y0060422D01*
X0260067Y0060422D01*
X0262117Y0061271D01*
X0263686Y0062840D01*
X0264535Y0064890D01*
X0264535Y0067110D01*
X0263686Y0069160D01*
X0262117Y0070729D01*
X0260067Y0071578D01*
X0257848Y0071578D01*
X0261062Y0071166D02*
X0276538Y0071166D01*
X0277533Y0071578D02*
X0275483Y0070729D01*
X0273914Y0069160D01*
X0273065Y0067110D01*
X0273065Y0064890D01*
X0273914Y0062840D01*
X0275483Y0061271D01*
X0277533Y0060422D01*
X0279752Y0060422D01*
X0281802Y0061271D01*
X0283371Y0062840D01*
X0284220Y0064890D01*
X0284220Y0067110D01*
X0283371Y0069160D01*
X0281802Y0070729D01*
X0279752Y0071578D01*
X0277533Y0071578D01*
X0280747Y0071166D02*
X0463800Y0071166D01*
X0463800Y0073564D02*
X0068864Y0073564D01*
X0069299Y0075963D02*
X0250805Y0075963D01*
X0254066Y0068767D02*
X0023800Y0068767D01*
X0023800Y0066369D02*
X0253380Y0066369D01*
X0253761Y0063970D02*
X0023800Y0063970D01*
X0023800Y0061572D02*
X0255497Y0061572D01*
X0262418Y0061572D02*
X0275182Y0061572D01*
X0273446Y0063970D02*
X0264154Y0063970D01*
X0264535Y0066369D02*
X0273065Y0066369D01*
X0273751Y0068767D02*
X0263849Y0068767D01*
X0282103Y0061572D02*
X0463800Y0061572D01*
X0463800Y0063970D02*
X0283839Y0063970D01*
X0284220Y0066369D02*
X0463800Y0066369D01*
X0463800Y0068767D02*
X0283534Y0068767D01*
X0305881Y0090354D02*
X0307419Y0090354D01*
X0306959Y0095151D02*
X0306483Y0095151D01*
X0304778Y0097549D02*
X0308722Y0097549D01*
X0378800Y0138324D02*
X0378800Y0138324D01*
X0378800Y0140723D02*
X0378800Y0140723D01*
X0378800Y0141000D02*
X0378800Y0141000D01*
X0378800Y0141000D01*
X0373828Y0141000D01*
X0378800Y0141000D01*
X0374301Y0143121D02*
X0023800Y0143121D01*
X0046800Y0133527D02*
X0046800Y0133527D01*
X0046800Y0131129D02*
X0046800Y0131129D01*
X0038327Y0078361D02*
X0038328Y0078361D01*
X0038327Y0075963D02*
X0038328Y0075963D01*
X0038327Y0073564D02*
X0038328Y0073564D01*
X0038327Y0071166D02*
X0038328Y0071166D01*
X0036122Y0071166D02*
X0023800Y0071166D01*
X0023800Y0073564D02*
X0033688Y0073564D01*
X0033159Y0075963D02*
X0023800Y0075963D01*
X0023800Y0078361D02*
X0033810Y0078361D01*
X0048611Y0060578D02*
X0049336Y0060947D01*
X0050109Y0061199D01*
X0050913Y0061326D01*
X0051320Y0061326D01*
X0051726Y0061326D01*
X0052530Y0061199D01*
X0053304Y0060947D01*
X0054029Y0060578D01*
X0054687Y0060100D01*
X0055262Y0059525D01*
X0055740Y0058866D01*
X0056110Y0058141D01*
X0056361Y0057368D01*
X0056488Y0056564D01*
X0056488Y0056158D01*
X0051320Y0056158D01*
X0051320Y0056158D01*
X0051320Y0061326D01*
X0051320Y0056158D01*
X0051320Y0056157D01*
X0051320Y0050989D01*
X0051726Y0050989D01*
X0052530Y0051116D01*
X0053304Y0051368D01*
X0054029Y0051737D01*
X0054687Y0052215D01*
X0055262Y0052790D01*
X0055740Y0053449D01*
X0056110Y0054173D01*
X0056361Y0054947D01*
X0056488Y0055751D01*
X0056488Y0056157D01*
X0051320Y0056157D01*
X0051320Y0056157D01*
X0051320Y0050989D01*
X0050913Y0050989D01*
X0050109Y0051116D01*
X0049336Y0051368D01*
X0048611Y0051737D01*
X0047953Y0052215D01*
X0047377Y0052790D01*
X0046899Y0053449D01*
X0046530Y0054173D01*
X0046278Y0054947D01*
X0046151Y0055751D01*
X0046151Y0056157D01*
X0051320Y0056157D01*
X0051320Y0056158D01*
X0046151Y0056158D01*
X0046151Y0056564D01*
X0046278Y0057368D01*
X0046530Y0058141D01*
X0046899Y0058866D01*
X0047377Y0059525D01*
X0047953Y0060100D01*
X0048611Y0060578D01*
X0047122Y0059173D02*
X0023800Y0059173D01*
X0023800Y0056775D02*
X0046185Y0056775D01*
X0046464Y0054376D02*
X0023800Y0054376D01*
X0023800Y0051978D02*
X0048280Y0051978D01*
X0051320Y0051978D02*
X0051320Y0051978D01*
X0051320Y0054376D02*
X0051320Y0054376D01*
X0051320Y0056775D02*
X0051320Y0056775D01*
X0051320Y0059173D02*
X0051320Y0059173D01*
X0055517Y0059173D02*
X0463800Y0059173D01*
X0463800Y0056775D02*
X0056455Y0056775D01*
X0056175Y0054376D02*
X0463800Y0054376D01*
X0463800Y0051978D02*
X0054360Y0051978D01*
X0023800Y0049579D02*
X0463800Y0049579D01*
X0463800Y0047181D02*
X0425080Y0047181D01*
X0425033Y0047200D02*
X0422567Y0047200D01*
X0420288Y0046256D01*
X0418544Y0044512D01*
X0417600Y0042233D01*
X0417600Y0039767D01*
X0418544Y0037488D01*
X0420288Y0035744D01*
X0422567Y0034800D01*
X0425033Y0034800D01*
X0427312Y0035744D01*
X0429056Y0037488D01*
X0429371Y0038249D01*
X0429834Y0037612D01*
X0430412Y0037034D01*
X0431075Y0036553D01*
X0431804Y0036181D01*
X0432582Y0035928D01*
X0433391Y0035800D01*
X0433800Y0035800D01*
X0434209Y0035800D01*
X0435018Y0035928D01*
X0435796Y0036181D01*
X0436525Y0036553D01*
X0437188Y0037034D01*
X0437766Y0037612D01*
X0438247Y0038275D01*
X0438619Y0039004D01*
X0438872Y0039782D01*
X0439000Y0040591D01*
X0439000Y0041000D01*
X0439000Y0041409D01*
X0438872Y0042218D01*
X0438619Y0042996D01*
X0438247Y0043725D01*
X0437766Y0044388D01*
X0437188Y0044966D01*
X0436525Y0045447D01*
X0435796Y0045819D01*
X0435018Y0046072D01*
X0434209Y0046200D01*
X0433800Y0046200D01*
X0433800Y0041000D01*
X0433800Y0041000D01*
X0439000Y0041000D01*
X0433800Y0041000D01*
X0433800Y0041000D01*
X0433800Y0046200D01*
X0433391Y0046200D01*
X0432582Y0046072D01*
X0431804Y0045819D01*
X0431075Y0045447D01*
X0430412Y0044966D01*
X0429834Y0044388D01*
X0429371Y0043751D01*
X0429056Y0044512D01*
X0427312Y0046256D01*
X0425033Y0047200D01*
X0422520Y0047181D02*
X0400080Y0047181D01*
X0400033Y0047200D02*
X0397567Y0047200D01*
X0395288Y0046256D01*
X0393800Y0044768D01*
X0392312Y0046256D01*
X0390033Y0047200D01*
X0387567Y0047200D01*
X0385288Y0046256D01*
X0383544Y0044512D01*
X0383229Y0043751D01*
X0382766Y0044388D01*
X0382188Y0044966D01*
X0381525Y0045447D01*
X0380796Y0045819D01*
X0380018Y0046072D01*
X0379209Y0046200D01*
X0378800Y0046200D01*
X0378800Y0041000D01*
X0378800Y0041000D01*
X0378800Y0041000D01*
X0373600Y0041000D01*
X0373600Y0041409D01*
X0373728Y0042218D01*
X0373981Y0042996D01*
X0374353Y0043725D01*
X0374834Y0044388D01*
X0375412Y0044966D01*
X0376075Y0045447D01*
X0376804Y0045819D01*
X0377582Y0046072D01*
X0378391Y0046200D01*
X0378800Y0046200D01*
X0378800Y0041000D01*
X0378800Y0035800D01*
X0379209Y0035800D01*
X0380018Y0035928D01*
X0380796Y0036181D01*
X0381525Y0036553D01*
X0382188Y0037034D01*
X0382766Y0037612D01*
X0383229Y0038249D01*
X0383544Y0037488D01*
X0385288Y0035744D01*
X0387567Y0034800D01*
X0390033Y0034800D01*
X0392312Y0035744D01*
X0393800Y0037232D01*
X0395288Y0035744D01*
X0397567Y0034800D01*
X0400033Y0034800D01*
X0402312Y0035744D01*
X0404056Y0037488D01*
X0405000Y0039767D01*
X0405000Y0042233D01*
X0404056Y0044512D01*
X0402312Y0046256D01*
X0400033Y0047200D01*
X0397520Y0047181D02*
X0390080Y0047181D01*
X0387520Y0047181D02*
X0345080Y0047181D01*
X0345033Y0047200D02*
X0342567Y0047200D01*
X0340288Y0046256D01*
X0338544Y0044512D01*
X0337600Y0042233D01*
X0337600Y0039767D01*
X0338544Y0037488D01*
X0340288Y0035744D01*
X0341049Y0035429D01*
X0340412Y0034966D01*
X0339834Y0034388D01*
X0339353Y0033725D01*
X0338981Y0032996D01*
X0338728Y0032218D01*
X0338600Y0031409D01*
X0338600Y0031000D01*
X0343800Y0031000D01*
X0349000Y0031000D01*
X0349000Y0031409D01*
X0348872Y0032218D01*
X0348619Y0032996D01*
X0348247Y0033725D01*
X0347766Y0034388D01*
X0347188Y0034966D01*
X0346551Y0035429D01*
X0347312Y0035744D01*
X0349056Y0037488D01*
X0350000Y0039767D01*
X0350000Y0042233D01*
X0349056Y0044512D01*
X0347312Y0046256D01*
X0345033Y0047200D01*
X0342520Y0047181D02*
X0230180Y0047181D01*
X0230133Y0047200D02*
X0227667Y0047200D01*
X0225388Y0046256D01*
X0223644Y0044512D01*
X0222700Y0042233D01*
X0222700Y0039767D01*
X0223644Y0037488D01*
X0225388Y0035744D01*
X0226149Y0035429D01*
X0225512Y0034966D01*
X0224934Y0034388D01*
X0224453Y0033725D01*
X0224081Y0032996D01*
X0223828Y0032218D01*
X0223700Y0031409D01*
X0223700Y0031000D01*
X0228900Y0031000D01*
X0234100Y0031000D01*
X0234100Y0031409D01*
X0233972Y0032218D01*
X0233719Y0032996D01*
X0233347Y0033725D01*
X0232866Y0034388D01*
X0232288Y0034966D01*
X0231651Y0035429D01*
X0232412Y0035744D01*
X0234156Y0037488D01*
X0235100Y0039767D01*
X0235100Y0042233D01*
X0234156Y0044512D01*
X0232412Y0046256D01*
X0230133Y0047200D01*
X0227620Y0047181D02*
X0023800Y0047181D01*
X0023800Y0044782D02*
X0223914Y0044782D01*
X0222762Y0042384D02*
X0023800Y0042384D01*
X0023800Y0039985D02*
X0222700Y0039985D01*
X0223603Y0037587D02*
X0023800Y0037587D01*
X0023800Y0035188D02*
X0225818Y0035188D01*
X0224014Y0032790D02*
X0023800Y0032790D01*
X0023800Y0030391D02*
X0028780Y0030391D01*
X0024297Y0027993D02*
X0023800Y0027993D01*
X0038820Y0030391D02*
X0223732Y0030391D01*
X0223700Y0030591D02*
X0223828Y0029782D01*
X0224081Y0029004D01*
X0224453Y0028275D01*
X0224934Y0027612D01*
X0225512Y0027034D01*
X0226149Y0026571D01*
X0225388Y0026256D01*
X0223644Y0024512D01*
X0222700Y0022233D01*
X0222700Y0019767D01*
X0223644Y0017488D01*
X0225388Y0015744D01*
X0227667Y0014800D01*
X0230133Y0014800D01*
X0232412Y0015744D01*
X0234156Y0017488D01*
X0235100Y0019767D01*
X0235100Y0022233D01*
X0234156Y0024512D01*
X0232412Y0026256D01*
X0231651Y0026571D01*
X0232288Y0027034D01*
X0232866Y0027612D01*
X0233347Y0028275D01*
X0233719Y0029004D01*
X0233972Y0029782D01*
X0234100Y0030591D01*
X0234100Y0031000D01*
X0228900Y0031000D01*
X0228900Y0031000D01*
X0228900Y0031000D01*
X0223700Y0031000D01*
X0223700Y0030591D01*
X0224657Y0027993D02*
X0043303Y0027993D01*
X0045702Y0025594D02*
X0224726Y0025594D01*
X0223099Y0023196D02*
X0047197Y0023196D01*
X0048251Y0020797D02*
X0222700Y0020797D01*
X0223267Y0018399D02*
X0048894Y0018399D01*
X0049000Y0016000D02*
X0225132Y0016000D01*
X0232668Y0016000D02*
X0340032Y0016000D01*
X0340288Y0015744D02*
X0342567Y0014800D01*
X0345033Y0014800D01*
X0347312Y0015744D01*
X0349056Y0017488D01*
X0350000Y0019767D01*
X0350000Y0022233D01*
X0349056Y0024512D01*
X0347312Y0026256D01*
X0346551Y0026571D01*
X0347188Y0027034D01*
X0347766Y0027612D01*
X0348247Y0028275D01*
X0348619Y0029004D01*
X0348872Y0029782D01*
X0349000Y0030591D01*
X0349000Y0031000D01*
X0343800Y0031000D01*
X0343800Y0031000D01*
X0343800Y0031000D01*
X0338600Y0031000D01*
X0338600Y0030591D01*
X0338728Y0029782D01*
X0338981Y0029004D01*
X0339353Y0028275D01*
X0339834Y0027612D01*
X0340412Y0027034D01*
X0341049Y0026571D01*
X0340288Y0026256D01*
X0338544Y0024512D01*
X0337600Y0022233D01*
X0337600Y0019767D01*
X0338544Y0017488D01*
X0340288Y0015744D01*
X0338167Y0018399D02*
X0234533Y0018399D01*
X0235100Y0020797D02*
X0337600Y0020797D01*
X0337999Y0023196D02*
X0234701Y0023196D01*
X0233074Y0025594D02*
X0339626Y0025594D01*
X0339557Y0027993D02*
X0233143Y0027993D01*
X0234068Y0030391D02*
X0338632Y0030391D01*
X0338914Y0032790D02*
X0233786Y0032790D01*
X0231982Y0035188D02*
X0340718Y0035188D01*
X0338503Y0037587D02*
X0234197Y0037587D01*
X0235100Y0039985D02*
X0337600Y0039985D01*
X0337662Y0042384D02*
X0235038Y0042384D01*
X0233886Y0044782D02*
X0338814Y0044782D01*
X0348786Y0044782D02*
X0375228Y0044782D01*
X0373782Y0042384D02*
X0349938Y0042384D01*
X0350000Y0039985D02*
X0373696Y0039985D01*
X0373728Y0039782D02*
X0373981Y0039004D01*
X0374353Y0038275D01*
X0374834Y0037612D01*
X0375412Y0037034D01*
X0376075Y0036553D01*
X0376804Y0036181D01*
X0377582Y0035928D01*
X0378391Y0035800D01*
X0378800Y0035800D01*
X0378800Y0041000D01*
X0378800Y0041000D01*
X0373600Y0041000D01*
X0373600Y0040591D01*
X0373728Y0039782D01*
X0374859Y0037587D02*
X0349097Y0037587D01*
X0346882Y0035188D02*
X0386630Y0035188D01*
X0383503Y0037587D02*
X0382741Y0037587D01*
X0378800Y0037587D02*
X0378800Y0037587D01*
X0378800Y0039985D02*
X0378800Y0039985D01*
X0378800Y0042384D02*
X0378800Y0042384D01*
X0378800Y0044782D02*
X0378800Y0044782D01*
X0382372Y0044782D02*
X0383814Y0044782D01*
X0393786Y0044782D02*
X0393814Y0044782D01*
X0403786Y0044782D02*
X0418814Y0044782D01*
X0417662Y0042384D02*
X0404938Y0042384D01*
X0405000Y0039985D02*
X0417600Y0039985D01*
X0418503Y0037587D02*
X0404097Y0037587D01*
X0400970Y0035188D02*
X0421630Y0035188D01*
X0425970Y0035188D02*
X0463800Y0035188D01*
X0463800Y0032790D02*
X0348686Y0032790D01*
X0348968Y0030391D02*
X0453780Y0030391D01*
X0449297Y0027993D02*
X0348043Y0027993D01*
X0347974Y0025594D02*
X0446898Y0025594D01*
X0445403Y0023196D02*
X0349601Y0023196D01*
X0350000Y0020797D02*
X0444349Y0020797D01*
X0443706Y0018399D02*
X0349433Y0018399D01*
X0347568Y0016000D02*
X0443600Y0016000D01*
X0443706Y0013601D02*
X0048894Y0013601D01*
X0048251Y0011203D02*
X0444349Y0011203D01*
X0445403Y0008804D02*
X0047197Y0008804D01*
X0045702Y0006406D02*
X0446898Y0006406D01*
X0433800Y0035800D02*
X0433800Y0041000D01*
X0433800Y0041000D01*
X0433800Y0035800D01*
X0433800Y0037587D02*
X0433800Y0037587D01*
X0433800Y0039985D02*
X0433800Y0039985D01*
X0433800Y0042384D02*
X0433800Y0042384D01*
X0433800Y0044782D02*
X0433800Y0044782D01*
X0437372Y0044782D02*
X0463800Y0044782D01*
X0463800Y0042384D02*
X0438818Y0042384D01*
X0438904Y0039985D02*
X0463800Y0039985D01*
X0463800Y0037587D02*
X0437741Y0037587D01*
X0429859Y0037587D02*
X0429097Y0037587D01*
X0428786Y0044782D02*
X0430228Y0044782D01*
X0396630Y0035188D02*
X0390970Y0035188D01*
X0209784Y0078361D02*
X0068764Y0078361D01*
X0066937Y0080760D02*
X0209000Y0080760D01*
X0292297Y0186294D02*
X0295303Y0186294D01*
X0323800Y0248656D02*
X0323800Y0248656D01*
X0117520Y0224670D02*
X0051961Y0224670D01*
X0051307Y0227069D02*
X0086412Y0227069D01*
X0085535Y0229468D02*
X0050082Y0229468D01*
X0047612Y0231866D02*
X0085922Y0231866D01*
X0085528Y0229900D02*
X0090500Y0229900D01*
X0095472Y0229900D01*
X0095472Y0229509D01*
X0095349Y0228736D01*
X0095107Y0227992D01*
X0094752Y0227294D01*
X0094292Y0226661D01*
X0093739Y0226108D01*
X0093106Y0225648D01*
X0092408Y0225293D01*
X0091664Y0225051D01*
X0090891Y0224928D01*
X0090500Y0224928D01*
X0090500Y0229900D01*
X0090500Y0229900D01*
X0090500Y0229900D01*
X0085528Y0229900D01*
X0090500Y0229468D02*
X0090500Y0229468D01*
X0090500Y0231866D02*
X0090500Y0231866D01*
X0095078Y0231866D02*
X0114851Y0231866D01*
X0114528Y0229468D02*
X0095465Y0229468D01*
X0094588Y0227069D02*
X0115209Y0227069D01*
X0090500Y0227069D02*
X0090500Y0227069D01*
D18*
X0347800Y0245500D03*
M02*
