G75*
%MOIN*%
%OFA0B0*%
%FSLAX25Y25*%
%IPPOS*%
%LPD*%
%AMOC8*
5,1,8,0,0,1.08239X$1,22.5*
%
%ADD10C,0.00000*%
%ADD11C,0.06500*%
%ADD12C,0.05200*%
%ADD13C,0.06000*%
%ADD14R,0.03543X0.01378*%
%ADD15C,0.07874*%
%ADD16OC8,0.07400*%
%ADD17C,0.05543*%
%ADD18OC8,0.05200*%
%ADD19C,0.13100*%
%ADD20R,0.11811X0.03543*%
%ADD21C,0.03200*%
%ADD22C,0.01200*%
%ADD23R,0.03962X0.03962*%
%ADD24C,0.02400*%
%ADD25C,0.01000*%
%ADD26C,0.04000*%
D10*
X0023800Y0016000D02*
X0023803Y0016245D01*
X0023812Y0016491D01*
X0023827Y0016736D01*
X0023848Y0016980D01*
X0023875Y0017224D01*
X0023908Y0017467D01*
X0023947Y0017710D01*
X0023992Y0017951D01*
X0024043Y0018191D01*
X0024100Y0018430D01*
X0024162Y0018667D01*
X0024231Y0018903D01*
X0024305Y0019137D01*
X0024385Y0019369D01*
X0024470Y0019599D01*
X0024561Y0019827D01*
X0024658Y0020052D01*
X0024760Y0020276D01*
X0024868Y0020496D01*
X0024981Y0020714D01*
X0025099Y0020929D01*
X0025223Y0021141D01*
X0025351Y0021350D01*
X0025485Y0021556D01*
X0025624Y0021758D01*
X0025768Y0021957D01*
X0025917Y0022152D01*
X0026070Y0022344D01*
X0026228Y0022532D01*
X0026390Y0022716D01*
X0026558Y0022895D01*
X0026729Y0023071D01*
X0026905Y0023242D01*
X0027084Y0023410D01*
X0027268Y0023572D01*
X0027456Y0023730D01*
X0027648Y0023883D01*
X0027843Y0024032D01*
X0028042Y0024176D01*
X0028244Y0024315D01*
X0028450Y0024449D01*
X0028659Y0024577D01*
X0028871Y0024701D01*
X0029086Y0024819D01*
X0029304Y0024932D01*
X0029524Y0025040D01*
X0029748Y0025142D01*
X0029973Y0025239D01*
X0030201Y0025330D01*
X0030431Y0025415D01*
X0030663Y0025495D01*
X0030897Y0025569D01*
X0031133Y0025638D01*
X0031370Y0025700D01*
X0031609Y0025757D01*
X0031849Y0025808D01*
X0032090Y0025853D01*
X0032333Y0025892D01*
X0032576Y0025925D01*
X0032820Y0025952D01*
X0033064Y0025973D01*
X0033309Y0025988D01*
X0033555Y0025997D01*
X0033800Y0026000D01*
X0034045Y0025997D01*
X0034291Y0025988D01*
X0034536Y0025973D01*
X0034780Y0025952D01*
X0035024Y0025925D01*
X0035267Y0025892D01*
X0035510Y0025853D01*
X0035751Y0025808D01*
X0035991Y0025757D01*
X0036230Y0025700D01*
X0036467Y0025638D01*
X0036703Y0025569D01*
X0036937Y0025495D01*
X0037169Y0025415D01*
X0037399Y0025330D01*
X0037627Y0025239D01*
X0037852Y0025142D01*
X0038076Y0025040D01*
X0038296Y0024932D01*
X0038514Y0024819D01*
X0038729Y0024701D01*
X0038941Y0024577D01*
X0039150Y0024449D01*
X0039356Y0024315D01*
X0039558Y0024176D01*
X0039757Y0024032D01*
X0039952Y0023883D01*
X0040144Y0023730D01*
X0040332Y0023572D01*
X0040516Y0023410D01*
X0040695Y0023242D01*
X0040871Y0023071D01*
X0041042Y0022895D01*
X0041210Y0022716D01*
X0041372Y0022532D01*
X0041530Y0022344D01*
X0041683Y0022152D01*
X0041832Y0021957D01*
X0041976Y0021758D01*
X0042115Y0021556D01*
X0042249Y0021350D01*
X0042377Y0021141D01*
X0042501Y0020929D01*
X0042619Y0020714D01*
X0042732Y0020496D01*
X0042840Y0020276D01*
X0042942Y0020052D01*
X0043039Y0019827D01*
X0043130Y0019599D01*
X0043215Y0019369D01*
X0043295Y0019137D01*
X0043369Y0018903D01*
X0043438Y0018667D01*
X0043500Y0018430D01*
X0043557Y0018191D01*
X0043608Y0017951D01*
X0043653Y0017710D01*
X0043692Y0017467D01*
X0043725Y0017224D01*
X0043752Y0016980D01*
X0043773Y0016736D01*
X0043788Y0016491D01*
X0043797Y0016245D01*
X0043800Y0016000D01*
X0043797Y0015755D01*
X0043788Y0015509D01*
X0043773Y0015264D01*
X0043752Y0015020D01*
X0043725Y0014776D01*
X0043692Y0014533D01*
X0043653Y0014290D01*
X0043608Y0014049D01*
X0043557Y0013809D01*
X0043500Y0013570D01*
X0043438Y0013333D01*
X0043369Y0013097D01*
X0043295Y0012863D01*
X0043215Y0012631D01*
X0043130Y0012401D01*
X0043039Y0012173D01*
X0042942Y0011948D01*
X0042840Y0011724D01*
X0042732Y0011504D01*
X0042619Y0011286D01*
X0042501Y0011071D01*
X0042377Y0010859D01*
X0042249Y0010650D01*
X0042115Y0010444D01*
X0041976Y0010242D01*
X0041832Y0010043D01*
X0041683Y0009848D01*
X0041530Y0009656D01*
X0041372Y0009468D01*
X0041210Y0009284D01*
X0041042Y0009105D01*
X0040871Y0008929D01*
X0040695Y0008758D01*
X0040516Y0008590D01*
X0040332Y0008428D01*
X0040144Y0008270D01*
X0039952Y0008117D01*
X0039757Y0007968D01*
X0039558Y0007824D01*
X0039356Y0007685D01*
X0039150Y0007551D01*
X0038941Y0007423D01*
X0038729Y0007299D01*
X0038514Y0007181D01*
X0038296Y0007068D01*
X0038076Y0006960D01*
X0037852Y0006858D01*
X0037627Y0006761D01*
X0037399Y0006670D01*
X0037169Y0006585D01*
X0036937Y0006505D01*
X0036703Y0006431D01*
X0036467Y0006362D01*
X0036230Y0006300D01*
X0035991Y0006243D01*
X0035751Y0006192D01*
X0035510Y0006147D01*
X0035267Y0006108D01*
X0035024Y0006075D01*
X0034780Y0006048D01*
X0034536Y0006027D01*
X0034291Y0006012D01*
X0034045Y0006003D01*
X0033800Y0006000D01*
X0033555Y0006003D01*
X0033309Y0006012D01*
X0033064Y0006027D01*
X0032820Y0006048D01*
X0032576Y0006075D01*
X0032333Y0006108D01*
X0032090Y0006147D01*
X0031849Y0006192D01*
X0031609Y0006243D01*
X0031370Y0006300D01*
X0031133Y0006362D01*
X0030897Y0006431D01*
X0030663Y0006505D01*
X0030431Y0006585D01*
X0030201Y0006670D01*
X0029973Y0006761D01*
X0029748Y0006858D01*
X0029524Y0006960D01*
X0029304Y0007068D01*
X0029086Y0007181D01*
X0028871Y0007299D01*
X0028659Y0007423D01*
X0028450Y0007551D01*
X0028244Y0007685D01*
X0028042Y0007824D01*
X0027843Y0007968D01*
X0027648Y0008117D01*
X0027456Y0008270D01*
X0027268Y0008428D01*
X0027084Y0008590D01*
X0026905Y0008758D01*
X0026729Y0008929D01*
X0026558Y0009105D01*
X0026390Y0009284D01*
X0026228Y0009468D01*
X0026070Y0009656D01*
X0025917Y0009848D01*
X0025768Y0010043D01*
X0025624Y0010242D01*
X0025485Y0010444D01*
X0025351Y0010650D01*
X0025223Y0010859D01*
X0025099Y0011071D01*
X0024981Y0011286D01*
X0024868Y0011504D01*
X0024760Y0011724D01*
X0024658Y0011948D01*
X0024561Y0012173D01*
X0024470Y0012401D01*
X0024385Y0012631D01*
X0024305Y0012863D01*
X0024231Y0013097D01*
X0024162Y0013333D01*
X0024100Y0013570D01*
X0024043Y0013809D01*
X0023992Y0014049D01*
X0023947Y0014290D01*
X0023908Y0014533D01*
X0023875Y0014776D01*
X0023848Y0015020D01*
X0023827Y0015264D01*
X0023812Y0015509D01*
X0023803Y0015755D01*
X0023800Y0016000D01*
X0023800Y0272000D02*
X0023803Y0272245D01*
X0023812Y0272491D01*
X0023827Y0272736D01*
X0023848Y0272980D01*
X0023875Y0273224D01*
X0023908Y0273467D01*
X0023947Y0273710D01*
X0023992Y0273951D01*
X0024043Y0274191D01*
X0024100Y0274430D01*
X0024162Y0274667D01*
X0024231Y0274903D01*
X0024305Y0275137D01*
X0024385Y0275369D01*
X0024470Y0275599D01*
X0024561Y0275827D01*
X0024658Y0276052D01*
X0024760Y0276276D01*
X0024868Y0276496D01*
X0024981Y0276714D01*
X0025099Y0276929D01*
X0025223Y0277141D01*
X0025351Y0277350D01*
X0025485Y0277556D01*
X0025624Y0277758D01*
X0025768Y0277957D01*
X0025917Y0278152D01*
X0026070Y0278344D01*
X0026228Y0278532D01*
X0026390Y0278716D01*
X0026558Y0278895D01*
X0026729Y0279071D01*
X0026905Y0279242D01*
X0027084Y0279410D01*
X0027268Y0279572D01*
X0027456Y0279730D01*
X0027648Y0279883D01*
X0027843Y0280032D01*
X0028042Y0280176D01*
X0028244Y0280315D01*
X0028450Y0280449D01*
X0028659Y0280577D01*
X0028871Y0280701D01*
X0029086Y0280819D01*
X0029304Y0280932D01*
X0029524Y0281040D01*
X0029748Y0281142D01*
X0029973Y0281239D01*
X0030201Y0281330D01*
X0030431Y0281415D01*
X0030663Y0281495D01*
X0030897Y0281569D01*
X0031133Y0281638D01*
X0031370Y0281700D01*
X0031609Y0281757D01*
X0031849Y0281808D01*
X0032090Y0281853D01*
X0032333Y0281892D01*
X0032576Y0281925D01*
X0032820Y0281952D01*
X0033064Y0281973D01*
X0033309Y0281988D01*
X0033555Y0281997D01*
X0033800Y0282000D01*
X0034045Y0281997D01*
X0034291Y0281988D01*
X0034536Y0281973D01*
X0034780Y0281952D01*
X0035024Y0281925D01*
X0035267Y0281892D01*
X0035510Y0281853D01*
X0035751Y0281808D01*
X0035991Y0281757D01*
X0036230Y0281700D01*
X0036467Y0281638D01*
X0036703Y0281569D01*
X0036937Y0281495D01*
X0037169Y0281415D01*
X0037399Y0281330D01*
X0037627Y0281239D01*
X0037852Y0281142D01*
X0038076Y0281040D01*
X0038296Y0280932D01*
X0038514Y0280819D01*
X0038729Y0280701D01*
X0038941Y0280577D01*
X0039150Y0280449D01*
X0039356Y0280315D01*
X0039558Y0280176D01*
X0039757Y0280032D01*
X0039952Y0279883D01*
X0040144Y0279730D01*
X0040332Y0279572D01*
X0040516Y0279410D01*
X0040695Y0279242D01*
X0040871Y0279071D01*
X0041042Y0278895D01*
X0041210Y0278716D01*
X0041372Y0278532D01*
X0041530Y0278344D01*
X0041683Y0278152D01*
X0041832Y0277957D01*
X0041976Y0277758D01*
X0042115Y0277556D01*
X0042249Y0277350D01*
X0042377Y0277141D01*
X0042501Y0276929D01*
X0042619Y0276714D01*
X0042732Y0276496D01*
X0042840Y0276276D01*
X0042942Y0276052D01*
X0043039Y0275827D01*
X0043130Y0275599D01*
X0043215Y0275369D01*
X0043295Y0275137D01*
X0043369Y0274903D01*
X0043438Y0274667D01*
X0043500Y0274430D01*
X0043557Y0274191D01*
X0043608Y0273951D01*
X0043653Y0273710D01*
X0043692Y0273467D01*
X0043725Y0273224D01*
X0043752Y0272980D01*
X0043773Y0272736D01*
X0043788Y0272491D01*
X0043797Y0272245D01*
X0043800Y0272000D01*
X0043797Y0271755D01*
X0043788Y0271509D01*
X0043773Y0271264D01*
X0043752Y0271020D01*
X0043725Y0270776D01*
X0043692Y0270533D01*
X0043653Y0270290D01*
X0043608Y0270049D01*
X0043557Y0269809D01*
X0043500Y0269570D01*
X0043438Y0269333D01*
X0043369Y0269097D01*
X0043295Y0268863D01*
X0043215Y0268631D01*
X0043130Y0268401D01*
X0043039Y0268173D01*
X0042942Y0267948D01*
X0042840Y0267724D01*
X0042732Y0267504D01*
X0042619Y0267286D01*
X0042501Y0267071D01*
X0042377Y0266859D01*
X0042249Y0266650D01*
X0042115Y0266444D01*
X0041976Y0266242D01*
X0041832Y0266043D01*
X0041683Y0265848D01*
X0041530Y0265656D01*
X0041372Y0265468D01*
X0041210Y0265284D01*
X0041042Y0265105D01*
X0040871Y0264929D01*
X0040695Y0264758D01*
X0040516Y0264590D01*
X0040332Y0264428D01*
X0040144Y0264270D01*
X0039952Y0264117D01*
X0039757Y0263968D01*
X0039558Y0263824D01*
X0039356Y0263685D01*
X0039150Y0263551D01*
X0038941Y0263423D01*
X0038729Y0263299D01*
X0038514Y0263181D01*
X0038296Y0263068D01*
X0038076Y0262960D01*
X0037852Y0262858D01*
X0037627Y0262761D01*
X0037399Y0262670D01*
X0037169Y0262585D01*
X0036937Y0262505D01*
X0036703Y0262431D01*
X0036467Y0262362D01*
X0036230Y0262300D01*
X0035991Y0262243D01*
X0035751Y0262192D01*
X0035510Y0262147D01*
X0035267Y0262108D01*
X0035024Y0262075D01*
X0034780Y0262048D01*
X0034536Y0262027D01*
X0034291Y0262012D01*
X0034045Y0262003D01*
X0033800Y0262000D01*
X0033555Y0262003D01*
X0033309Y0262012D01*
X0033064Y0262027D01*
X0032820Y0262048D01*
X0032576Y0262075D01*
X0032333Y0262108D01*
X0032090Y0262147D01*
X0031849Y0262192D01*
X0031609Y0262243D01*
X0031370Y0262300D01*
X0031133Y0262362D01*
X0030897Y0262431D01*
X0030663Y0262505D01*
X0030431Y0262585D01*
X0030201Y0262670D01*
X0029973Y0262761D01*
X0029748Y0262858D01*
X0029524Y0262960D01*
X0029304Y0263068D01*
X0029086Y0263181D01*
X0028871Y0263299D01*
X0028659Y0263423D01*
X0028450Y0263551D01*
X0028244Y0263685D01*
X0028042Y0263824D01*
X0027843Y0263968D01*
X0027648Y0264117D01*
X0027456Y0264270D01*
X0027268Y0264428D01*
X0027084Y0264590D01*
X0026905Y0264758D01*
X0026729Y0264929D01*
X0026558Y0265105D01*
X0026390Y0265284D01*
X0026228Y0265468D01*
X0026070Y0265656D01*
X0025917Y0265848D01*
X0025768Y0266043D01*
X0025624Y0266242D01*
X0025485Y0266444D01*
X0025351Y0266650D01*
X0025223Y0266859D01*
X0025099Y0267071D01*
X0024981Y0267286D01*
X0024868Y0267504D01*
X0024760Y0267724D01*
X0024658Y0267948D01*
X0024561Y0268173D01*
X0024470Y0268401D01*
X0024385Y0268631D01*
X0024305Y0268863D01*
X0024231Y0269097D01*
X0024162Y0269333D01*
X0024100Y0269570D01*
X0024043Y0269809D01*
X0023992Y0270049D01*
X0023947Y0270290D01*
X0023908Y0270533D01*
X0023875Y0270776D01*
X0023848Y0271020D01*
X0023827Y0271264D01*
X0023812Y0271509D01*
X0023803Y0271755D01*
X0023800Y0272000D01*
X0448800Y0272000D02*
X0448803Y0272245D01*
X0448812Y0272491D01*
X0448827Y0272736D01*
X0448848Y0272980D01*
X0448875Y0273224D01*
X0448908Y0273467D01*
X0448947Y0273710D01*
X0448992Y0273951D01*
X0449043Y0274191D01*
X0449100Y0274430D01*
X0449162Y0274667D01*
X0449231Y0274903D01*
X0449305Y0275137D01*
X0449385Y0275369D01*
X0449470Y0275599D01*
X0449561Y0275827D01*
X0449658Y0276052D01*
X0449760Y0276276D01*
X0449868Y0276496D01*
X0449981Y0276714D01*
X0450099Y0276929D01*
X0450223Y0277141D01*
X0450351Y0277350D01*
X0450485Y0277556D01*
X0450624Y0277758D01*
X0450768Y0277957D01*
X0450917Y0278152D01*
X0451070Y0278344D01*
X0451228Y0278532D01*
X0451390Y0278716D01*
X0451558Y0278895D01*
X0451729Y0279071D01*
X0451905Y0279242D01*
X0452084Y0279410D01*
X0452268Y0279572D01*
X0452456Y0279730D01*
X0452648Y0279883D01*
X0452843Y0280032D01*
X0453042Y0280176D01*
X0453244Y0280315D01*
X0453450Y0280449D01*
X0453659Y0280577D01*
X0453871Y0280701D01*
X0454086Y0280819D01*
X0454304Y0280932D01*
X0454524Y0281040D01*
X0454748Y0281142D01*
X0454973Y0281239D01*
X0455201Y0281330D01*
X0455431Y0281415D01*
X0455663Y0281495D01*
X0455897Y0281569D01*
X0456133Y0281638D01*
X0456370Y0281700D01*
X0456609Y0281757D01*
X0456849Y0281808D01*
X0457090Y0281853D01*
X0457333Y0281892D01*
X0457576Y0281925D01*
X0457820Y0281952D01*
X0458064Y0281973D01*
X0458309Y0281988D01*
X0458555Y0281997D01*
X0458800Y0282000D01*
X0459045Y0281997D01*
X0459291Y0281988D01*
X0459536Y0281973D01*
X0459780Y0281952D01*
X0460024Y0281925D01*
X0460267Y0281892D01*
X0460510Y0281853D01*
X0460751Y0281808D01*
X0460991Y0281757D01*
X0461230Y0281700D01*
X0461467Y0281638D01*
X0461703Y0281569D01*
X0461937Y0281495D01*
X0462169Y0281415D01*
X0462399Y0281330D01*
X0462627Y0281239D01*
X0462852Y0281142D01*
X0463076Y0281040D01*
X0463296Y0280932D01*
X0463514Y0280819D01*
X0463729Y0280701D01*
X0463941Y0280577D01*
X0464150Y0280449D01*
X0464356Y0280315D01*
X0464558Y0280176D01*
X0464757Y0280032D01*
X0464952Y0279883D01*
X0465144Y0279730D01*
X0465332Y0279572D01*
X0465516Y0279410D01*
X0465695Y0279242D01*
X0465871Y0279071D01*
X0466042Y0278895D01*
X0466210Y0278716D01*
X0466372Y0278532D01*
X0466530Y0278344D01*
X0466683Y0278152D01*
X0466832Y0277957D01*
X0466976Y0277758D01*
X0467115Y0277556D01*
X0467249Y0277350D01*
X0467377Y0277141D01*
X0467501Y0276929D01*
X0467619Y0276714D01*
X0467732Y0276496D01*
X0467840Y0276276D01*
X0467942Y0276052D01*
X0468039Y0275827D01*
X0468130Y0275599D01*
X0468215Y0275369D01*
X0468295Y0275137D01*
X0468369Y0274903D01*
X0468438Y0274667D01*
X0468500Y0274430D01*
X0468557Y0274191D01*
X0468608Y0273951D01*
X0468653Y0273710D01*
X0468692Y0273467D01*
X0468725Y0273224D01*
X0468752Y0272980D01*
X0468773Y0272736D01*
X0468788Y0272491D01*
X0468797Y0272245D01*
X0468800Y0272000D01*
X0468797Y0271755D01*
X0468788Y0271509D01*
X0468773Y0271264D01*
X0468752Y0271020D01*
X0468725Y0270776D01*
X0468692Y0270533D01*
X0468653Y0270290D01*
X0468608Y0270049D01*
X0468557Y0269809D01*
X0468500Y0269570D01*
X0468438Y0269333D01*
X0468369Y0269097D01*
X0468295Y0268863D01*
X0468215Y0268631D01*
X0468130Y0268401D01*
X0468039Y0268173D01*
X0467942Y0267948D01*
X0467840Y0267724D01*
X0467732Y0267504D01*
X0467619Y0267286D01*
X0467501Y0267071D01*
X0467377Y0266859D01*
X0467249Y0266650D01*
X0467115Y0266444D01*
X0466976Y0266242D01*
X0466832Y0266043D01*
X0466683Y0265848D01*
X0466530Y0265656D01*
X0466372Y0265468D01*
X0466210Y0265284D01*
X0466042Y0265105D01*
X0465871Y0264929D01*
X0465695Y0264758D01*
X0465516Y0264590D01*
X0465332Y0264428D01*
X0465144Y0264270D01*
X0464952Y0264117D01*
X0464757Y0263968D01*
X0464558Y0263824D01*
X0464356Y0263685D01*
X0464150Y0263551D01*
X0463941Y0263423D01*
X0463729Y0263299D01*
X0463514Y0263181D01*
X0463296Y0263068D01*
X0463076Y0262960D01*
X0462852Y0262858D01*
X0462627Y0262761D01*
X0462399Y0262670D01*
X0462169Y0262585D01*
X0461937Y0262505D01*
X0461703Y0262431D01*
X0461467Y0262362D01*
X0461230Y0262300D01*
X0460991Y0262243D01*
X0460751Y0262192D01*
X0460510Y0262147D01*
X0460267Y0262108D01*
X0460024Y0262075D01*
X0459780Y0262048D01*
X0459536Y0262027D01*
X0459291Y0262012D01*
X0459045Y0262003D01*
X0458800Y0262000D01*
X0458555Y0262003D01*
X0458309Y0262012D01*
X0458064Y0262027D01*
X0457820Y0262048D01*
X0457576Y0262075D01*
X0457333Y0262108D01*
X0457090Y0262147D01*
X0456849Y0262192D01*
X0456609Y0262243D01*
X0456370Y0262300D01*
X0456133Y0262362D01*
X0455897Y0262431D01*
X0455663Y0262505D01*
X0455431Y0262585D01*
X0455201Y0262670D01*
X0454973Y0262761D01*
X0454748Y0262858D01*
X0454524Y0262960D01*
X0454304Y0263068D01*
X0454086Y0263181D01*
X0453871Y0263299D01*
X0453659Y0263423D01*
X0453450Y0263551D01*
X0453244Y0263685D01*
X0453042Y0263824D01*
X0452843Y0263968D01*
X0452648Y0264117D01*
X0452456Y0264270D01*
X0452268Y0264428D01*
X0452084Y0264590D01*
X0451905Y0264758D01*
X0451729Y0264929D01*
X0451558Y0265105D01*
X0451390Y0265284D01*
X0451228Y0265468D01*
X0451070Y0265656D01*
X0450917Y0265848D01*
X0450768Y0266043D01*
X0450624Y0266242D01*
X0450485Y0266444D01*
X0450351Y0266650D01*
X0450223Y0266859D01*
X0450099Y0267071D01*
X0449981Y0267286D01*
X0449868Y0267504D01*
X0449760Y0267724D01*
X0449658Y0267948D01*
X0449561Y0268173D01*
X0449470Y0268401D01*
X0449385Y0268631D01*
X0449305Y0268863D01*
X0449231Y0269097D01*
X0449162Y0269333D01*
X0449100Y0269570D01*
X0449043Y0269809D01*
X0448992Y0270049D01*
X0448947Y0270290D01*
X0448908Y0270533D01*
X0448875Y0270776D01*
X0448848Y0271020D01*
X0448827Y0271264D01*
X0448812Y0271509D01*
X0448803Y0271755D01*
X0448800Y0272000D01*
X0448800Y0016000D02*
X0448803Y0016245D01*
X0448812Y0016491D01*
X0448827Y0016736D01*
X0448848Y0016980D01*
X0448875Y0017224D01*
X0448908Y0017467D01*
X0448947Y0017710D01*
X0448992Y0017951D01*
X0449043Y0018191D01*
X0449100Y0018430D01*
X0449162Y0018667D01*
X0449231Y0018903D01*
X0449305Y0019137D01*
X0449385Y0019369D01*
X0449470Y0019599D01*
X0449561Y0019827D01*
X0449658Y0020052D01*
X0449760Y0020276D01*
X0449868Y0020496D01*
X0449981Y0020714D01*
X0450099Y0020929D01*
X0450223Y0021141D01*
X0450351Y0021350D01*
X0450485Y0021556D01*
X0450624Y0021758D01*
X0450768Y0021957D01*
X0450917Y0022152D01*
X0451070Y0022344D01*
X0451228Y0022532D01*
X0451390Y0022716D01*
X0451558Y0022895D01*
X0451729Y0023071D01*
X0451905Y0023242D01*
X0452084Y0023410D01*
X0452268Y0023572D01*
X0452456Y0023730D01*
X0452648Y0023883D01*
X0452843Y0024032D01*
X0453042Y0024176D01*
X0453244Y0024315D01*
X0453450Y0024449D01*
X0453659Y0024577D01*
X0453871Y0024701D01*
X0454086Y0024819D01*
X0454304Y0024932D01*
X0454524Y0025040D01*
X0454748Y0025142D01*
X0454973Y0025239D01*
X0455201Y0025330D01*
X0455431Y0025415D01*
X0455663Y0025495D01*
X0455897Y0025569D01*
X0456133Y0025638D01*
X0456370Y0025700D01*
X0456609Y0025757D01*
X0456849Y0025808D01*
X0457090Y0025853D01*
X0457333Y0025892D01*
X0457576Y0025925D01*
X0457820Y0025952D01*
X0458064Y0025973D01*
X0458309Y0025988D01*
X0458555Y0025997D01*
X0458800Y0026000D01*
X0459045Y0025997D01*
X0459291Y0025988D01*
X0459536Y0025973D01*
X0459780Y0025952D01*
X0460024Y0025925D01*
X0460267Y0025892D01*
X0460510Y0025853D01*
X0460751Y0025808D01*
X0460991Y0025757D01*
X0461230Y0025700D01*
X0461467Y0025638D01*
X0461703Y0025569D01*
X0461937Y0025495D01*
X0462169Y0025415D01*
X0462399Y0025330D01*
X0462627Y0025239D01*
X0462852Y0025142D01*
X0463076Y0025040D01*
X0463296Y0024932D01*
X0463514Y0024819D01*
X0463729Y0024701D01*
X0463941Y0024577D01*
X0464150Y0024449D01*
X0464356Y0024315D01*
X0464558Y0024176D01*
X0464757Y0024032D01*
X0464952Y0023883D01*
X0465144Y0023730D01*
X0465332Y0023572D01*
X0465516Y0023410D01*
X0465695Y0023242D01*
X0465871Y0023071D01*
X0466042Y0022895D01*
X0466210Y0022716D01*
X0466372Y0022532D01*
X0466530Y0022344D01*
X0466683Y0022152D01*
X0466832Y0021957D01*
X0466976Y0021758D01*
X0467115Y0021556D01*
X0467249Y0021350D01*
X0467377Y0021141D01*
X0467501Y0020929D01*
X0467619Y0020714D01*
X0467732Y0020496D01*
X0467840Y0020276D01*
X0467942Y0020052D01*
X0468039Y0019827D01*
X0468130Y0019599D01*
X0468215Y0019369D01*
X0468295Y0019137D01*
X0468369Y0018903D01*
X0468438Y0018667D01*
X0468500Y0018430D01*
X0468557Y0018191D01*
X0468608Y0017951D01*
X0468653Y0017710D01*
X0468692Y0017467D01*
X0468725Y0017224D01*
X0468752Y0016980D01*
X0468773Y0016736D01*
X0468788Y0016491D01*
X0468797Y0016245D01*
X0468800Y0016000D01*
X0468797Y0015755D01*
X0468788Y0015509D01*
X0468773Y0015264D01*
X0468752Y0015020D01*
X0468725Y0014776D01*
X0468692Y0014533D01*
X0468653Y0014290D01*
X0468608Y0014049D01*
X0468557Y0013809D01*
X0468500Y0013570D01*
X0468438Y0013333D01*
X0468369Y0013097D01*
X0468295Y0012863D01*
X0468215Y0012631D01*
X0468130Y0012401D01*
X0468039Y0012173D01*
X0467942Y0011948D01*
X0467840Y0011724D01*
X0467732Y0011504D01*
X0467619Y0011286D01*
X0467501Y0011071D01*
X0467377Y0010859D01*
X0467249Y0010650D01*
X0467115Y0010444D01*
X0466976Y0010242D01*
X0466832Y0010043D01*
X0466683Y0009848D01*
X0466530Y0009656D01*
X0466372Y0009468D01*
X0466210Y0009284D01*
X0466042Y0009105D01*
X0465871Y0008929D01*
X0465695Y0008758D01*
X0465516Y0008590D01*
X0465332Y0008428D01*
X0465144Y0008270D01*
X0464952Y0008117D01*
X0464757Y0007968D01*
X0464558Y0007824D01*
X0464356Y0007685D01*
X0464150Y0007551D01*
X0463941Y0007423D01*
X0463729Y0007299D01*
X0463514Y0007181D01*
X0463296Y0007068D01*
X0463076Y0006960D01*
X0462852Y0006858D01*
X0462627Y0006761D01*
X0462399Y0006670D01*
X0462169Y0006585D01*
X0461937Y0006505D01*
X0461703Y0006431D01*
X0461467Y0006362D01*
X0461230Y0006300D01*
X0460991Y0006243D01*
X0460751Y0006192D01*
X0460510Y0006147D01*
X0460267Y0006108D01*
X0460024Y0006075D01*
X0459780Y0006048D01*
X0459536Y0006027D01*
X0459291Y0006012D01*
X0459045Y0006003D01*
X0458800Y0006000D01*
X0458555Y0006003D01*
X0458309Y0006012D01*
X0458064Y0006027D01*
X0457820Y0006048D01*
X0457576Y0006075D01*
X0457333Y0006108D01*
X0457090Y0006147D01*
X0456849Y0006192D01*
X0456609Y0006243D01*
X0456370Y0006300D01*
X0456133Y0006362D01*
X0455897Y0006431D01*
X0455663Y0006505D01*
X0455431Y0006585D01*
X0455201Y0006670D01*
X0454973Y0006761D01*
X0454748Y0006858D01*
X0454524Y0006960D01*
X0454304Y0007068D01*
X0454086Y0007181D01*
X0453871Y0007299D01*
X0453659Y0007423D01*
X0453450Y0007551D01*
X0453244Y0007685D01*
X0453042Y0007824D01*
X0452843Y0007968D01*
X0452648Y0008117D01*
X0452456Y0008270D01*
X0452268Y0008428D01*
X0452084Y0008590D01*
X0451905Y0008758D01*
X0451729Y0008929D01*
X0451558Y0009105D01*
X0451390Y0009284D01*
X0451228Y0009468D01*
X0451070Y0009656D01*
X0450917Y0009848D01*
X0450768Y0010043D01*
X0450624Y0010242D01*
X0450485Y0010444D01*
X0450351Y0010650D01*
X0450223Y0010859D01*
X0450099Y0011071D01*
X0449981Y0011286D01*
X0449868Y0011504D01*
X0449760Y0011724D01*
X0449658Y0011948D01*
X0449561Y0012173D01*
X0449470Y0012401D01*
X0449385Y0012631D01*
X0449305Y0012863D01*
X0449231Y0013097D01*
X0449162Y0013333D01*
X0449100Y0013570D01*
X0449043Y0013809D01*
X0448992Y0014049D01*
X0448947Y0014290D01*
X0448908Y0014533D01*
X0448875Y0014776D01*
X0448848Y0015020D01*
X0448827Y0015264D01*
X0448812Y0015509D01*
X0448803Y0015755D01*
X0448800Y0016000D01*
D11*
X0278643Y0066000D03*
X0258957Y0066000D03*
X0243643Y0096000D03*
X0223957Y0096000D03*
X0258957Y0121000D03*
X0278643Y0121000D03*
X0243443Y0151000D03*
X0223757Y0151000D03*
D12*
X0228800Y0188400D02*
X0228800Y0193600D01*
X0238800Y0193600D02*
X0238800Y0188400D01*
X0248800Y0188400D02*
X0248800Y0193600D01*
X0258800Y0193600D02*
X0258800Y0188400D01*
X0268800Y0188400D02*
X0268800Y0193600D01*
X0278800Y0193600D02*
X0278800Y0188400D01*
X0288800Y0188400D02*
X0288800Y0193600D01*
X0298800Y0193600D02*
X0298800Y0188400D01*
X0298800Y0218400D02*
X0298800Y0223600D01*
X0288800Y0223600D02*
X0288800Y0218400D01*
X0278800Y0218400D02*
X0278800Y0223600D01*
X0268800Y0223600D02*
X0268800Y0218400D01*
X0258800Y0218400D02*
X0258800Y0223600D01*
X0248800Y0223600D02*
X0248800Y0218400D01*
X0238800Y0218400D02*
X0238800Y0223600D01*
X0228800Y0223600D02*
X0228800Y0218400D01*
X0183400Y0241800D02*
X0178200Y0241800D01*
X0153400Y0241800D02*
X0148200Y0241800D01*
X0123900Y0243500D02*
X0118700Y0243500D01*
X0093900Y0243500D02*
X0088700Y0243500D01*
X0386200Y0216000D02*
X0391400Y0216000D01*
X0391400Y0206000D02*
X0386200Y0206000D01*
X0386200Y0196000D02*
X0391400Y0196000D01*
D13*
X0433800Y0193000D02*
X0433800Y0199000D01*
X0443800Y0199000D02*
X0443800Y0193000D01*
X0346800Y0191000D02*
X0340800Y0191000D01*
X0340800Y0201000D02*
X0346800Y0201000D01*
X0346800Y0211000D02*
X0340800Y0211000D01*
X0151200Y0259400D02*
X0151200Y0265400D01*
X0141200Y0265400D02*
X0141200Y0259400D01*
X0080700Y0258500D02*
X0080700Y0264500D01*
X0070700Y0264500D02*
X0070700Y0258500D01*
X0049800Y0131000D02*
X0043800Y0131000D01*
X0043800Y0121000D02*
X0049800Y0121000D01*
X0225900Y0041000D02*
X0231900Y0041000D01*
X0231900Y0031000D02*
X0225900Y0031000D01*
X0225900Y0021000D02*
X0231900Y0021000D01*
X0340800Y0021000D02*
X0346800Y0021000D01*
X0346800Y0031000D02*
X0340800Y0031000D01*
X0340800Y0041000D02*
X0346800Y0041000D01*
X0378800Y0038000D02*
X0378800Y0044000D01*
X0388800Y0044000D02*
X0388800Y0038000D01*
X0398800Y0038000D02*
X0398800Y0044000D01*
X0423800Y0044000D02*
X0423800Y0038000D01*
X0433800Y0038000D02*
X0433800Y0044000D01*
D14*
X0290316Y0088323D03*
X0290316Y0090882D03*
X0290316Y0093441D03*
X0290316Y0096000D03*
X0290316Y0098559D03*
X0290316Y0101118D03*
X0290316Y0103677D03*
X0267284Y0103677D03*
X0267284Y0101118D03*
X0267284Y0098559D03*
X0267284Y0096000D03*
X0267284Y0093441D03*
X0267284Y0090882D03*
X0267284Y0088323D03*
X0267284Y0138323D03*
X0267284Y0140882D03*
X0267284Y0143441D03*
X0267284Y0146000D03*
X0267284Y0148559D03*
X0267284Y0151118D03*
X0267284Y0153677D03*
X0290316Y0153677D03*
X0290316Y0151118D03*
X0290316Y0148559D03*
X0290316Y0146000D03*
X0290316Y0143441D03*
X0290316Y0140882D03*
X0290316Y0138323D03*
D15*
X0063131Y0079780D02*
X0063131Y0071906D01*
X0055257Y0056157D02*
X0047383Y0056157D01*
X0038328Y0071906D02*
X0038328Y0079780D01*
D16*
X0223800Y0251000D03*
X0233800Y0251000D03*
X0243800Y0251000D03*
X0253800Y0251000D03*
X0263800Y0251000D03*
X0273800Y0251000D03*
X0283800Y0251000D03*
X0293800Y0251000D03*
X0303800Y0251000D03*
X0313800Y0251000D03*
X0323800Y0251000D03*
X0333800Y0251000D03*
X0343800Y0251000D03*
X0353800Y0251000D03*
X0363800Y0251000D03*
X0373800Y0251000D03*
X0383800Y0251000D03*
X0393800Y0251000D03*
X0403800Y0251000D03*
X0413800Y0251000D03*
X0413800Y0261000D03*
X0403800Y0261000D03*
X0393800Y0261000D03*
X0383800Y0261000D03*
X0373800Y0261000D03*
X0363800Y0261000D03*
X0353800Y0261000D03*
X0343800Y0261000D03*
X0333800Y0261000D03*
X0323800Y0261000D03*
X0313800Y0261000D03*
X0303800Y0261000D03*
X0293800Y0261000D03*
X0283800Y0261000D03*
X0273800Y0261000D03*
X0263800Y0261000D03*
X0253800Y0261000D03*
X0243800Y0261000D03*
X0233800Y0261000D03*
X0223800Y0261000D03*
D17*
X0186943Y0230000D02*
X0181400Y0230000D01*
X0151400Y0230000D02*
X0145857Y0230000D01*
X0126043Y0229900D02*
X0120500Y0229900D01*
X0090500Y0229900D02*
X0084957Y0229900D01*
X0087357Y0087900D02*
X0092900Y0087900D01*
X0118100Y0087900D02*
X0123643Y0087900D01*
X0148257Y0088000D02*
X0153800Y0088000D01*
X0179000Y0088000D02*
X0184543Y0088000D01*
X0376028Y0091000D02*
X0381572Y0091000D01*
X0381572Y0081000D02*
X0376028Y0081000D01*
X0376028Y0101000D02*
X0381572Y0101000D01*
X0381572Y0111000D02*
X0376028Y0111000D01*
X0376028Y0141000D02*
X0381572Y0141000D01*
X0381572Y0151000D02*
X0376028Y0151000D01*
X0376028Y0161000D02*
X0381572Y0161000D01*
X0381572Y0171000D02*
X0376028Y0171000D01*
X0427528Y0171000D02*
X0433072Y0171000D01*
X0433072Y0161000D02*
X0427528Y0161000D01*
X0427528Y0151000D02*
X0433072Y0151000D01*
X0433072Y0141000D02*
X0427528Y0141000D01*
X0427528Y0111000D02*
X0433072Y0111000D01*
X0433072Y0101000D02*
X0427528Y0101000D01*
X0427528Y0091000D02*
X0433072Y0091000D01*
X0433072Y0081000D02*
X0427528Y0081000D01*
D18*
X0253800Y0081000D03*
X0213800Y0081000D03*
X0213800Y0109000D03*
X0253800Y0109000D03*
X0253800Y0136000D03*
X0213800Y0136000D03*
X0213800Y0166000D03*
X0253800Y0166000D03*
X0402800Y0223000D03*
X0442800Y0223000D03*
D19*
X0042211Y0223550D03*
X0042211Y0171850D03*
D20*
X0058794Y0183920D03*
X0058794Y0193763D03*
X0058794Y0201637D03*
X0058794Y0211480D03*
D21*
X0084000Y0211480D01*
X0084000Y0121200D01*
X0046800Y0121200D01*
X0046800Y0121000D01*
X0046800Y0131000D02*
X0046800Y0131300D01*
X0073000Y0131300D01*
X0073000Y0183920D01*
X0058794Y0183920D01*
X0063131Y0075843D02*
X0117973Y0021000D01*
X0228900Y0021000D01*
X0318300Y0021000D01*
X0343800Y0021000D01*
D22*
X0318300Y0021000D02*
X0318300Y0093300D01*
X0311800Y0093300D01*
X0318300Y0093300D02*
X0318300Y0143441D01*
X0290316Y0143441D01*
X0290316Y0146000D02*
X0290316Y0146100D01*
X0324000Y0146100D01*
X0306200Y0138400D02*
X0293712Y0138321D01*
X0293712Y0140882D01*
X0290316Y0140882D01*
X0290316Y0138323D02*
X0290316Y0138300D01*
X0293712Y0138321D01*
X0306200Y0138400D02*
X0306200Y0088323D01*
X0290316Y0088323D01*
X0293900Y0088323D01*
X0293900Y0090800D01*
X0290316Y0090800D01*
X0290316Y0090882D01*
X0290316Y0093441D02*
X0301600Y0093441D01*
X0301600Y0093400D01*
X0296600Y0096000D02*
X0296600Y0120600D01*
X0278643Y0121000D02*
X0268643Y0111000D01*
X0259400Y0111000D01*
X0252100Y0118300D01*
X0196900Y0118300D01*
X0243643Y0096000D02*
X0248761Y0101118D01*
X0267284Y0101118D01*
X0267284Y0098559D02*
X0267225Y0098500D01*
X0258900Y0098500D01*
X0253800Y0093400D01*
X0253800Y0081000D01*
X0264100Y0088323D02*
X0264100Y0090800D01*
X0267284Y0090800D01*
X0267284Y0090882D01*
X0267243Y0093400D02*
X0261400Y0093400D01*
X0258957Y0090957D01*
X0258957Y0066000D01*
X0267284Y0077358D02*
X0267284Y0088323D01*
X0264100Y0088323D01*
X0267243Y0093400D02*
X0267284Y0093441D01*
X0267284Y0103677D02*
X0259123Y0103677D01*
X0253800Y0109000D01*
X0258957Y0121000D02*
X0258957Y0139457D01*
X0262900Y0143400D01*
X0267243Y0143400D01*
X0267284Y0143441D01*
X0267284Y0140900D02*
X0263700Y0140900D01*
X0263700Y0138323D01*
X0267284Y0138323D01*
X0267300Y0138307D01*
X0267300Y0131600D01*
X0277900Y0121000D01*
X0278643Y0121000D01*
X0253800Y0136000D02*
X0253800Y0140900D01*
X0261500Y0148600D01*
X0267243Y0148600D01*
X0267284Y0148559D01*
X0267166Y0151000D02*
X0267284Y0151118D01*
X0267166Y0151000D02*
X0243443Y0151000D01*
X0253800Y0162300D02*
X0262500Y0153600D01*
X0267207Y0153600D01*
X0267284Y0153677D01*
X0253800Y0162300D02*
X0253800Y0166000D01*
X0267284Y0140900D02*
X0267284Y0140882D01*
X0290316Y0096000D02*
X0296600Y0096000D01*
X0306200Y0088323D02*
X0306300Y0041100D01*
X0228900Y0041000D01*
X0278643Y0055500D02*
X0278643Y0066000D01*
X0267284Y0077358D01*
X0278643Y0055500D02*
X0135900Y0055500D01*
D23*
X0296600Y0120600D03*
X0301600Y0093400D03*
X0311800Y0093300D03*
X0324000Y0146100D03*
D24*
X0343800Y0191000D02*
X0343800Y0041000D01*
X0196900Y0118300D02*
X0196900Y0230000D01*
X0181400Y0230000D01*
X0180800Y0230000D01*
X0180800Y0241800D01*
X0135900Y0229900D02*
X0135900Y0055500D01*
X0343800Y0201000D02*
X0368100Y0201000D01*
X0368100Y0216000D01*
X0388800Y0216000D01*
X0388800Y0206000D02*
X0402800Y0206000D01*
X0402800Y0223000D01*
X0442800Y0223000D02*
X0442900Y0223000D01*
X0432900Y0270100D01*
X0353800Y0270100D01*
X0353800Y0261000D01*
X0353800Y0251000D02*
X0353800Y0211000D01*
X0343800Y0211000D01*
X0388800Y0196000D02*
X0433800Y0196000D01*
X0135900Y0229900D02*
X0121300Y0229900D01*
X0121300Y0243500D01*
X0121300Y0229900D02*
X0120500Y0229900D01*
D25*
X0213300Y0223500D02*
X0213300Y0265500D01*
X0219300Y0271500D01*
X0313300Y0271500D01*
X0323800Y0261000D01*
X0313800Y0261000D02*
X0305300Y0269500D01*
X0220300Y0269500D01*
X0215300Y0264500D01*
X0215300Y0224500D01*
X0226800Y0213000D01*
X0259300Y0213000D01*
X0267300Y0221000D01*
X0268800Y0221000D01*
X0277300Y0221000D02*
X0267300Y0211000D01*
X0225800Y0211000D01*
X0213300Y0223500D01*
X0221800Y0245500D02*
X0217300Y0250000D01*
X0217300Y0263500D01*
X0221300Y0267500D01*
X0297300Y0267500D01*
X0303800Y0261000D01*
X0303800Y0251000D02*
X0288800Y0236000D01*
X0288800Y0221000D01*
X0278800Y0221000D02*
X0277300Y0221000D01*
X0258800Y0221000D02*
X0234300Y0245500D01*
X0221800Y0245500D01*
X0285800Y0169500D02*
X0343800Y0227500D01*
X0343800Y0251000D01*
X0347800Y0245500D02*
X0347800Y0228500D01*
X0290800Y0171500D01*
X0290800Y0154000D01*
X0290316Y0153677D01*
X0285800Y0169500D02*
X0285800Y0136500D01*
X0290300Y0132000D01*
X0290300Y0104000D01*
X0290316Y0103677D01*
X0403800Y0251000D02*
X0413800Y0251000D01*
D26*
X0347800Y0245500D03*
M02*
