G75*
%MOIN*%
%OFA0B0*%
%FSLAX25Y25*%
%IPPOS*%
%LPD*%
%AMOC8*
5,1,8,0,0,1.08239X$1,22.5*
%
%ADD10C,0.00000*%
%ADD11C,0.00600*%
%ADD12C,0.00300*%
%ADD13C,0.00400*%
%ADD14C,0.01600*%
%ADD15C,0.01000*%
%ADD16C,0.00800*%
%ADD17R,0.02000X0.08000*%
%ADD18R,0.02500X0.02000*%
%ADD19C,0.00500*%
%ADD20R,0.03000X0.42000*%
%ADD21R,0.02000X0.07500*%
%ADD22R,0.02000X0.03000*%
%ADD23C,0.02000*%
%ADD24R,0.05000X0.07500*%
%ADD25R,0.03000X0.07000*%
%ADD26R,0.05000X0.03000*%
%ADD27C,0.03619*%
%ADD28C,0.00100*%
%ADD29R,0.03400X0.02400*%
D10*
X0018800Y0001100D02*
X0018800Y0287702D01*
X0473806Y0287702D01*
X0473806Y0001000D01*
X0018800Y0001100D01*
D11*
X0043668Y0039100D02*
X0042600Y0040168D01*
X0043668Y0039100D02*
X0044735Y0039100D01*
X0045803Y0040168D01*
X0045803Y0045505D01*
X0046870Y0045505D02*
X0044735Y0045505D01*
X0049045Y0045505D02*
X0052248Y0045505D01*
X0053316Y0044438D01*
X0053316Y0042303D01*
X0052248Y0041235D01*
X0049045Y0041235D01*
X0049045Y0039100D02*
X0049045Y0045505D01*
X0055491Y0043370D02*
X0057626Y0045505D01*
X0057626Y0039100D01*
X0055491Y0039100D02*
X0059761Y0039100D01*
X0045935Y0107868D02*
X0045935Y0112138D01*
X0043800Y0110003D02*
X0048070Y0110003D01*
X0049300Y0116000D02*
X0044300Y0116000D01*
X0041800Y0118500D01*
X0041800Y0123500D01*
X0044300Y0126000D01*
X0041800Y0128500D01*
X0041800Y0133500D01*
X0044300Y0136000D01*
X0049300Y0136000D01*
X0051800Y0133500D01*
X0051800Y0128500D01*
X0049300Y0126000D01*
X0051800Y0123500D01*
X0051800Y0118500D01*
X0049300Y0116000D01*
X0049300Y0126000D02*
X0044300Y0126000D01*
X0221300Y0132500D02*
X0221300Y0139500D01*
X0221302Y0139560D01*
X0221307Y0139621D01*
X0221316Y0139680D01*
X0221329Y0139739D01*
X0221345Y0139798D01*
X0221365Y0139855D01*
X0221388Y0139910D01*
X0221415Y0139965D01*
X0221444Y0140017D01*
X0221477Y0140068D01*
X0221513Y0140117D01*
X0221551Y0140163D01*
X0221593Y0140207D01*
X0221637Y0140249D01*
X0221683Y0140287D01*
X0221732Y0140323D01*
X0221783Y0140356D01*
X0221835Y0140385D01*
X0221890Y0140412D01*
X0221945Y0140435D01*
X0222002Y0140455D01*
X0222061Y0140471D01*
X0222120Y0140484D01*
X0222179Y0140493D01*
X0222240Y0140498D01*
X0222300Y0140500D01*
X0223800Y0140500D01*
X0224300Y0140000D01*
X0243300Y0140000D01*
X0243800Y0140500D01*
X0245300Y0140500D01*
X0245360Y0140498D01*
X0245421Y0140493D01*
X0245480Y0140484D01*
X0245539Y0140471D01*
X0245598Y0140455D01*
X0245655Y0140435D01*
X0245710Y0140412D01*
X0245765Y0140385D01*
X0245817Y0140356D01*
X0245868Y0140323D01*
X0245917Y0140287D01*
X0245963Y0140249D01*
X0246007Y0140207D01*
X0246049Y0140163D01*
X0246087Y0140117D01*
X0246123Y0140068D01*
X0246156Y0140017D01*
X0246185Y0139965D01*
X0246212Y0139910D01*
X0246235Y0139855D01*
X0246255Y0139798D01*
X0246271Y0139739D01*
X0246284Y0139680D01*
X0246293Y0139621D01*
X0246298Y0139560D01*
X0246300Y0139500D01*
X0246300Y0132500D01*
X0246298Y0132440D01*
X0246293Y0132379D01*
X0246284Y0132320D01*
X0246271Y0132261D01*
X0246255Y0132202D01*
X0246235Y0132145D01*
X0246212Y0132090D01*
X0246185Y0132035D01*
X0246156Y0131983D01*
X0246123Y0131932D01*
X0246087Y0131883D01*
X0246049Y0131837D01*
X0246007Y0131793D01*
X0245963Y0131751D01*
X0245917Y0131713D01*
X0245868Y0131677D01*
X0245817Y0131644D01*
X0245765Y0131615D01*
X0245710Y0131588D01*
X0245655Y0131565D01*
X0245598Y0131545D01*
X0245539Y0131529D01*
X0245480Y0131516D01*
X0245421Y0131507D01*
X0245360Y0131502D01*
X0245300Y0131500D01*
X0243800Y0131500D01*
X0243300Y0132000D01*
X0224300Y0132000D01*
X0223800Y0131500D01*
X0222300Y0131500D01*
X0222240Y0131502D01*
X0222179Y0131507D01*
X0222120Y0131516D01*
X0222061Y0131529D01*
X0222002Y0131545D01*
X0221945Y0131565D01*
X0221890Y0131588D01*
X0221835Y0131615D01*
X0221783Y0131644D01*
X0221732Y0131677D01*
X0221683Y0131713D01*
X0221637Y0131751D01*
X0221593Y0131793D01*
X0221551Y0131837D01*
X0221513Y0131883D01*
X0221477Y0131932D01*
X0221444Y0131983D01*
X0221415Y0132035D01*
X0221388Y0132090D01*
X0221365Y0132145D01*
X0221345Y0132202D01*
X0221329Y0132261D01*
X0221316Y0132320D01*
X0221307Y0132379D01*
X0221302Y0132440D01*
X0221300Y0132500D01*
X0222300Y0113500D02*
X0223800Y0113500D01*
X0224300Y0113000D01*
X0243300Y0113000D01*
X0243800Y0113500D01*
X0245300Y0113500D01*
X0245360Y0113498D01*
X0245421Y0113493D01*
X0245480Y0113484D01*
X0245539Y0113471D01*
X0245598Y0113455D01*
X0245655Y0113435D01*
X0245710Y0113412D01*
X0245765Y0113385D01*
X0245817Y0113356D01*
X0245868Y0113323D01*
X0245917Y0113287D01*
X0245963Y0113249D01*
X0246007Y0113207D01*
X0246049Y0113163D01*
X0246087Y0113117D01*
X0246123Y0113068D01*
X0246156Y0113017D01*
X0246185Y0112965D01*
X0246212Y0112910D01*
X0246235Y0112855D01*
X0246255Y0112798D01*
X0246271Y0112739D01*
X0246284Y0112680D01*
X0246293Y0112621D01*
X0246298Y0112560D01*
X0246300Y0112500D01*
X0246300Y0105500D01*
X0246298Y0105440D01*
X0246293Y0105379D01*
X0246284Y0105320D01*
X0246271Y0105261D01*
X0246255Y0105202D01*
X0246235Y0105145D01*
X0246212Y0105090D01*
X0246185Y0105035D01*
X0246156Y0104983D01*
X0246123Y0104932D01*
X0246087Y0104883D01*
X0246049Y0104837D01*
X0246007Y0104793D01*
X0245963Y0104751D01*
X0245917Y0104713D01*
X0245868Y0104677D01*
X0245817Y0104644D01*
X0245765Y0104615D01*
X0245710Y0104588D01*
X0245655Y0104565D01*
X0245598Y0104545D01*
X0245539Y0104529D01*
X0245480Y0104516D01*
X0245421Y0104507D01*
X0245360Y0104502D01*
X0245300Y0104500D01*
X0243800Y0104500D01*
X0243300Y0105000D01*
X0224300Y0105000D01*
X0223800Y0104500D01*
X0222300Y0104500D01*
X0222240Y0104502D01*
X0222179Y0104507D01*
X0222120Y0104516D01*
X0222061Y0104529D01*
X0222002Y0104545D01*
X0221945Y0104565D01*
X0221890Y0104588D01*
X0221835Y0104615D01*
X0221783Y0104644D01*
X0221732Y0104677D01*
X0221683Y0104713D01*
X0221637Y0104751D01*
X0221593Y0104793D01*
X0221551Y0104837D01*
X0221513Y0104883D01*
X0221477Y0104932D01*
X0221444Y0104983D01*
X0221415Y0105035D01*
X0221388Y0105090D01*
X0221365Y0105145D01*
X0221345Y0105202D01*
X0221329Y0105261D01*
X0221316Y0105320D01*
X0221307Y0105379D01*
X0221302Y0105440D01*
X0221300Y0105500D01*
X0221300Y0112500D01*
X0221302Y0112560D01*
X0221307Y0112621D01*
X0221316Y0112680D01*
X0221329Y0112739D01*
X0221345Y0112798D01*
X0221365Y0112855D01*
X0221388Y0112910D01*
X0221415Y0112965D01*
X0221444Y0113017D01*
X0221477Y0113068D01*
X0221513Y0113117D01*
X0221551Y0113163D01*
X0221593Y0113207D01*
X0221637Y0113249D01*
X0221683Y0113287D01*
X0221732Y0113323D01*
X0221783Y0113356D01*
X0221835Y0113385D01*
X0221890Y0113412D01*
X0221945Y0113435D01*
X0222002Y0113455D01*
X0222061Y0113471D01*
X0222120Y0113484D01*
X0222179Y0113493D01*
X0222240Y0113498D01*
X0222300Y0113500D01*
X0222300Y0085500D02*
X0223800Y0085500D01*
X0224300Y0085000D01*
X0243300Y0085000D01*
X0243800Y0085500D01*
X0245300Y0085500D01*
X0245360Y0085498D01*
X0245421Y0085493D01*
X0245480Y0085484D01*
X0245539Y0085471D01*
X0245598Y0085455D01*
X0245655Y0085435D01*
X0245710Y0085412D01*
X0245765Y0085385D01*
X0245817Y0085356D01*
X0245868Y0085323D01*
X0245917Y0085287D01*
X0245963Y0085249D01*
X0246007Y0085207D01*
X0246049Y0085163D01*
X0246087Y0085117D01*
X0246123Y0085068D01*
X0246156Y0085017D01*
X0246185Y0084965D01*
X0246212Y0084910D01*
X0246235Y0084855D01*
X0246255Y0084798D01*
X0246271Y0084739D01*
X0246284Y0084680D01*
X0246293Y0084621D01*
X0246298Y0084560D01*
X0246300Y0084500D01*
X0246300Y0077500D01*
X0246298Y0077440D01*
X0246293Y0077379D01*
X0246284Y0077320D01*
X0246271Y0077261D01*
X0246255Y0077202D01*
X0246235Y0077145D01*
X0246212Y0077090D01*
X0246185Y0077035D01*
X0246156Y0076983D01*
X0246123Y0076932D01*
X0246087Y0076883D01*
X0246049Y0076837D01*
X0246007Y0076793D01*
X0245963Y0076751D01*
X0245917Y0076713D01*
X0245868Y0076677D01*
X0245817Y0076644D01*
X0245765Y0076615D01*
X0245710Y0076588D01*
X0245655Y0076565D01*
X0245598Y0076545D01*
X0245539Y0076529D01*
X0245480Y0076516D01*
X0245421Y0076507D01*
X0245360Y0076502D01*
X0245300Y0076500D01*
X0243800Y0076500D01*
X0243300Y0077000D01*
X0224300Y0077000D01*
X0223800Y0076500D01*
X0222300Y0076500D01*
X0222240Y0076502D01*
X0222179Y0076507D01*
X0222120Y0076516D01*
X0222061Y0076529D01*
X0222002Y0076545D01*
X0221945Y0076565D01*
X0221890Y0076588D01*
X0221835Y0076615D01*
X0221783Y0076644D01*
X0221732Y0076677D01*
X0221683Y0076713D01*
X0221637Y0076751D01*
X0221593Y0076793D01*
X0221551Y0076837D01*
X0221513Y0076883D01*
X0221477Y0076932D01*
X0221444Y0076983D01*
X0221415Y0077035D01*
X0221388Y0077090D01*
X0221365Y0077145D01*
X0221345Y0077202D01*
X0221329Y0077261D01*
X0221316Y0077320D01*
X0221307Y0077379D01*
X0221302Y0077440D01*
X0221300Y0077500D01*
X0221300Y0084500D01*
X0221302Y0084560D01*
X0221307Y0084621D01*
X0221316Y0084680D01*
X0221329Y0084739D01*
X0221345Y0084798D01*
X0221365Y0084855D01*
X0221388Y0084910D01*
X0221415Y0084965D01*
X0221444Y0085017D01*
X0221477Y0085068D01*
X0221513Y0085117D01*
X0221551Y0085163D01*
X0221593Y0085207D01*
X0221637Y0085249D01*
X0221683Y0085287D01*
X0221732Y0085323D01*
X0221783Y0085356D01*
X0221835Y0085385D01*
X0221890Y0085412D01*
X0221945Y0085435D01*
X0222002Y0085455D01*
X0222061Y0085471D01*
X0222120Y0085484D01*
X0222179Y0085493D01*
X0222240Y0085498D01*
X0222300Y0085500D01*
X0222300Y0161500D02*
X0223800Y0161500D01*
X0224300Y0162000D01*
X0243300Y0162000D01*
X0243800Y0161500D01*
X0245300Y0161500D01*
X0245360Y0161502D01*
X0245421Y0161507D01*
X0245480Y0161516D01*
X0245539Y0161529D01*
X0245598Y0161545D01*
X0245655Y0161565D01*
X0245710Y0161588D01*
X0245765Y0161615D01*
X0245817Y0161644D01*
X0245868Y0161677D01*
X0245917Y0161713D01*
X0245963Y0161751D01*
X0246007Y0161793D01*
X0246049Y0161837D01*
X0246087Y0161883D01*
X0246123Y0161932D01*
X0246156Y0161983D01*
X0246185Y0162035D01*
X0246212Y0162090D01*
X0246235Y0162145D01*
X0246255Y0162202D01*
X0246271Y0162261D01*
X0246284Y0162320D01*
X0246293Y0162379D01*
X0246298Y0162440D01*
X0246300Y0162500D01*
X0246300Y0169500D01*
X0246298Y0169560D01*
X0246293Y0169621D01*
X0246284Y0169680D01*
X0246271Y0169739D01*
X0246255Y0169798D01*
X0246235Y0169855D01*
X0246212Y0169910D01*
X0246185Y0169965D01*
X0246156Y0170017D01*
X0246123Y0170068D01*
X0246087Y0170117D01*
X0246049Y0170163D01*
X0246007Y0170207D01*
X0245963Y0170249D01*
X0245917Y0170287D01*
X0245868Y0170323D01*
X0245817Y0170356D01*
X0245765Y0170385D01*
X0245710Y0170412D01*
X0245655Y0170435D01*
X0245598Y0170455D01*
X0245539Y0170471D01*
X0245480Y0170484D01*
X0245421Y0170493D01*
X0245360Y0170498D01*
X0245300Y0170500D01*
X0243800Y0170500D01*
X0243300Y0170000D01*
X0224300Y0170000D01*
X0223800Y0170500D01*
X0222300Y0170500D01*
X0222240Y0170498D01*
X0222179Y0170493D01*
X0222120Y0170484D01*
X0222061Y0170471D01*
X0222002Y0170455D01*
X0221945Y0170435D01*
X0221890Y0170412D01*
X0221835Y0170385D01*
X0221783Y0170356D01*
X0221732Y0170323D01*
X0221683Y0170287D01*
X0221637Y0170249D01*
X0221593Y0170207D01*
X0221551Y0170163D01*
X0221513Y0170117D01*
X0221477Y0170068D01*
X0221444Y0170017D01*
X0221415Y0169965D01*
X0221388Y0169910D01*
X0221365Y0169855D01*
X0221345Y0169798D01*
X0221329Y0169739D01*
X0221316Y0169680D01*
X0221307Y0169621D01*
X0221302Y0169560D01*
X0221300Y0169500D01*
X0221300Y0162500D01*
X0221302Y0162440D01*
X0221307Y0162379D01*
X0221316Y0162320D01*
X0221329Y0162261D01*
X0221345Y0162202D01*
X0221365Y0162145D01*
X0221388Y0162090D01*
X0221415Y0162035D01*
X0221444Y0161983D01*
X0221477Y0161932D01*
X0221513Y0161883D01*
X0221551Y0161837D01*
X0221593Y0161793D01*
X0221637Y0161751D01*
X0221683Y0161713D01*
X0221732Y0161677D01*
X0221783Y0161644D01*
X0221835Y0161615D01*
X0221890Y0161588D01*
X0221945Y0161565D01*
X0222002Y0161545D01*
X0222061Y0161529D01*
X0222120Y0161516D01*
X0222179Y0161507D01*
X0222240Y0161502D01*
X0222300Y0161500D01*
X0223800Y0194500D02*
X0223800Y0202000D01*
X0223926Y0202002D01*
X0224051Y0202008D01*
X0224176Y0202018D01*
X0224301Y0202032D01*
X0224426Y0202049D01*
X0224550Y0202071D01*
X0224673Y0202096D01*
X0224795Y0202126D01*
X0224916Y0202159D01*
X0225036Y0202196D01*
X0225155Y0202236D01*
X0225272Y0202281D01*
X0225389Y0202329D01*
X0225503Y0202381D01*
X0225616Y0202436D01*
X0225727Y0202495D01*
X0225836Y0202557D01*
X0225943Y0202623D01*
X0226048Y0202692D01*
X0226151Y0202764D01*
X0226252Y0202839D01*
X0226350Y0202918D01*
X0226445Y0203000D01*
X0226538Y0203084D01*
X0226628Y0203172D01*
X0226716Y0203262D01*
X0226800Y0203355D01*
X0226882Y0203450D01*
X0226961Y0203548D01*
X0227036Y0203649D01*
X0227108Y0203752D01*
X0227177Y0203857D01*
X0227243Y0203964D01*
X0227305Y0204073D01*
X0227364Y0204184D01*
X0227419Y0204297D01*
X0227471Y0204411D01*
X0227519Y0204528D01*
X0227564Y0204645D01*
X0227604Y0204764D01*
X0227641Y0204884D01*
X0227674Y0205005D01*
X0227704Y0205127D01*
X0227729Y0205250D01*
X0227751Y0205374D01*
X0227768Y0205499D01*
X0227782Y0205624D01*
X0227792Y0205749D01*
X0227798Y0205874D01*
X0227800Y0206000D01*
X0227798Y0206126D01*
X0227792Y0206251D01*
X0227782Y0206376D01*
X0227768Y0206501D01*
X0227751Y0206626D01*
X0227729Y0206750D01*
X0227704Y0206873D01*
X0227674Y0206995D01*
X0227641Y0207116D01*
X0227604Y0207236D01*
X0227564Y0207355D01*
X0227519Y0207472D01*
X0227471Y0207589D01*
X0227419Y0207703D01*
X0227364Y0207816D01*
X0227305Y0207927D01*
X0227243Y0208036D01*
X0227177Y0208143D01*
X0227108Y0208248D01*
X0227036Y0208351D01*
X0226961Y0208452D01*
X0226882Y0208550D01*
X0226800Y0208645D01*
X0226716Y0208738D01*
X0226628Y0208828D01*
X0226538Y0208916D01*
X0226445Y0209000D01*
X0226350Y0209082D01*
X0226252Y0209161D01*
X0226151Y0209236D01*
X0226048Y0209308D01*
X0225943Y0209377D01*
X0225836Y0209443D01*
X0225727Y0209505D01*
X0225616Y0209564D01*
X0225503Y0209619D01*
X0225389Y0209671D01*
X0225272Y0209719D01*
X0225155Y0209764D01*
X0225036Y0209804D01*
X0224916Y0209841D01*
X0224795Y0209874D01*
X0224673Y0209904D01*
X0224550Y0209929D01*
X0224426Y0209951D01*
X0224301Y0209968D01*
X0224176Y0209982D01*
X0224051Y0209992D01*
X0223926Y0209998D01*
X0223800Y0210000D01*
X0223800Y0217500D01*
X0303800Y0217500D01*
X0303800Y0194500D01*
X0223800Y0194500D01*
X0174800Y0238800D02*
X0174800Y0244800D01*
X0174798Y0244860D01*
X0174793Y0244921D01*
X0174784Y0244980D01*
X0174771Y0245039D01*
X0174755Y0245098D01*
X0174735Y0245155D01*
X0174712Y0245210D01*
X0174685Y0245265D01*
X0174656Y0245317D01*
X0174623Y0245368D01*
X0174587Y0245417D01*
X0174549Y0245463D01*
X0174507Y0245507D01*
X0174463Y0245549D01*
X0174417Y0245587D01*
X0174368Y0245623D01*
X0174317Y0245656D01*
X0174265Y0245685D01*
X0174210Y0245712D01*
X0174155Y0245735D01*
X0174098Y0245755D01*
X0174039Y0245771D01*
X0173980Y0245784D01*
X0173921Y0245793D01*
X0173860Y0245798D01*
X0173800Y0245800D01*
X0157800Y0245800D01*
X0157740Y0245798D01*
X0157679Y0245793D01*
X0157620Y0245784D01*
X0157561Y0245771D01*
X0157502Y0245755D01*
X0157445Y0245735D01*
X0157390Y0245712D01*
X0157335Y0245685D01*
X0157283Y0245656D01*
X0157232Y0245623D01*
X0157183Y0245587D01*
X0157137Y0245549D01*
X0157093Y0245507D01*
X0157051Y0245463D01*
X0157013Y0245417D01*
X0156977Y0245368D01*
X0156944Y0245317D01*
X0156915Y0245265D01*
X0156888Y0245210D01*
X0156865Y0245155D01*
X0156845Y0245098D01*
X0156829Y0245039D01*
X0156816Y0244980D01*
X0156807Y0244921D01*
X0156802Y0244860D01*
X0156800Y0244800D01*
X0156800Y0238800D01*
X0156802Y0238740D01*
X0156807Y0238679D01*
X0156816Y0238620D01*
X0156829Y0238561D01*
X0156845Y0238502D01*
X0156865Y0238445D01*
X0156888Y0238390D01*
X0156915Y0238335D01*
X0156944Y0238283D01*
X0156977Y0238232D01*
X0157013Y0238183D01*
X0157051Y0238137D01*
X0157093Y0238093D01*
X0157137Y0238051D01*
X0157183Y0238013D01*
X0157232Y0237977D01*
X0157283Y0237944D01*
X0157335Y0237915D01*
X0157390Y0237888D01*
X0157445Y0237865D01*
X0157502Y0237845D01*
X0157561Y0237829D01*
X0157620Y0237816D01*
X0157679Y0237807D01*
X0157740Y0237802D01*
X0157800Y0237800D01*
X0173800Y0237800D01*
X0173860Y0237802D01*
X0173921Y0237807D01*
X0173980Y0237816D01*
X0174039Y0237829D01*
X0174098Y0237845D01*
X0174155Y0237865D01*
X0174210Y0237888D01*
X0174265Y0237915D01*
X0174317Y0237944D01*
X0174368Y0237977D01*
X0174417Y0238013D01*
X0174463Y0238051D01*
X0174507Y0238093D01*
X0174549Y0238137D01*
X0174587Y0238183D01*
X0174623Y0238232D01*
X0174656Y0238283D01*
X0174685Y0238335D01*
X0174712Y0238390D01*
X0174735Y0238445D01*
X0174755Y0238502D01*
X0174771Y0238561D01*
X0174784Y0238620D01*
X0174793Y0238679D01*
X0174798Y0238740D01*
X0174800Y0238800D01*
X0168300Y0241800D02*
X0165800Y0241800D01*
X0165800Y0244300D01*
X0165800Y0241800D02*
X0161800Y0244300D01*
X0161800Y0239300D01*
X0165800Y0241800D01*
X0165800Y0239300D01*
X0165800Y0241800D02*
X0159800Y0241800D01*
X0153700Y0257400D02*
X0148700Y0257400D01*
X0146200Y0259900D01*
X0143700Y0257400D01*
X0138700Y0257400D01*
X0136200Y0259900D01*
X0136200Y0264900D01*
X0138700Y0267400D01*
X0143700Y0267400D01*
X0146200Y0264900D01*
X0148700Y0267400D01*
X0153700Y0267400D01*
X0156200Y0264900D01*
X0156200Y0259900D01*
X0153700Y0257400D01*
X0146200Y0259900D02*
X0146200Y0264900D01*
X0131370Y0262503D02*
X0127100Y0262503D01*
X0129235Y0264638D02*
X0129235Y0260368D01*
X0115300Y0246500D02*
X0115300Y0240500D01*
X0115298Y0240440D01*
X0115293Y0240379D01*
X0115284Y0240320D01*
X0115271Y0240261D01*
X0115255Y0240202D01*
X0115235Y0240145D01*
X0115212Y0240090D01*
X0115185Y0240035D01*
X0115156Y0239983D01*
X0115123Y0239932D01*
X0115087Y0239883D01*
X0115049Y0239837D01*
X0115007Y0239793D01*
X0114963Y0239751D01*
X0114917Y0239713D01*
X0114868Y0239677D01*
X0114817Y0239644D01*
X0114765Y0239615D01*
X0114710Y0239588D01*
X0114655Y0239565D01*
X0114598Y0239545D01*
X0114539Y0239529D01*
X0114480Y0239516D01*
X0114421Y0239507D01*
X0114360Y0239502D01*
X0114300Y0239500D01*
X0098300Y0239500D01*
X0098240Y0239502D01*
X0098179Y0239507D01*
X0098120Y0239516D01*
X0098061Y0239529D01*
X0098002Y0239545D01*
X0097945Y0239565D01*
X0097890Y0239588D01*
X0097835Y0239615D01*
X0097783Y0239644D01*
X0097732Y0239677D01*
X0097683Y0239713D01*
X0097637Y0239751D01*
X0097593Y0239793D01*
X0097551Y0239837D01*
X0097513Y0239883D01*
X0097477Y0239932D01*
X0097444Y0239983D01*
X0097415Y0240035D01*
X0097388Y0240090D01*
X0097365Y0240145D01*
X0097345Y0240202D01*
X0097329Y0240261D01*
X0097316Y0240320D01*
X0097307Y0240379D01*
X0097302Y0240440D01*
X0097300Y0240500D01*
X0097300Y0246500D01*
X0097302Y0246560D01*
X0097307Y0246621D01*
X0097316Y0246680D01*
X0097329Y0246739D01*
X0097345Y0246798D01*
X0097365Y0246855D01*
X0097388Y0246910D01*
X0097415Y0246965D01*
X0097444Y0247017D01*
X0097477Y0247068D01*
X0097513Y0247117D01*
X0097551Y0247163D01*
X0097593Y0247207D01*
X0097637Y0247249D01*
X0097683Y0247287D01*
X0097732Y0247323D01*
X0097783Y0247356D01*
X0097835Y0247385D01*
X0097890Y0247412D01*
X0097945Y0247435D01*
X0098002Y0247455D01*
X0098061Y0247471D01*
X0098120Y0247484D01*
X0098179Y0247493D01*
X0098240Y0247498D01*
X0098300Y0247500D01*
X0114300Y0247500D01*
X0114360Y0247498D01*
X0114421Y0247493D01*
X0114480Y0247484D01*
X0114539Y0247471D01*
X0114598Y0247455D01*
X0114655Y0247435D01*
X0114710Y0247412D01*
X0114765Y0247385D01*
X0114817Y0247356D01*
X0114868Y0247323D01*
X0114917Y0247287D01*
X0114963Y0247249D01*
X0115007Y0247207D01*
X0115049Y0247163D01*
X0115087Y0247117D01*
X0115123Y0247068D01*
X0115156Y0247017D01*
X0115185Y0246965D01*
X0115212Y0246910D01*
X0115235Y0246855D01*
X0115255Y0246798D01*
X0115271Y0246739D01*
X0115284Y0246680D01*
X0115293Y0246621D01*
X0115298Y0246560D01*
X0115300Y0246500D01*
X0108800Y0243500D02*
X0106300Y0243500D01*
X0106300Y0246000D01*
X0106300Y0243500D02*
X0100300Y0243500D01*
X0102300Y0241000D02*
X0106300Y0243500D01*
X0106300Y0241000D01*
X0106300Y0243500D02*
X0102300Y0246000D01*
X0102300Y0241000D01*
X0085700Y0259000D02*
X0083200Y0256500D01*
X0078200Y0256500D01*
X0075700Y0259000D01*
X0073200Y0256500D01*
X0068200Y0256500D01*
X0065700Y0259000D01*
X0065700Y0264000D01*
X0068200Y0266500D01*
X0073200Y0266500D01*
X0075700Y0264000D01*
X0078200Y0266500D01*
X0083200Y0266500D01*
X0085700Y0264000D01*
X0085700Y0259000D01*
X0075700Y0259000D02*
X0075700Y0264000D01*
X0061370Y0261503D02*
X0057100Y0261503D01*
X0059235Y0263638D02*
X0059235Y0259368D01*
X0336800Y0220000D02*
X0336800Y0182000D01*
X0337800Y0181000D01*
X0349300Y0181000D01*
X0411300Y0218500D02*
X0412800Y0218500D01*
X0413300Y0219000D01*
X0432300Y0219000D01*
X0432800Y0218500D01*
X0434300Y0218500D01*
X0434360Y0218502D01*
X0434421Y0218507D01*
X0434480Y0218516D01*
X0434539Y0218529D01*
X0434598Y0218545D01*
X0434655Y0218565D01*
X0434710Y0218588D01*
X0434765Y0218615D01*
X0434817Y0218644D01*
X0434868Y0218677D01*
X0434917Y0218713D01*
X0434963Y0218751D01*
X0435007Y0218793D01*
X0435049Y0218837D01*
X0435087Y0218883D01*
X0435123Y0218932D01*
X0435156Y0218983D01*
X0435185Y0219035D01*
X0435212Y0219090D01*
X0435235Y0219145D01*
X0435255Y0219202D01*
X0435271Y0219261D01*
X0435284Y0219320D01*
X0435293Y0219379D01*
X0435298Y0219440D01*
X0435300Y0219500D01*
X0435300Y0226500D01*
X0435298Y0226560D01*
X0435293Y0226621D01*
X0435284Y0226680D01*
X0435271Y0226739D01*
X0435255Y0226798D01*
X0435235Y0226855D01*
X0435212Y0226910D01*
X0435185Y0226965D01*
X0435156Y0227017D01*
X0435123Y0227068D01*
X0435087Y0227117D01*
X0435049Y0227163D01*
X0435007Y0227207D01*
X0434963Y0227249D01*
X0434917Y0227287D01*
X0434868Y0227323D01*
X0434817Y0227356D01*
X0434765Y0227385D01*
X0434710Y0227412D01*
X0434655Y0227435D01*
X0434598Y0227455D01*
X0434539Y0227471D01*
X0434480Y0227484D01*
X0434421Y0227493D01*
X0434360Y0227498D01*
X0434300Y0227500D01*
X0432800Y0227500D01*
X0432300Y0227000D01*
X0413300Y0227000D01*
X0412800Y0227500D01*
X0411300Y0227500D01*
X0411240Y0227498D01*
X0411179Y0227493D01*
X0411120Y0227484D01*
X0411061Y0227471D01*
X0411002Y0227455D01*
X0410945Y0227435D01*
X0410890Y0227412D01*
X0410835Y0227385D01*
X0410783Y0227356D01*
X0410732Y0227323D01*
X0410683Y0227287D01*
X0410637Y0227249D01*
X0410593Y0227207D01*
X0410551Y0227163D01*
X0410513Y0227117D01*
X0410477Y0227068D01*
X0410444Y0227017D01*
X0410415Y0226965D01*
X0410388Y0226910D01*
X0410365Y0226855D01*
X0410345Y0226798D01*
X0410329Y0226739D01*
X0410316Y0226680D01*
X0410307Y0226621D01*
X0410302Y0226560D01*
X0410300Y0226500D01*
X0410300Y0219500D01*
X0410302Y0219440D01*
X0410307Y0219379D01*
X0410316Y0219320D01*
X0410329Y0219261D01*
X0410345Y0219202D01*
X0410365Y0219145D01*
X0410388Y0219090D01*
X0410415Y0219035D01*
X0410444Y0218983D01*
X0410477Y0218932D01*
X0410513Y0218883D01*
X0410551Y0218837D01*
X0410593Y0218793D01*
X0410637Y0218751D01*
X0410683Y0218713D01*
X0410732Y0218677D01*
X0410783Y0218644D01*
X0410835Y0218615D01*
X0410890Y0218588D01*
X0410945Y0218565D01*
X0411002Y0218545D01*
X0411061Y0218529D01*
X0411120Y0218516D01*
X0411179Y0218507D01*
X0411240Y0218502D01*
X0411300Y0218500D01*
X0431300Y0201000D02*
X0428800Y0198500D01*
X0428800Y0193500D01*
X0431300Y0191000D01*
X0436300Y0191000D01*
X0438800Y0193500D01*
X0441300Y0191000D01*
X0446300Y0191000D01*
X0448800Y0193500D01*
X0448800Y0198500D01*
X0446300Y0201000D01*
X0441300Y0201000D01*
X0438800Y0198500D01*
X0438800Y0193500D01*
X0438800Y0198500D02*
X0436300Y0201000D01*
X0431300Y0201000D01*
X0349300Y0221000D02*
X0337800Y0221000D01*
X0336800Y0220000D01*
X0376300Y0046000D02*
X0373800Y0043500D01*
X0373800Y0038500D01*
X0376300Y0036000D01*
X0381300Y0036000D01*
X0383800Y0038500D01*
X0386300Y0036000D01*
X0391300Y0036000D01*
X0393800Y0038500D01*
X0396300Y0036000D01*
X0401300Y0036000D01*
X0403800Y0038500D01*
X0403800Y0043500D01*
X0401300Y0046000D01*
X0396300Y0046000D01*
X0393800Y0043500D01*
X0393800Y0038500D01*
X0393800Y0043500D02*
X0391300Y0046000D01*
X0386300Y0046000D01*
X0383800Y0043500D01*
X0383800Y0038500D01*
X0383800Y0043500D02*
X0381300Y0046000D01*
X0376300Y0046000D01*
X0412100Y0041503D02*
X0416370Y0041503D01*
X0414235Y0043638D02*
X0414235Y0039368D01*
X0418800Y0038500D02*
X0421300Y0036000D01*
X0426300Y0036000D01*
X0428800Y0038500D01*
X0431300Y0036000D01*
X0436300Y0036000D01*
X0438800Y0038500D01*
X0438800Y0043500D01*
X0436300Y0046000D01*
X0431300Y0046000D01*
X0428800Y0043500D01*
X0428800Y0038500D01*
X0428800Y0043500D02*
X0426300Y0046000D01*
X0421300Y0046000D01*
X0418800Y0043500D01*
X0418800Y0038500D01*
D12*
X0402796Y0031569D02*
X0402796Y0030601D01*
X0402312Y0030117D01*
X0400861Y0030117D01*
X0400861Y0029150D02*
X0400861Y0032052D01*
X0402312Y0032052D01*
X0402796Y0031569D01*
X0401828Y0030117D02*
X0402796Y0029150D01*
X0399864Y0029150D02*
X0398897Y0029150D01*
X0399380Y0029150D02*
X0399380Y0032052D01*
X0398897Y0032052D02*
X0399864Y0032052D01*
X0397885Y0031569D02*
X0397401Y0032052D01*
X0395950Y0032052D01*
X0395950Y0029150D01*
X0397401Y0029150D01*
X0397885Y0029634D01*
X0397885Y0031569D01*
X0394725Y0031569D02*
X0394725Y0030601D01*
X0394241Y0030117D01*
X0392790Y0030117D01*
X0392790Y0029150D02*
X0392790Y0032052D01*
X0394241Y0032052D01*
X0394725Y0031569D01*
X0391778Y0032052D02*
X0389843Y0032052D01*
X0389843Y0029150D01*
X0391778Y0029150D01*
X0390811Y0030601D02*
X0389843Y0030601D01*
X0388831Y0032052D02*
X0386897Y0032052D01*
X0387864Y0032052D02*
X0387864Y0029150D01*
X0385885Y0029634D02*
X0385401Y0029150D01*
X0384434Y0029150D01*
X0383950Y0029634D01*
X0384434Y0030601D02*
X0385401Y0030601D01*
X0385885Y0030117D01*
X0385885Y0029634D01*
X0384434Y0030601D02*
X0383950Y0031085D01*
X0383950Y0031569D01*
X0384434Y0032052D01*
X0385401Y0032052D01*
X0385885Y0031569D01*
X0381778Y0031569D02*
X0381294Y0032052D01*
X0379843Y0032052D01*
X0379843Y0029150D01*
X0381294Y0029150D01*
X0381778Y0029634D01*
X0381778Y0031569D01*
X0378831Y0032052D02*
X0378831Y0029150D01*
X0376897Y0032052D01*
X0376897Y0029150D01*
X0375885Y0029634D02*
X0375885Y0030601D01*
X0374917Y0030601D01*
X0373950Y0029634D02*
X0374434Y0029150D01*
X0375401Y0029150D01*
X0375885Y0029634D01*
X0375885Y0031569D02*
X0375401Y0032052D01*
X0374434Y0032052D01*
X0373950Y0031569D01*
X0373950Y0029634D01*
X0441950Y0040634D02*
X0442434Y0040150D01*
X0443401Y0040150D01*
X0443885Y0040634D01*
X0443885Y0041601D01*
X0442917Y0041601D01*
X0441950Y0040634D02*
X0441950Y0042569D01*
X0442434Y0043052D01*
X0443401Y0043052D01*
X0443885Y0042569D01*
X0444897Y0043052D02*
X0446831Y0040150D01*
X0446831Y0043052D01*
X0447843Y0043052D02*
X0449294Y0043052D01*
X0449778Y0042569D01*
X0449778Y0040634D01*
X0449294Y0040150D01*
X0447843Y0040150D01*
X0447843Y0043052D01*
X0444897Y0043052D02*
X0444897Y0040150D01*
X0289736Y0066002D02*
X0287267Y0066002D01*
X0289118Y0067853D01*
X0289118Y0064150D01*
X0286052Y0064767D02*
X0285435Y0064150D01*
X0284201Y0064150D01*
X0283584Y0064767D01*
X0283584Y0067236D01*
X0284201Y0067853D01*
X0285435Y0067853D01*
X0286052Y0067236D01*
X0252736Y0066002D02*
X0252736Y0064767D01*
X0252118Y0064150D01*
X0250267Y0064150D01*
X0250267Y0062916D02*
X0250267Y0066619D01*
X0252118Y0066619D01*
X0252736Y0066002D01*
X0249052Y0067236D02*
X0246584Y0064767D01*
X0247201Y0064150D01*
X0248435Y0064150D01*
X0249052Y0064767D01*
X0249052Y0067236D01*
X0248435Y0067853D01*
X0247201Y0067853D01*
X0246584Y0067236D01*
X0246584Y0064767D01*
X0245369Y0067236D02*
X0242901Y0064767D01*
X0242901Y0064150D01*
X0241069Y0064150D02*
X0241069Y0067853D01*
X0239217Y0066002D01*
X0241686Y0066002D01*
X0242901Y0067853D02*
X0245369Y0067853D01*
X0245369Y0067236D01*
X0249201Y0094150D02*
X0250435Y0094150D01*
X0251052Y0094767D01*
X0252267Y0094767D02*
X0252884Y0094150D01*
X0254118Y0094150D01*
X0254736Y0094767D01*
X0254736Y0095384D01*
X0254118Y0096002D01*
X0253501Y0096002D01*
X0254118Y0096002D02*
X0254736Y0096619D01*
X0254736Y0097236D01*
X0254118Y0097853D01*
X0252884Y0097853D01*
X0252267Y0097236D01*
X0251052Y0097236D02*
X0250435Y0097853D01*
X0249201Y0097853D01*
X0248584Y0097236D01*
X0248584Y0094767D01*
X0249201Y0094150D01*
X0216736Y0094150D02*
X0216736Y0096619D01*
X0216736Y0094150D02*
X0214884Y0094150D01*
X0214267Y0094767D01*
X0214267Y0096619D01*
X0211818Y0097853D02*
X0211818Y0094150D01*
X0210584Y0094150D02*
X0213052Y0094150D01*
X0210584Y0096619D02*
X0211818Y0097853D01*
X0240217Y0121002D02*
X0242686Y0121002D01*
X0243901Y0119767D02*
X0243901Y0119150D01*
X0243901Y0119767D02*
X0246369Y0122236D01*
X0246369Y0122853D01*
X0243901Y0122853D01*
X0242069Y0122853D02*
X0240217Y0121002D01*
X0242069Y0122853D02*
X0242069Y0119150D01*
X0247584Y0119767D02*
X0250052Y0122236D01*
X0250052Y0119767D01*
X0249435Y0119150D01*
X0248201Y0119150D01*
X0247584Y0119767D01*
X0247584Y0122236D01*
X0248201Y0122853D01*
X0249435Y0122853D01*
X0250052Y0122236D01*
X0251267Y0121619D02*
X0253118Y0121619D01*
X0253736Y0121002D01*
X0253736Y0119767D01*
X0253118Y0119150D01*
X0251267Y0119150D01*
X0251267Y0117916D02*
X0251267Y0121619D01*
X0282584Y0121236D02*
X0282584Y0118767D01*
X0283201Y0118150D01*
X0284435Y0118150D01*
X0285052Y0118767D01*
X0286267Y0118150D02*
X0288736Y0120619D01*
X0288736Y0121236D01*
X0288118Y0121853D01*
X0286884Y0121853D01*
X0286267Y0121236D01*
X0285052Y0121236D02*
X0284435Y0121853D01*
X0283201Y0121853D01*
X0282584Y0121236D01*
X0286267Y0118150D02*
X0288736Y0118150D01*
X0254536Y0149150D02*
X0252067Y0149150D01*
X0253301Y0149150D02*
X0253301Y0152853D01*
X0252067Y0151619D01*
X0250852Y0152236D02*
X0250235Y0152853D01*
X0249001Y0152853D01*
X0248384Y0152236D01*
X0248384Y0149767D01*
X0249001Y0149150D01*
X0250235Y0149150D01*
X0250852Y0149767D01*
X0216536Y0149150D02*
X0216536Y0151619D01*
X0216536Y0149150D02*
X0214684Y0149150D01*
X0214067Y0149767D01*
X0214067Y0151619D01*
X0211618Y0152853D02*
X0211618Y0149150D01*
X0210384Y0149150D02*
X0212852Y0149150D01*
X0210384Y0151619D02*
X0211618Y0152853D01*
X0076117Y0092753D02*
X0073648Y0092753D01*
X0074882Y0092753D02*
X0074882Y0089050D01*
X0072433Y0089050D02*
X0069965Y0089050D01*
X0069965Y0092753D01*
X0068750Y0092136D02*
X0068133Y0092753D01*
X0066899Y0092753D01*
X0066281Y0092136D01*
X0066281Y0091519D01*
X0066899Y0090902D01*
X0068133Y0090902D01*
X0068750Y0090284D01*
X0068750Y0089667D01*
X0068133Y0089050D01*
X0066899Y0089050D01*
X0066281Y0089667D01*
X0065067Y0089050D02*
X0063215Y0090902D01*
X0062598Y0090284D02*
X0065067Y0092753D01*
X0062598Y0092753D02*
X0062598Y0089050D01*
X0061384Y0089667D02*
X0060767Y0089050D01*
X0059532Y0089050D01*
X0058915Y0089667D01*
X0058915Y0092136D01*
X0059532Y0092753D01*
X0060767Y0092753D01*
X0061384Y0092136D01*
X0057701Y0091519D02*
X0057701Y0089050D01*
X0057701Y0090902D02*
X0055232Y0090902D01*
X0055232Y0091519D02*
X0056466Y0092753D01*
X0057701Y0091519D01*
X0055232Y0091519D02*
X0055232Y0089050D01*
X0053400Y0089667D02*
X0052783Y0089050D01*
X0052166Y0089050D01*
X0051549Y0089667D01*
X0050334Y0088433D02*
X0047866Y0088433D01*
X0046651Y0089050D02*
X0045417Y0090284D01*
X0046034Y0090284D02*
X0044183Y0090284D01*
X0044183Y0089050D02*
X0044183Y0092753D01*
X0046034Y0092753D01*
X0046651Y0092136D01*
X0046651Y0090902D01*
X0046034Y0090284D01*
X0042968Y0089050D02*
X0040499Y0089050D01*
X0040499Y0092753D01*
X0042968Y0092753D01*
X0041734Y0090902D02*
X0040499Y0090902D01*
X0039285Y0092753D02*
X0039285Y0089050D01*
X0038051Y0090284D01*
X0036816Y0089050D01*
X0036816Y0092753D01*
X0035602Y0092136D02*
X0034985Y0092753D01*
X0033750Y0092753D01*
X0033133Y0092136D01*
X0033133Y0089667D01*
X0033750Y0089050D01*
X0034985Y0089050D01*
X0035602Y0089667D01*
X0035602Y0092136D01*
X0031919Y0092136D02*
X0031302Y0092753D01*
X0029450Y0092753D01*
X0029450Y0089050D01*
X0029450Y0090284D02*
X0031302Y0090284D01*
X0031919Y0090902D01*
X0031919Y0092136D01*
X0052783Y0092753D02*
X0054018Y0092753D01*
X0053400Y0092753D02*
X0053400Y0089667D01*
X0082450Y0066519D02*
X0083067Y0066519D01*
X0083684Y0065902D01*
X0084302Y0066519D01*
X0084919Y0065902D01*
X0084919Y0064050D01*
X0086133Y0064050D02*
X0087368Y0064050D01*
X0086750Y0064050D02*
X0086750Y0066519D01*
X0086133Y0066519D01*
X0086750Y0067753D02*
X0086750Y0068370D01*
X0088589Y0066519D02*
X0090440Y0066519D01*
X0091057Y0065902D01*
X0091057Y0064050D01*
X0092272Y0064050D02*
X0093506Y0064050D01*
X0092889Y0064050D02*
X0092889Y0066519D01*
X0092272Y0066519D01*
X0092889Y0067753D02*
X0092889Y0068370D01*
X0094727Y0065902D02*
X0097196Y0065902D01*
X0098410Y0067753D02*
X0098410Y0064050D01*
X0100262Y0064050D01*
X0100879Y0064667D01*
X0100879Y0067136D01*
X0100262Y0067753D01*
X0098410Y0067753D01*
X0102093Y0066519D02*
X0102093Y0064050D01*
X0102093Y0065284D02*
X0103328Y0066519D01*
X0103945Y0066519D01*
X0105163Y0065902D02*
X0105163Y0064667D01*
X0105780Y0064050D01*
X0107014Y0064050D01*
X0107631Y0064667D01*
X0107631Y0065902D01*
X0107014Y0066519D01*
X0105780Y0066519D01*
X0105163Y0065902D01*
X0108846Y0066519D02*
X0108846Y0062816D01*
X0108846Y0064050D02*
X0110697Y0064050D01*
X0111315Y0064667D01*
X0111315Y0065902D01*
X0110697Y0066519D01*
X0108846Y0066519D01*
X0112529Y0065902D02*
X0114998Y0065902D01*
X0116212Y0065902D02*
X0116829Y0066519D01*
X0118681Y0066519D01*
X0119895Y0065902D02*
X0120512Y0066519D01*
X0121747Y0066519D01*
X0122364Y0065902D01*
X0122364Y0065284D01*
X0119895Y0065284D01*
X0119895Y0064667D02*
X0119895Y0065902D01*
X0119895Y0064667D02*
X0120512Y0064050D01*
X0121747Y0064050D01*
X0123578Y0064667D02*
X0124196Y0064050D01*
X0126047Y0064050D01*
X0126047Y0062816D02*
X0126047Y0066519D01*
X0124196Y0066519D01*
X0123578Y0065902D01*
X0123578Y0064667D01*
X0130945Y0064667D02*
X0130945Y0067136D01*
X0131562Y0067753D01*
X0132796Y0067753D01*
X0133413Y0067136D01*
X0134628Y0065902D02*
X0135245Y0066519D01*
X0136479Y0066519D01*
X0137097Y0065902D01*
X0137097Y0064667D01*
X0136479Y0064050D01*
X0135245Y0064050D01*
X0134628Y0064667D01*
X0134628Y0065902D01*
X0133413Y0064667D02*
X0132796Y0064050D01*
X0131562Y0064050D01*
X0130945Y0064667D01*
X0128656Y0059453D02*
X0127421Y0059453D01*
X0126804Y0058836D01*
X0126804Y0058219D01*
X0127421Y0057602D01*
X0128656Y0057602D01*
X0129273Y0056984D01*
X0129273Y0056367D01*
X0128656Y0055750D01*
X0127421Y0055750D01*
X0126804Y0056367D01*
X0129273Y0058836D02*
X0128656Y0059453D01*
X0130487Y0058219D02*
X0131722Y0058219D01*
X0131105Y0058836D02*
X0131105Y0056367D01*
X0131722Y0055750D01*
X0132943Y0056367D02*
X0132943Y0057602D01*
X0133560Y0058219D01*
X0134794Y0058219D01*
X0135412Y0057602D01*
X0135412Y0056984D01*
X0132943Y0056984D01*
X0132943Y0056367D02*
X0133560Y0055750D01*
X0134794Y0055750D01*
X0136626Y0055750D02*
X0138478Y0055750D01*
X0139095Y0056367D01*
X0139095Y0057602D01*
X0138478Y0058219D01*
X0136626Y0058219D01*
X0136626Y0054516D01*
X0140309Y0055750D02*
X0140309Y0059453D01*
X0140926Y0058219D02*
X0142161Y0058219D01*
X0142778Y0057602D01*
X0142778Y0055750D01*
X0143992Y0056367D02*
X0143992Y0057602D01*
X0144609Y0058219D01*
X0145844Y0058219D01*
X0146461Y0057602D01*
X0146461Y0056984D01*
X0143992Y0056984D01*
X0143992Y0056367D02*
X0144609Y0055750D01*
X0145844Y0055750D01*
X0147675Y0055750D02*
X0147675Y0058219D01*
X0149527Y0058219D01*
X0150144Y0057602D01*
X0150144Y0055750D01*
X0151359Y0055750D02*
X0153210Y0055750D01*
X0153827Y0056367D01*
X0153210Y0056984D01*
X0151976Y0056984D01*
X0151359Y0057602D01*
X0151976Y0058219D01*
X0153827Y0058219D01*
X0155042Y0057602D02*
X0155659Y0058219D01*
X0156893Y0058219D01*
X0157510Y0057602D01*
X0157510Y0056367D01*
X0156893Y0055750D01*
X0155659Y0055750D01*
X0155042Y0056367D01*
X0155042Y0057602D01*
X0158725Y0058219D02*
X0160576Y0058219D01*
X0161194Y0057602D01*
X0161194Y0055750D01*
X0158725Y0055750D02*
X0158725Y0058219D01*
X0159192Y0064050D02*
X0157341Y0064050D01*
X0157341Y0067753D01*
X0159192Y0067753D01*
X0159809Y0067136D01*
X0159809Y0066519D01*
X0159192Y0065902D01*
X0157341Y0065902D01*
X0159192Y0065902D02*
X0159809Y0065284D01*
X0159809Y0064667D01*
X0159192Y0064050D01*
X0161024Y0064667D02*
X0161641Y0064050D01*
X0162875Y0064050D01*
X0163492Y0064667D01*
X0163492Y0065902D01*
X0162875Y0066519D01*
X0161641Y0066519D01*
X0161024Y0065902D01*
X0161024Y0064667D01*
X0164707Y0064667D02*
X0165324Y0065284D01*
X0167176Y0065284D01*
X0167176Y0065902D02*
X0167176Y0064050D01*
X0165324Y0064050D01*
X0164707Y0064667D01*
X0165324Y0066519D02*
X0166558Y0066519D01*
X0167176Y0065902D01*
X0168390Y0066519D02*
X0168390Y0064050D01*
X0168390Y0065284D02*
X0169624Y0066519D01*
X0170242Y0066519D01*
X0171459Y0065902D02*
X0172076Y0066519D01*
X0173928Y0066519D01*
X0173928Y0067753D02*
X0173928Y0064050D01*
X0172076Y0064050D01*
X0171459Y0064667D01*
X0171459Y0065902D01*
X0178826Y0066519D02*
X0180060Y0064050D01*
X0181294Y0066519D01*
X0182509Y0067136D02*
X0183126Y0067753D01*
X0184360Y0067753D01*
X0184977Y0067136D01*
X0184977Y0066519D01*
X0182509Y0064050D01*
X0184977Y0064050D01*
X0186192Y0064050D02*
X0186809Y0064050D01*
X0186809Y0064667D01*
X0186192Y0064667D01*
X0186192Y0064050D01*
X0188033Y0064667D02*
X0190502Y0067136D01*
X0190502Y0064667D01*
X0189885Y0064050D01*
X0188651Y0064050D01*
X0188033Y0064667D01*
X0188033Y0067136D01*
X0188651Y0067753D01*
X0189885Y0067753D01*
X0190502Y0067136D01*
X0156669Y0049719D02*
X0156669Y0046633D01*
X0156052Y0046016D01*
X0155435Y0046016D01*
X0154817Y0047250D02*
X0156669Y0047250D01*
X0154817Y0047250D02*
X0154200Y0047867D01*
X0154200Y0049102D01*
X0154817Y0049719D01*
X0156669Y0049719D01*
X0152982Y0049719D02*
X0152365Y0049719D01*
X0151131Y0048484D01*
X0151131Y0047250D02*
X0151131Y0049719D01*
X0149917Y0049102D02*
X0149299Y0049719D01*
X0148065Y0049719D01*
X0147448Y0049102D01*
X0147448Y0047867D01*
X0148065Y0047250D01*
X0149299Y0047250D01*
X0149917Y0047867D01*
X0149917Y0049102D01*
X0146223Y0047867D02*
X0146223Y0047250D01*
X0145606Y0047250D01*
X0145606Y0047867D01*
X0146223Y0047867D01*
X0144392Y0048484D02*
X0141923Y0048484D01*
X0141923Y0047867D02*
X0141923Y0049102D01*
X0142540Y0049719D01*
X0143775Y0049719D01*
X0144392Y0049102D01*
X0144392Y0048484D01*
X0143775Y0047250D02*
X0142540Y0047250D01*
X0141923Y0047867D01*
X0140709Y0047250D02*
X0140709Y0049102D01*
X0140091Y0049719D01*
X0139474Y0049102D01*
X0139474Y0047250D01*
X0138240Y0047250D02*
X0138240Y0049719D01*
X0138857Y0049719D01*
X0139474Y0049102D01*
X0137026Y0049102D02*
X0137026Y0047867D01*
X0136408Y0047250D01*
X0135174Y0047250D01*
X0134557Y0047867D01*
X0134557Y0049102D01*
X0135174Y0049719D01*
X0136408Y0049719D01*
X0137026Y0049102D01*
X0133342Y0049102D02*
X0133342Y0047250D01*
X0133342Y0049102D02*
X0132725Y0049719D01*
X0130874Y0049719D01*
X0130874Y0047250D01*
X0129659Y0048484D02*
X0127190Y0048484D01*
X0127190Y0047867D02*
X0127190Y0049102D01*
X0127808Y0049719D01*
X0129042Y0049719D01*
X0129659Y0049102D01*
X0129659Y0048484D01*
X0129042Y0047250D02*
X0127808Y0047250D01*
X0127190Y0047867D01*
X0125976Y0047250D02*
X0124124Y0047250D01*
X0123507Y0047867D01*
X0123507Y0049102D01*
X0124124Y0049719D01*
X0125976Y0049719D01*
X0125976Y0046633D01*
X0125359Y0046016D01*
X0124742Y0046016D01*
X0122293Y0046633D02*
X0121676Y0046016D01*
X0121059Y0046016D01*
X0122293Y0046633D02*
X0122293Y0049719D01*
X0119824Y0049719D02*
X0119824Y0047867D01*
X0120441Y0047250D01*
X0122293Y0047250D01*
X0118610Y0047250D02*
X0118610Y0049102D01*
X0117993Y0049719D01*
X0116141Y0049719D01*
X0116141Y0047250D01*
X0114917Y0047250D02*
X0114299Y0047250D01*
X0114299Y0047867D01*
X0114917Y0047867D01*
X0114917Y0047250D01*
X0113085Y0047867D02*
X0113085Y0049719D01*
X0113085Y0047867D02*
X0112468Y0047250D01*
X0111851Y0047867D01*
X0111233Y0047250D01*
X0110616Y0047867D01*
X0110616Y0049719D01*
X0109402Y0049719D02*
X0109402Y0047867D01*
X0108785Y0047250D01*
X0108168Y0047867D01*
X0107550Y0047250D01*
X0106933Y0047867D01*
X0106933Y0049719D01*
X0105719Y0049719D02*
X0105719Y0047867D01*
X0105102Y0047250D01*
X0104484Y0047867D01*
X0103867Y0047250D01*
X0103250Y0047867D01*
X0103250Y0049719D01*
X0102250Y0055750D02*
X0103484Y0056984D01*
X0104719Y0055750D01*
X0104719Y0059453D01*
X0105933Y0058219D02*
X0106550Y0058219D01*
X0106550Y0055750D01*
X0105933Y0055750D02*
X0107168Y0055750D01*
X0108389Y0055750D02*
X0109623Y0055750D01*
X0109006Y0055750D02*
X0109006Y0059453D01*
X0108389Y0059453D01*
X0106550Y0059453D02*
X0106550Y0060070D01*
X0110844Y0059453D02*
X0111461Y0059453D01*
X0111461Y0055750D01*
X0110844Y0055750D02*
X0112078Y0055750D01*
X0113299Y0055750D02*
X0114534Y0055750D01*
X0113917Y0055750D02*
X0113917Y0058219D01*
X0113299Y0058219D01*
X0113917Y0059453D02*
X0113917Y0060070D01*
X0116372Y0058219D02*
X0117606Y0058219D01*
X0118224Y0057602D01*
X0118224Y0055750D01*
X0116372Y0055750D01*
X0115755Y0056367D01*
X0116372Y0056984D01*
X0118224Y0056984D01*
X0119438Y0055750D02*
X0119438Y0058219D01*
X0120055Y0058219D01*
X0120672Y0057602D01*
X0121290Y0058219D01*
X0121907Y0057602D01*
X0121907Y0055750D01*
X0120672Y0055750D02*
X0120672Y0057602D01*
X0118064Y0064050D02*
X0118681Y0064667D01*
X0118064Y0065284D01*
X0116829Y0065284D01*
X0116212Y0065902D01*
X0116212Y0064050D02*
X0118064Y0064050D01*
X0102250Y0059453D02*
X0102250Y0055750D01*
X0088589Y0064050D02*
X0088589Y0066519D01*
X0083684Y0065902D02*
X0083684Y0064050D01*
X0082450Y0064050D02*
X0082450Y0066519D01*
X0138311Y0066519D02*
X0138311Y0064050D01*
X0138311Y0066519D02*
X0140163Y0066519D01*
X0140780Y0065902D01*
X0140780Y0064050D01*
X0142611Y0064667D02*
X0142611Y0067136D01*
X0141994Y0066519D02*
X0143229Y0066519D01*
X0144450Y0066519D02*
X0144450Y0064050D01*
X0143229Y0064050D02*
X0142611Y0064667D01*
X0144450Y0065284D02*
X0145684Y0066519D01*
X0146301Y0066519D01*
X0147519Y0065902D02*
X0147519Y0064667D01*
X0148136Y0064050D01*
X0149370Y0064050D01*
X0149988Y0064667D01*
X0149988Y0065902D01*
X0149370Y0066519D01*
X0148136Y0066519D01*
X0147519Y0065902D01*
X0151202Y0067753D02*
X0151819Y0067753D01*
X0151819Y0064050D01*
X0151202Y0064050D02*
X0152436Y0064050D01*
X0140926Y0058219D02*
X0140309Y0057602D01*
X0050978Y0142134D02*
X0050978Y0144069D01*
X0050494Y0144552D01*
X0049043Y0144552D01*
X0049043Y0141650D01*
X0050494Y0141650D01*
X0050978Y0142134D01*
X0048031Y0141650D02*
X0048031Y0144552D01*
X0046097Y0144552D02*
X0046097Y0141650D01*
X0045085Y0142134D02*
X0045085Y0143101D01*
X0044117Y0143101D01*
X0043150Y0142134D02*
X0043634Y0141650D01*
X0044601Y0141650D01*
X0045085Y0142134D01*
X0045085Y0144069D02*
X0044601Y0144552D01*
X0043634Y0144552D01*
X0043150Y0144069D01*
X0043150Y0142134D01*
X0046097Y0144552D02*
X0048031Y0141650D01*
X0089434Y0260150D02*
X0090401Y0260150D01*
X0090885Y0260634D01*
X0090885Y0261601D01*
X0089917Y0261601D01*
X0088950Y0260634D02*
X0089434Y0260150D01*
X0088950Y0260634D02*
X0088950Y0262569D01*
X0089434Y0263052D01*
X0090401Y0263052D01*
X0090885Y0262569D01*
X0091897Y0263052D02*
X0093831Y0260150D01*
X0093831Y0263052D01*
X0094843Y0263052D02*
X0096294Y0263052D01*
X0096778Y0262569D01*
X0096778Y0260634D01*
X0096294Y0260150D01*
X0094843Y0260150D01*
X0094843Y0263052D01*
X0091897Y0263052D02*
X0091897Y0260150D01*
X0159950Y0261634D02*
X0160434Y0261150D01*
X0161401Y0261150D01*
X0161885Y0261634D01*
X0161885Y0262601D01*
X0160917Y0262601D01*
X0159950Y0261634D02*
X0159950Y0263569D01*
X0160434Y0264052D01*
X0161401Y0264052D01*
X0161885Y0263569D01*
X0162897Y0264052D02*
X0164831Y0261150D01*
X0164831Y0264052D01*
X0165843Y0264052D02*
X0167294Y0264052D01*
X0167778Y0263569D01*
X0167778Y0261634D01*
X0167294Y0261150D01*
X0165843Y0261150D01*
X0165843Y0264052D01*
X0162897Y0264052D02*
X0162897Y0261150D01*
X0339050Y0235652D02*
X0339050Y0232750D01*
X0339050Y0233717D02*
X0340501Y0233717D01*
X0340985Y0234201D01*
X0340985Y0235169D01*
X0340501Y0235652D01*
X0339050Y0235652D01*
X0340017Y0233717D02*
X0340985Y0232750D01*
X0341997Y0232750D02*
X0341997Y0234685D01*
X0342964Y0235652D01*
X0343931Y0234685D01*
X0343931Y0232750D01*
X0344943Y0233234D02*
X0345427Y0232750D01*
X0346394Y0232750D01*
X0346878Y0233234D01*
X0346878Y0233717D01*
X0346394Y0234201D01*
X0345427Y0234201D01*
X0344943Y0234685D01*
X0344943Y0235169D01*
X0345427Y0235652D01*
X0346394Y0235652D01*
X0346878Y0235169D01*
X0347890Y0235652D02*
X0349341Y0235652D01*
X0349825Y0235169D01*
X0349825Y0234201D01*
X0349341Y0233717D01*
X0347890Y0233717D01*
X0347890Y0232750D02*
X0347890Y0235652D01*
X0350836Y0235652D02*
X0352287Y0235652D01*
X0352771Y0235169D01*
X0352771Y0234685D01*
X0352287Y0234201D01*
X0350836Y0234201D01*
X0350836Y0232750D02*
X0350836Y0235652D01*
X0352287Y0234201D02*
X0352771Y0233717D01*
X0352771Y0233234D01*
X0352287Y0232750D01*
X0350836Y0232750D01*
X0353783Y0232750D02*
X0353783Y0235652D01*
X0355718Y0235652D01*
X0356729Y0235652D02*
X0356729Y0232750D01*
X0356729Y0233717D02*
X0358180Y0233717D01*
X0358664Y0234201D01*
X0358664Y0235169D01*
X0358180Y0235652D01*
X0356729Y0235652D01*
X0357697Y0233717D02*
X0358664Y0232750D01*
X0359676Y0232750D02*
X0359676Y0235652D01*
X0361127Y0235652D01*
X0361611Y0235169D01*
X0361611Y0234201D01*
X0361127Y0233717D01*
X0359676Y0233717D01*
X0360643Y0233717D02*
X0361611Y0232750D01*
X0363590Y0232750D02*
X0363590Y0234201D01*
X0364557Y0235169D01*
X0364557Y0235652D01*
X0365569Y0235652D02*
X0367020Y0235652D01*
X0367504Y0235169D01*
X0367504Y0234201D01*
X0367020Y0233717D01*
X0365569Y0233717D01*
X0365569Y0232750D02*
X0365569Y0235652D01*
X0363590Y0234201D02*
X0362622Y0235169D01*
X0362622Y0235652D01*
X0368515Y0235652D02*
X0369483Y0235652D01*
X0368999Y0235652D02*
X0368999Y0232750D01*
X0368515Y0232750D02*
X0369483Y0232750D01*
X0370480Y0234201D02*
X0372415Y0234201D01*
X0373426Y0234201D02*
X0375361Y0234201D01*
X0376373Y0233234D02*
X0378308Y0235169D01*
X0378308Y0233234D01*
X0377824Y0232750D01*
X0376856Y0232750D01*
X0376373Y0233234D01*
X0376373Y0235169D01*
X0376856Y0235652D01*
X0377824Y0235652D01*
X0378308Y0235169D01*
X0379319Y0234201D02*
X0381254Y0234201D01*
X0382266Y0233717D02*
X0383717Y0233717D01*
X0384201Y0234201D01*
X0384201Y0235169D01*
X0383717Y0235652D01*
X0382266Y0235652D01*
X0382266Y0232750D01*
X0385212Y0232750D02*
X0386180Y0232750D01*
X0385696Y0232750D02*
X0385696Y0235652D01*
X0385212Y0235652D02*
X0386180Y0235652D01*
X0387176Y0235652D02*
X0389111Y0232750D01*
X0389111Y0235652D01*
X0390123Y0234201D02*
X0392058Y0234201D01*
X0393070Y0233234D02*
X0393070Y0235169D01*
X0393553Y0235652D01*
X0394521Y0235652D01*
X0395004Y0235169D01*
X0395004Y0234201D02*
X0394037Y0234201D01*
X0395004Y0234201D02*
X0395004Y0233234D01*
X0394521Y0232750D01*
X0393553Y0232750D01*
X0393070Y0233234D01*
X0396016Y0233717D02*
X0397467Y0233717D01*
X0397951Y0234201D01*
X0397951Y0235169D01*
X0397467Y0235652D01*
X0396016Y0235652D01*
X0396016Y0232750D01*
X0398963Y0232750D02*
X0399930Y0232750D01*
X0399446Y0232750D02*
X0399446Y0235652D01*
X0398963Y0235652D02*
X0399930Y0235652D01*
X0400927Y0235169D02*
X0400927Y0233234D01*
X0401411Y0232750D01*
X0402378Y0232750D01*
X0402862Y0233234D01*
X0402862Y0235169D01*
X0402378Y0235652D01*
X0401411Y0235652D01*
X0400927Y0235169D01*
X0387176Y0235652D02*
X0387176Y0232750D01*
X0374877Y0232750D02*
X0374877Y0235652D01*
X0373426Y0234201D01*
X0355718Y0232750D02*
X0353783Y0232750D01*
X0353783Y0234201D02*
X0354750Y0234201D01*
X0343931Y0234201D02*
X0341997Y0234201D01*
X0419950Y0196569D02*
X0420434Y0197052D01*
X0421401Y0197052D01*
X0421885Y0196569D01*
X0421885Y0196085D01*
X0421401Y0195601D01*
X0421885Y0195117D01*
X0421885Y0194634D01*
X0421401Y0194150D01*
X0420434Y0194150D01*
X0419950Y0194634D01*
X0420917Y0195601D02*
X0421401Y0195601D01*
X0422897Y0196085D02*
X0423864Y0194150D01*
X0424831Y0196085D01*
X0425843Y0196569D02*
X0426327Y0197052D01*
X0427294Y0197052D01*
X0427778Y0196569D01*
X0427778Y0196085D01*
X0427294Y0195601D01*
X0427778Y0195117D01*
X0427778Y0194634D01*
X0427294Y0194150D01*
X0426327Y0194150D01*
X0425843Y0194634D01*
X0426811Y0195601D02*
X0427294Y0195601D01*
X0450950Y0195634D02*
X0451434Y0195150D01*
X0452401Y0195150D01*
X0452885Y0195634D01*
X0452885Y0196601D01*
X0451917Y0196601D01*
X0450950Y0195634D02*
X0450950Y0197569D01*
X0451434Y0198052D01*
X0452401Y0198052D01*
X0452885Y0197569D01*
X0453897Y0198052D02*
X0455831Y0195150D01*
X0455831Y0198052D01*
X0456843Y0198052D02*
X0458294Y0198052D01*
X0458778Y0197569D01*
X0458778Y0195634D01*
X0458294Y0195150D01*
X0456843Y0195150D01*
X0456843Y0198052D01*
X0453897Y0198052D02*
X0453897Y0195150D01*
D13*
X0354977Y0173437D02*
X0354977Y0172669D01*
X0351908Y0169600D01*
X0354977Y0169600D01*
X0350373Y0170367D02*
X0349606Y0169600D01*
X0348071Y0169600D01*
X0347304Y0170367D01*
X0348071Y0171902D02*
X0349606Y0171902D01*
X0350373Y0171135D01*
X0350373Y0170367D01*
X0348071Y0171902D02*
X0347304Y0172669D01*
X0347304Y0173437D01*
X0348071Y0174204D01*
X0349606Y0174204D01*
X0350373Y0173437D01*
X0351908Y0173437D02*
X0352675Y0174204D01*
X0354210Y0174204D01*
X0354977Y0173437D01*
X0345769Y0173437D02*
X0345769Y0171902D01*
X0345002Y0171135D01*
X0342700Y0171135D01*
X0342700Y0169600D02*
X0342700Y0174204D01*
X0345002Y0174204D01*
X0345769Y0173437D01*
X0292806Y0134170D02*
X0290504Y0131868D01*
X0293573Y0131868D01*
X0292806Y0129566D02*
X0292806Y0134170D01*
X0288969Y0133403D02*
X0285900Y0130333D01*
X0286667Y0129566D01*
X0288202Y0129566D01*
X0288969Y0130333D01*
X0288969Y0133403D01*
X0288202Y0134170D01*
X0286667Y0134170D01*
X0285900Y0133403D01*
X0285900Y0130333D01*
X0284365Y0129566D02*
X0281296Y0129566D01*
X0282831Y0129566D02*
X0282831Y0134170D01*
X0281296Y0132635D01*
X0279761Y0131101D02*
X0278227Y0129566D01*
X0276692Y0131101D01*
X0276692Y0134170D01*
X0275157Y0133403D02*
X0275157Y0131868D01*
X0274390Y0131101D01*
X0272088Y0131101D01*
X0273623Y0131101D02*
X0275157Y0129566D01*
X0272088Y0129566D02*
X0272088Y0134170D01*
X0274390Y0134170D01*
X0275157Y0133403D01*
X0270554Y0133403D02*
X0270554Y0130333D01*
X0269786Y0129566D01*
X0267484Y0129566D01*
X0267484Y0134170D01*
X0269786Y0134170D01*
X0270554Y0133403D01*
X0279761Y0134170D02*
X0279761Y0131101D01*
X0278227Y0112320D02*
X0276692Y0111552D01*
X0275157Y0110018D01*
X0277459Y0110018D01*
X0278227Y0109250D01*
X0278227Y0108483D01*
X0277459Y0107716D01*
X0275925Y0107716D01*
X0275157Y0108483D01*
X0275157Y0110018D01*
X0273623Y0111552D02*
X0272855Y0112320D01*
X0271321Y0112320D01*
X0270554Y0111552D01*
X0270554Y0108483D01*
X0271321Y0107716D01*
X0272855Y0107716D01*
X0273623Y0108483D01*
X0269019Y0107716D02*
X0267484Y0107716D01*
X0268252Y0107716D02*
X0268252Y0112320D01*
X0269019Y0112320D02*
X0267484Y0112320D01*
X0267484Y0084170D02*
X0269786Y0084170D01*
X0270554Y0083403D01*
X0270554Y0080333D01*
X0269786Y0079566D01*
X0267484Y0079566D01*
X0267484Y0084170D01*
X0272088Y0084170D02*
X0274390Y0084170D01*
X0275157Y0083403D01*
X0275157Y0081868D01*
X0274390Y0081101D01*
X0272088Y0081101D01*
X0273623Y0081101D02*
X0275157Y0079566D01*
X0276692Y0081101D02*
X0278227Y0079566D01*
X0279761Y0081101D01*
X0279761Y0084170D01*
X0281296Y0082635D02*
X0282831Y0084170D01*
X0282831Y0079566D01*
X0284365Y0079566D02*
X0281296Y0079566D01*
X0285900Y0080333D02*
X0288969Y0083403D01*
X0288969Y0080333D01*
X0288202Y0079566D01*
X0286667Y0079566D01*
X0285900Y0080333D01*
X0285900Y0083403D01*
X0286667Y0084170D01*
X0288202Y0084170D01*
X0288969Y0083403D01*
X0290504Y0081868D02*
X0292806Y0084170D01*
X0292806Y0079566D01*
X0293573Y0081868D02*
X0290504Y0081868D01*
X0276692Y0081101D02*
X0276692Y0084170D01*
X0272088Y0084170D02*
X0272088Y0079566D01*
X0342700Y0109600D02*
X0342700Y0114204D01*
X0345002Y0114204D01*
X0345769Y0113437D01*
X0345769Y0111902D01*
X0345002Y0111135D01*
X0342700Y0111135D01*
X0347304Y0110367D02*
X0348071Y0109600D01*
X0349606Y0109600D01*
X0350373Y0110367D01*
X0350373Y0111135D01*
X0349606Y0111902D01*
X0348071Y0111902D01*
X0347304Y0112669D01*
X0347304Y0113437D01*
X0348071Y0114204D01*
X0349606Y0114204D01*
X0350373Y0113437D01*
X0351908Y0112669D02*
X0353442Y0114204D01*
X0353442Y0109600D01*
X0351908Y0109600D02*
X0354977Y0109600D01*
X0278227Y0158483D02*
X0277459Y0157716D01*
X0275925Y0157716D01*
X0275157Y0158483D01*
X0273623Y0158483D02*
X0272855Y0157716D01*
X0271321Y0157716D01*
X0270554Y0158483D01*
X0270554Y0161552D01*
X0271321Y0162320D01*
X0272855Y0162320D01*
X0273623Y0161552D01*
X0275157Y0162320D02*
X0275157Y0160018D01*
X0276692Y0160785D01*
X0277459Y0160785D01*
X0278227Y0160018D01*
X0278227Y0158483D01*
X0278227Y0162320D02*
X0275157Y0162320D01*
X0269019Y0162320D02*
X0267484Y0162320D01*
X0268252Y0162320D02*
X0268252Y0157716D01*
X0269019Y0157716D02*
X0267484Y0157716D01*
X0172007Y0075537D02*
X0172007Y0072467D01*
X0172775Y0071700D01*
X0174309Y0072467D02*
X0175077Y0071700D01*
X0176611Y0071700D01*
X0177378Y0073235D02*
X0174309Y0073235D01*
X0174309Y0074002D02*
X0175077Y0074769D01*
X0176611Y0074769D01*
X0177378Y0074002D01*
X0177378Y0073235D01*
X0178913Y0073235D02*
X0180448Y0074769D01*
X0181215Y0074769D01*
X0178913Y0074769D02*
X0178913Y0071700D01*
X0174309Y0072467D02*
X0174309Y0074002D01*
X0172775Y0074769D02*
X0171240Y0074769D01*
X0169705Y0074002D02*
X0169705Y0071700D01*
X0169705Y0074002D02*
X0168938Y0074769D01*
X0166636Y0074769D01*
X0166636Y0071700D01*
X0165101Y0073235D02*
X0162032Y0073235D01*
X0162032Y0074002D02*
X0162799Y0074769D01*
X0164334Y0074769D01*
X0165101Y0074002D01*
X0165101Y0073235D01*
X0164334Y0071700D02*
X0162799Y0071700D01*
X0162032Y0072467D01*
X0162032Y0074002D01*
X0160497Y0075537D02*
X0159730Y0076304D01*
X0158195Y0076304D01*
X0157428Y0075537D01*
X0157428Y0072467D01*
X0158195Y0071700D01*
X0159730Y0071700D01*
X0160497Y0072467D01*
X0151290Y0073235D02*
X0148220Y0073235D01*
X0148220Y0074002D02*
X0148988Y0074769D01*
X0150522Y0074769D01*
X0151290Y0074002D01*
X0151290Y0073235D01*
X0150522Y0071700D02*
X0148988Y0071700D01*
X0148220Y0072467D01*
X0148220Y0074002D01*
X0146686Y0074002D02*
X0146686Y0071700D01*
X0145151Y0071700D02*
X0145151Y0074002D01*
X0145918Y0074769D01*
X0146686Y0074002D01*
X0145151Y0074002D02*
X0144384Y0074769D01*
X0143616Y0074769D01*
X0143616Y0071700D01*
X0142082Y0072467D02*
X0142082Y0074002D01*
X0141314Y0074769D01*
X0139780Y0074769D01*
X0139012Y0074002D01*
X0139012Y0072467D01*
X0139780Y0071700D01*
X0141314Y0071700D01*
X0142082Y0072467D01*
X0137478Y0071700D02*
X0137478Y0074002D01*
X0136710Y0074769D01*
X0134409Y0074769D01*
X0134409Y0071700D01*
X0132874Y0073235D02*
X0129805Y0073235D01*
X0129805Y0074002D02*
X0130572Y0074769D01*
X0132107Y0074769D01*
X0132874Y0074002D01*
X0132874Y0073235D01*
X0132107Y0071700D02*
X0130572Y0071700D01*
X0129805Y0072467D01*
X0129805Y0074002D01*
X0128270Y0074002D02*
X0126735Y0074002D01*
X0128270Y0074002D02*
X0128270Y0072467D01*
X0127503Y0071700D01*
X0125968Y0071700D01*
X0125201Y0072467D01*
X0125201Y0075537D01*
X0125968Y0076304D01*
X0127503Y0076304D01*
X0128270Y0075537D01*
X0119062Y0074769D02*
X0116760Y0073235D01*
X0119062Y0071700D01*
X0116760Y0071700D02*
X0116760Y0076304D01*
X0115226Y0074769D02*
X0114458Y0074769D01*
X0112924Y0073235D01*
X0112924Y0074769D02*
X0112924Y0071700D01*
X0111389Y0072467D02*
X0110622Y0071700D01*
X0109087Y0071700D01*
X0108320Y0072467D01*
X0108320Y0074002D01*
X0109087Y0074769D01*
X0110622Y0074769D01*
X0111389Y0074002D01*
X0111389Y0072467D01*
X0106785Y0075537D02*
X0106785Y0076304D01*
X0106785Y0075537D02*
X0105250Y0074002D01*
X0105250Y0071700D01*
X0105250Y0074002D02*
X0103716Y0075537D01*
X0103716Y0076304D01*
X0097577Y0074769D02*
X0097577Y0072467D01*
X0096810Y0071700D01*
X0096042Y0072467D01*
X0095275Y0071700D01*
X0094508Y0072467D01*
X0094508Y0074769D01*
X0092973Y0074002D02*
X0092973Y0073235D01*
X0089904Y0073235D01*
X0089904Y0074002D02*
X0090671Y0074769D01*
X0092206Y0074769D01*
X0092973Y0074002D01*
X0092206Y0071700D02*
X0090671Y0071700D01*
X0089904Y0072467D01*
X0089904Y0074002D01*
X0088369Y0071700D02*
X0088369Y0076304D01*
X0085300Y0076304D02*
X0088369Y0071700D01*
X0085300Y0071700D02*
X0085300Y0076304D01*
D14*
X0113794Y0027100D02*
X0113798Y0027414D01*
X0113809Y0027728D01*
X0113829Y0028042D01*
X0113856Y0028355D01*
X0113890Y0028668D01*
X0113933Y0028979D01*
X0113983Y0029289D01*
X0114040Y0029598D01*
X0114105Y0029906D01*
X0114178Y0030212D01*
X0114258Y0030516D01*
X0114345Y0030817D01*
X0114440Y0031117D01*
X0114543Y0031414D01*
X0114652Y0031709D01*
X0114769Y0032001D01*
X0114893Y0032290D01*
X0115024Y0032575D01*
X0115161Y0032858D01*
X0115306Y0033137D01*
X0115458Y0033412D01*
X0115616Y0033684D01*
X0115781Y0033951D01*
X0115952Y0034215D01*
X0116130Y0034474D01*
X0116314Y0034729D01*
X0116504Y0034979D01*
X0116701Y0035224D01*
X0116903Y0035465D01*
X0117111Y0035700D01*
X0117325Y0035930D01*
X0117545Y0036155D01*
X0117770Y0036375D01*
X0118000Y0036589D01*
X0118235Y0036797D01*
X0118476Y0036999D01*
X0118721Y0037196D01*
X0118971Y0037386D01*
X0119226Y0037570D01*
X0119485Y0037748D01*
X0119749Y0037919D01*
X0120016Y0038084D01*
X0120288Y0038242D01*
X0120563Y0038394D01*
X0120842Y0038539D01*
X0121125Y0038676D01*
X0121410Y0038807D01*
X0121699Y0038931D01*
X0121991Y0039048D01*
X0122286Y0039157D01*
X0122583Y0039260D01*
X0122883Y0039355D01*
X0123184Y0039442D01*
X0123488Y0039522D01*
X0123794Y0039595D01*
X0124102Y0039660D01*
X0124411Y0039717D01*
X0124721Y0039767D01*
X0125032Y0039810D01*
X0125345Y0039844D01*
X0125658Y0039871D01*
X0125972Y0039891D01*
X0126286Y0039902D01*
X0126600Y0039906D01*
X0126914Y0039902D01*
X0127228Y0039891D01*
X0127542Y0039871D01*
X0127855Y0039844D01*
X0128168Y0039810D01*
X0128479Y0039767D01*
X0128789Y0039717D01*
X0129098Y0039660D01*
X0129406Y0039595D01*
X0129712Y0039522D01*
X0130016Y0039442D01*
X0130317Y0039355D01*
X0130617Y0039260D01*
X0130914Y0039157D01*
X0131209Y0039048D01*
X0131501Y0038931D01*
X0131790Y0038807D01*
X0132075Y0038676D01*
X0132358Y0038539D01*
X0132637Y0038394D01*
X0132912Y0038242D01*
X0133184Y0038084D01*
X0133451Y0037919D01*
X0133715Y0037748D01*
X0133974Y0037570D01*
X0134229Y0037386D01*
X0134479Y0037196D01*
X0134724Y0036999D01*
X0134965Y0036797D01*
X0135200Y0036589D01*
X0135430Y0036375D01*
X0135655Y0036155D01*
X0135875Y0035930D01*
X0136089Y0035700D01*
X0136297Y0035465D01*
X0136499Y0035224D01*
X0136696Y0034979D01*
X0136886Y0034729D01*
X0137070Y0034474D01*
X0137248Y0034215D01*
X0137419Y0033951D01*
X0137584Y0033684D01*
X0137742Y0033412D01*
X0137894Y0033137D01*
X0138039Y0032858D01*
X0138176Y0032575D01*
X0138307Y0032290D01*
X0138431Y0032001D01*
X0138548Y0031709D01*
X0138657Y0031414D01*
X0138760Y0031117D01*
X0138855Y0030817D01*
X0138942Y0030516D01*
X0139022Y0030212D01*
X0139095Y0029906D01*
X0139160Y0029598D01*
X0139217Y0029289D01*
X0139267Y0028979D01*
X0139310Y0028668D01*
X0139344Y0028355D01*
X0139371Y0028042D01*
X0139391Y0027728D01*
X0139402Y0027414D01*
X0139406Y0027100D01*
X0139402Y0026786D01*
X0139391Y0026472D01*
X0139371Y0026158D01*
X0139344Y0025845D01*
X0139310Y0025532D01*
X0139267Y0025221D01*
X0139217Y0024911D01*
X0139160Y0024602D01*
X0139095Y0024294D01*
X0139022Y0023988D01*
X0138942Y0023684D01*
X0138855Y0023383D01*
X0138760Y0023083D01*
X0138657Y0022786D01*
X0138548Y0022491D01*
X0138431Y0022199D01*
X0138307Y0021910D01*
X0138176Y0021625D01*
X0138039Y0021342D01*
X0137894Y0021063D01*
X0137742Y0020788D01*
X0137584Y0020516D01*
X0137419Y0020249D01*
X0137248Y0019985D01*
X0137070Y0019726D01*
X0136886Y0019471D01*
X0136696Y0019221D01*
X0136499Y0018976D01*
X0136297Y0018735D01*
X0136089Y0018500D01*
X0135875Y0018270D01*
X0135655Y0018045D01*
X0135430Y0017825D01*
X0135200Y0017611D01*
X0134965Y0017403D01*
X0134724Y0017201D01*
X0134479Y0017004D01*
X0134229Y0016814D01*
X0133974Y0016630D01*
X0133715Y0016452D01*
X0133451Y0016281D01*
X0133184Y0016116D01*
X0132912Y0015958D01*
X0132637Y0015806D01*
X0132358Y0015661D01*
X0132075Y0015524D01*
X0131790Y0015393D01*
X0131501Y0015269D01*
X0131209Y0015152D01*
X0130914Y0015043D01*
X0130617Y0014940D01*
X0130317Y0014845D01*
X0130016Y0014758D01*
X0129712Y0014678D01*
X0129406Y0014605D01*
X0129098Y0014540D01*
X0128789Y0014483D01*
X0128479Y0014433D01*
X0128168Y0014390D01*
X0127855Y0014356D01*
X0127542Y0014329D01*
X0127228Y0014309D01*
X0126914Y0014298D01*
X0126600Y0014294D01*
X0126286Y0014298D01*
X0125972Y0014309D01*
X0125658Y0014329D01*
X0125345Y0014356D01*
X0125032Y0014390D01*
X0124721Y0014433D01*
X0124411Y0014483D01*
X0124102Y0014540D01*
X0123794Y0014605D01*
X0123488Y0014678D01*
X0123184Y0014758D01*
X0122883Y0014845D01*
X0122583Y0014940D01*
X0122286Y0015043D01*
X0121991Y0015152D01*
X0121699Y0015269D01*
X0121410Y0015393D01*
X0121125Y0015524D01*
X0120842Y0015661D01*
X0120563Y0015806D01*
X0120288Y0015958D01*
X0120016Y0016116D01*
X0119749Y0016281D01*
X0119485Y0016452D01*
X0119226Y0016630D01*
X0118971Y0016814D01*
X0118721Y0017004D01*
X0118476Y0017201D01*
X0118235Y0017403D01*
X0118000Y0017611D01*
X0117770Y0017825D01*
X0117545Y0018045D01*
X0117325Y0018270D01*
X0117111Y0018500D01*
X0116903Y0018735D01*
X0116701Y0018976D01*
X0116504Y0019221D01*
X0116314Y0019471D01*
X0116130Y0019726D01*
X0115952Y0019985D01*
X0115781Y0020249D01*
X0115616Y0020516D01*
X0115458Y0020788D01*
X0115306Y0021063D01*
X0115161Y0021342D01*
X0115024Y0021625D01*
X0114893Y0021910D01*
X0114769Y0022199D01*
X0114652Y0022491D01*
X0114543Y0022786D01*
X0114440Y0023083D01*
X0114345Y0023383D01*
X0114258Y0023684D01*
X0114178Y0023988D01*
X0114105Y0024294D01*
X0114040Y0024602D01*
X0113983Y0024911D01*
X0113933Y0025221D01*
X0113890Y0025532D01*
X0113856Y0025845D01*
X0113829Y0026158D01*
X0113809Y0026472D01*
X0113798Y0026786D01*
X0113794Y0027100D01*
D15*
X0123800Y0024800D02*
X0127500Y0021600D01*
X0123400Y0018500D01*
X0124000Y0021900D02*
X0127700Y0017900D01*
X0124000Y0021900D02*
X0128100Y0025400D01*
X0124200Y0028700D01*
X0128400Y0032400D01*
X0124300Y0036400D01*
X0128100Y0036600D02*
X0124200Y0032300D01*
X0128200Y0028800D01*
X0123800Y0024800D01*
D16*
X0062737Y0049268D02*
X0021005Y0049268D01*
X0021005Y0049465D01*
X0021005Y0049268D02*
X0021005Y0082732D01*
X0034430Y0082732D01*
X0041871Y0082732D02*
X0058800Y0082732D01*
X0062737Y0066984D02*
X0062737Y0049268D01*
X0233800Y0093500D02*
X0233800Y0098500D01*
X0270335Y0105646D02*
X0270335Y0086354D01*
X0287265Y0086354D01*
X0287265Y0105646D01*
X0270335Y0105646D01*
X0268800Y0118500D02*
X0268800Y0123500D01*
X0270335Y0136354D02*
X0270335Y0155646D01*
X0287265Y0155646D01*
X0287265Y0136354D01*
X0270335Y0136354D01*
X0233600Y0148500D02*
X0233600Y0153500D01*
X0204036Y0238283D02*
X0204036Y0273717D01*
X0433564Y0273717D01*
X0433564Y0238677D01*
X0433564Y0238283D02*
X0204036Y0238283D01*
X0310139Y0267811D02*
X0327461Y0267811D01*
X0327461Y0273717D01*
X0310139Y0273717D02*
X0310139Y0267811D01*
X0411300Y0266925D02*
X0416300Y0266925D01*
X0268800Y0068500D02*
X0268800Y0063500D01*
X0057400Y0171700D02*
X0057400Y0180700D01*
X0057400Y0171700D02*
X0050400Y0171700D01*
X0032400Y0171700D02*
X0001400Y0171700D01*
X0001400Y0223700D01*
X0032400Y0223700D01*
X0050400Y0223700D02*
X0057400Y0223700D01*
X0057400Y0214700D01*
D17*
X0112800Y0243500D03*
X0172300Y0241800D03*
D18*
X0176050Y0241800D03*
X0155550Y0241800D03*
X0116550Y0243500D03*
X0096050Y0243500D03*
D19*
X0095533Y0249250D02*
X0095533Y0253754D01*
X0097134Y0251502D02*
X0100137Y0251502D01*
X0101738Y0253003D02*
X0102489Y0253754D01*
X0103990Y0253754D01*
X0104741Y0253003D01*
X0101738Y0250001D01*
X0102489Y0249250D01*
X0103990Y0249250D01*
X0104741Y0250001D01*
X0104741Y0253003D01*
X0106342Y0253003D02*
X0107093Y0253754D01*
X0108594Y0253754D01*
X0109345Y0253003D01*
X0106342Y0250001D01*
X0107093Y0249250D01*
X0108594Y0249250D01*
X0109345Y0250001D01*
X0109345Y0253003D01*
X0110946Y0253754D02*
X0113949Y0253754D01*
X0113949Y0253003D01*
X0110946Y0250001D01*
X0110946Y0249250D01*
X0106342Y0250001D02*
X0106342Y0253003D01*
X0101738Y0253003D02*
X0101738Y0250001D01*
X0099386Y0249250D02*
X0099386Y0253754D01*
X0097134Y0251502D01*
X0095533Y0249250D02*
X0092530Y0253754D01*
X0092530Y0249250D01*
X0090929Y0249250D02*
X0087926Y0249250D01*
X0089428Y0249250D02*
X0089428Y0253754D01*
X0087926Y0252253D01*
X0093274Y0268199D02*
X0096276Y0268199D01*
X0097877Y0268950D02*
X0097877Y0273454D01*
X0100129Y0273454D01*
X0100880Y0272703D01*
X0100880Y0271202D01*
X0100129Y0270451D01*
X0097877Y0270451D01*
X0102481Y0269701D02*
X0102481Y0272703D01*
X0103232Y0273454D01*
X0104733Y0273454D01*
X0105484Y0272703D01*
X0105484Y0269701D01*
X0104733Y0268950D01*
X0103232Y0268950D01*
X0102481Y0269701D01*
X0107085Y0268950D02*
X0107085Y0273454D01*
X0110088Y0273454D02*
X0110088Y0268950D01*
X0108587Y0270451D01*
X0107085Y0268950D01*
X0091672Y0268950D02*
X0091672Y0273454D01*
X0088670Y0273454D02*
X0088670Y0268950D01*
X0087068Y0268950D02*
X0084066Y0268950D01*
X0084066Y0273454D01*
X0087068Y0273454D01*
X0088670Y0273454D02*
X0091672Y0268950D01*
X0085567Y0271202D02*
X0084066Y0271202D01*
X0082464Y0273454D02*
X0079462Y0273454D01*
X0079462Y0268950D01*
X0082464Y0268950D01*
X0080963Y0271202D02*
X0079462Y0271202D01*
X0077860Y0271202D02*
X0077110Y0270451D01*
X0074858Y0270451D01*
X0074858Y0268950D02*
X0074858Y0273454D01*
X0077110Y0273454D01*
X0077860Y0272703D01*
X0077860Y0271202D01*
X0076359Y0270451D02*
X0077860Y0268950D01*
X0073256Y0269701D02*
X0072506Y0268950D01*
X0071005Y0268950D01*
X0070254Y0269701D01*
X0070254Y0272703D01*
X0071005Y0273454D01*
X0072506Y0273454D01*
X0073256Y0272703D01*
X0068653Y0272703D02*
X0067902Y0273454D01*
X0066401Y0273454D01*
X0065650Y0272703D01*
X0065650Y0271953D01*
X0066401Y0271202D01*
X0067902Y0271202D01*
X0068653Y0270451D01*
X0068653Y0269701D01*
X0067902Y0268950D01*
X0066401Y0268950D01*
X0065650Y0269701D01*
X0100342Y0237254D02*
X0102594Y0237254D01*
X0103345Y0236503D01*
X0103345Y0233501D01*
X0102594Y0232750D01*
X0100342Y0232750D01*
X0100342Y0237254D01*
X0104946Y0235002D02*
X0107198Y0235002D01*
X0107949Y0234251D01*
X0107949Y0233501D01*
X0107198Y0232750D01*
X0105697Y0232750D01*
X0104946Y0233501D01*
X0104946Y0235002D01*
X0106447Y0236503D01*
X0107949Y0237254D01*
X0117900Y0222900D02*
X0092900Y0222900D01*
X0092900Y0097900D01*
X0117900Y0097900D01*
X0117900Y0222900D01*
X0153800Y0223000D02*
X0153800Y0098000D01*
X0178800Y0098000D01*
X0178800Y0223000D01*
X0153800Y0223000D01*
X0160842Y0231050D02*
X0163094Y0231050D01*
X0163845Y0231801D01*
X0163845Y0234803D01*
X0163094Y0235554D01*
X0160842Y0235554D01*
X0160842Y0231050D01*
X0165446Y0231801D02*
X0166197Y0231050D01*
X0167698Y0231050D01*
X0168449Y0231801D01*
X0168449Y0233302D01*
X0167698Y0234053D01*
X0166947Y0234053D01*
X0165446Y0233302D01*
X0165446Y0235554D01*
X0168449Y0235554D01*
X0168094Y0247550D02*
X0166593Y0247550D01*
X0165842Y0248301D01*
X0168845Y0251303D01*
X0168845Y0248301D01*
X0168094Y0247550D01*
X0170446Y0247550D02*
X0170446Y0248301D01*
X0173449Y0251303D01*
X0173449Y0252054D01*
X0170446Y0252054D01*
X0168845Y0251303D02*
X0168094Y0252054D01*
X0166593Y0252054D01*
X0165842Y0251303D01*
X0165842Y0248301D01*
X0164241Y0248301D02*
X0163490Y0247550D01*
X0161989Y0247550D01*
X0161238Y0248301D01*
X0164241Y0251303D01*
X0164241Y0248301D01*
X0164241Y0251303D02*
X0163490Y0252054D01*
X0161989Y0252054D01*
X0161238Y0251303D01*
X0161238Y0248301D01*
X0159637Y0249802D02*
X0156634Y0249802D01*
X0158886Y0252054D01*
X0158886Y0247550D01*
X0155033Y0247550D02*
X0155033Y0252054D01*
X0152030Y0252054D02*
X0155033Y0247550D01*
X0152030Y0247550D02*
X0152030Y0252054D01*
X0148928Y0252054D02*
X0147426Y0250553D01*
X0148928Y0252054D02*
X0148928Y0247550D01*
X0150429Y0247550D02*
X0147426Y0247550D01*
X0146826Y0269099D02*
X0143823Y0269099D01*
X0142255Y0269850D02*
X0140754Y0269850D01*
X0141505Y0269850D02*
X0141505Y0274354D01*
X0142255Y0274354D02*
X0140754Y0274354D01*
X0139153Y0273603D02*
X0138402Y0274354D01*
X0136150Y0274354D01*
X0136150Y0269850D01*
X0136150Y0271351D02*
X0138402Y0271351D01*
X0139153Y0272102D01*
X0139153Y0273603D01*
X0148427Y0274354D02*
X0148427Y0269850D01*
X0148427Y0271351D02*
X0150679Y0271351D01*
X0151430Y0272102D01*
X0151430Y0273603D01*
X0150679Y0274354D01*
X0148427Y0274354D01*
X0153031Y0273603D02*
X0153031Y0270601D01*
X0153782Y0269850D01*
X0155283Y0269850D01*
X0156034Y0270601D01*
X0156034Y0273603D01*
X0155283Y0274354D01*
X0153782Y0274354D01*
X0153031Y0273603D01*
X0157635Y0274354D02*
X0157635Y0269850D01*
X0159136Y0271351D01*
X0160638Y0269850D01*
X0160638Y0274354D01*
X0234550Y0208254D02*
X0236051Y0206753D01*
X0237553Y0208254D01*
X0237553Y0203750D01*
X0239154Y0204501D02*
X0239905Y0203750D01*
X0241406Y0203750D01*
X0242156Y0204501D01*
X0243758Y0205251D02*
X0246010Y0205251D01*
X0246760Y0206002D01*
X0246760Y0207503D01*
X0246010Y0208254D01*
X0243758Y0208254D01*
X0243758Y0203750D01*
X0242156Y0207503D02*
X0241406Y0208254D01*
X0239905Y0208254D01*
X0239154Y0207503D01*
X0239154Y0204501D01*
X0234550Y0203750D02*
X0234550Y0208254D01*
X0222050Y0204675D02*
X0217546Y0204675D01*
X0219798Y0202423D01*
X0219798Y0205426D01*
X0218297Y0200822D02*
X0217546Y0200071D01*
X0217546Y0198570D01*
X0218297Y0197819D01*
X0221299Y0197819D01*
X0222050Y0198570D01*
X0222050Y0200071D01*
X0221299Y0200822D01*
X0222050Y0196251D02*
X0222050Y0194750D01*
X0222050Y0195501D02*
X0217546Y0195501D01*
X0217546Y0196251D02*
X0217546Y0194750D01*
X0248362Y0204501D02*
X0249112Y0203750D01*
X0250614Y0203750D01*
X0251364Y0204501D01*
X0251364Y0205251D01*
X0250614Y0206002D01*
X0249863Y0206002D01*
X0250614Y0206002D02*
X0251364Y0206753D01*
X0251364Y0207503D01*
X0250614Y0208254D01*
X0249112Y0208254D01*
X0248362Y0207503D01*
X0252966Y0207503D02*
X0252966Y0204501D01*
X0255968Y0207503D01*
X0255968Y0204501D01*
X0255218Y0203750D01*
X0253716Y0203750D01*
X0252966Y0204501D01*
X0252966Y0207503D02*
X0253716Y0208254D01*
X0255218Y0208254D01*
X0255968Y0207503D01*
X0257570Y0207503D02*
X0257570Y0204501D01*
X0260572Y0207503D01*
X0260572Y0204501D01*
X0259822Y0203750D01*
X0258320Y0203750D01*
X0257570Y0204501D01*
X0257570Y0207503D02*
X0258320Y0208254D01*
X0259822Y0208254D01*
X0260572Y0207503D01*
X0262174Y0207503D02*
X0262924Y0208254D01*
X0264425Y0208254D01*
X0265176Y0207503D01*
X0265176Y0206753D01*
X0264425Y0206002D01*
X0262924Y0206002D01*
X0262174Y0206753D01*
X0262174Y0207503D01*
X0262924Y0206002D02*
X0262174Y0205251D01*
X0262174Y0204501D01*
X0262924Y0203750D01*
X0264425Y0203750D01*
X0265176Y0204501D01*
X0265176Y0205251D01*
X0264425Y0206002D01*
X0241264Y0168254D02*
X0241264Y0163750D01*
X0241264Y0165251D02*
X0243516Y0166753D01*
X0241264Y0165251D02*
X0243516Y0163750D01*
X0239662Y0164501D02*
X0239662Y0166002D01*
X0238912Y0166753D01*
X0238161Y0166753D01*
X0236660Y0166002D01*
X0236660Y0168254D01*
X0239662Y0168254D01*
X0232756Y0167503D02*
X0232756Y0166753D01*
X0232006Y0166002D01*
X0230505Y0166002D01*
X0229754Y0166753D01*
X0229754Y0167503D01*
X0230505Y0168254D01*
X0232006Y0168254D01*
X0232756Y0167503D01*
X0232006Y0166002D02*
X0232756Y0165251D01*
X0232756Y0164501D01*
X0232006Y0163750D01*
X0230505Y0163750D01*
X0229754Y0164501D01*
X0229754Y0165251D01*
X0230505Y0166002D01*
X0228153Y0165251D02*
X0227402Y0166002D01*
X0225150Y0166002D01*
X0225150Y0164501D01*
X0225901Y0163750D01*
X0227402Y0163750D01*
X0228153Y0164501D01*
X0228153Y0165251D01*
X0226651Y0167503D02*
X0225150Y0166002D01*
X0226651Y0167503D02*
X0228153Y0168254D01*
X0234358Y0164501D02*
X0235108Y0164501D01*
X0235108Y0163750D01*
X0234358Y0163750D01*
X0234358Y0164501D01*
X0236660Y0164501D02*
X0237410Y0163750D01*
X0238912Y0163750D01*
X0239662Y0164501D01*
X0209656Y0164250D02*
X0206654Y0164250D01*
X0208155Y0164250D02*
X0208155Y0168754D01*
X0206654Y0167253D01*
X0205053Y0168003D02*
X0205053Y0166502D01*
X0204302Y0165751D01*
X0202050Y0165751D01*
X0202050Y0164250D02*
X0202050Y0168754D01*
X0204302Y0168754D01*
X0205053Y0168003D01*
X0203551Y0165751D02*
X0205053Y0164250D01*
X0204302Y0137754D02*
X0202050Y0137754D01*
X0202050Y0133250D01*
X0202050Y0134751D02*
X0204302Y0134751D01*
X0205053Y0135502D01*
X0205053Y0137003D01*
X0204302Y0137754D01*
X0206654Y0137003D02*
X0207405Y0137754D01*
X0208906Y0137754D01*
X0209656Y0137003D01*
X0209656Y0136253D01*
X0206654Y0133250D01*
X0209656Y0133250D01*
X0205053Y0133250D02*
X0203551Y0134751D01*
X0225150Y0134501D02*
X0225901Y0133750D01*
X0227402Y0133750D01*
X0228153Y0134501D01*
X0228153Y0135251D01*
X0227402Y0136002D01*
X0225150Y0136002D01*
X0225150Y0134501D01*
X0225150Y0136002D02*
X0226651Y0137503D01*
X0228153Y0138254D01*
X0229754Y0137503D02*
X0229754Y0136753D01*
X0230505Y0136002D01*
X0232006Y0136002D01*
X0232756Y0135251D01*
X0232756Y0134501D01*
X0232006Y0133750D01*
X0230505Y0133750D01*
X0229754Y0134501D01*
X0229754Y0135251D01*
X0230505Y0136002D01*
X0232006Y0136002D02*
X0232756Y0136753D01*
X0232756Y0137503D01*
X0232006Y0138254D01*
X0230505Y0138254D01*
X0229754Y0137503D01*
X0234358Y0134501D02*
X0235108Y0134501D01*
X0235108Y0133750D01*
X0234358Y0133750D01*
X0234358Y0134501D01*
X0236660Y0134501D02*
X0237410Y0133750D01*
X0238912Y0133750D01*
X0239662Y0134501D01*
X0239662Y0136002D01*
X0238912Y0136753D01*
X0238161Y0136753D01*
X0236660Y0136002D01*
X0236660Y0138254D01*
X0239662Y0138254D01*
X0241264Y0138254D02*
X0241264Y0133750D01*
X0241264Y0135251D02*
X0243516Y0136753D01*
X0241264Y0135251D02*
X0243516Y0133750D01*
X0241264Y0111254D02*
X0241264Y0106750D01*
X0241264Y0108251D02*
X0243516Y0109753D01*
X0241264Y0108251D02*
X0243516Y0106750D01*
X0239662Y0107501D02*
X0238912Y0106750D01*
X0237410Y0106750D01*
X0236660Y0107501D01*
X0236660Y0109002D02*
X0238161Y0109753D01*
X0238912Y0109753D01*
X0239662Y0109002D01*
X0239662Y0107501D01*
X0236660Y0109002D02*
X0236660Y0111254D01*
X0239662Y0111254D01*
X0235108Y0107501D02*
X0235108Y0106750D01*
X0234358Y0106750D01*
X0234358Y0107501D01*
X0235108Y0107501D01*
X0232756Y0107501D02*
X0232006Y0106750D01*
X0230505Y0106750D01*
X0229754Y0107501D01*
X0229754Y0108251D01*
X0230505Y0109002D01*
X0232006Y0109002D01*
X0232756Y0108251D01*
X0232756Y0107501D01*
X0232006Y0109002D02*
X0232756Y0109753D01*
X0232756Y0110503D01*
X0232006Y0111254D01*
X0230505Y0111254D01*
X0229754Y0110503D01*
X0229754Y0109753D01*
X0230505Y0109002D01*
X0228153Y0108251D02*
X0227402Y0109002D01*
X0225150Y0109002D01*
X0225150Y0107501D01*
X0225901Y0106750D01*
X0227402Y0106750D01*
X0228153Y0107501D01*
X0228153Y0108251D01*
X0226651Y0110503D02*
X0225150Y0109002D01*
X0226651Y0110503D02*
X0228153Y0111254D01*
X0209656Y0110003D02*
X0209656Y0109253D01*
X0208906Y0108502D01*
X0209656Y0107751D01*
X0209656Y0107001D01*
X0208906Y0106250D01*
X0207405Y0106250D01*
X0206654Y0107001D01*
X0205053Y0106250D02*
X0203551Y0107751D01*
X0204302Y0107751D02*
X0202050Y0107751D01*
X0202050Y0106250D02*
X0202050Y0110754D01*
X0204302Y0110754D01*
X0205053Y0110003D01*
X0205053Y0108502D01*
X0204302Y0107751D01*
X0206654Y0110003D02*
X0207405Y0110754D01*
X0208906Y0110754D01*
X0209656Y0110003D01*
X0208906Y0108502D02*
X0208155Y0108502D01*
X0173800Y0128000D02*
X0173802Y0128141D01*
X0173808Y0128282D01*
X0173818Y0128422D01*
X0173832Y0128562D01*
X0173850Y0128702D01*
X0173871Y0128841D01*
X0173897Y0128980D01*
X0173926Y0129118D01*
X0173960Y0129254D01*
X0173997Y0129390D01*
X0174038Y0129525D01*
X0174083Y0129659D01*
X0174132Y0129791D01*
X0174184Y0129922D01*
X0174240Y0130051D01*
X0174300Y0130178D01*
X0174363Y0130304D01*
X0174429Y0130428D01*
X0174500Y0130551D01*
X0174573Y0130671D01*
X0174650Y0130789D01*
X0174730Y0130905D01*
X0174814Y0131018D01*
X0174900Y0131129D01*
X0174990Y0131238D01*
X0175083Y0131344D01*
X0175178Y0131447D01*
X0175277Y0131548D01*
X0175378Y0131646D01*
X0175482Y0131741D01*
X0175589Y0131833D01*
X0175698Y0131922D01*
X0175810Y0132007D01*
X0175924Y0132090D01*
X0176040Y0132170D01*
X0176159Y0132246D01*
X0176280Y0132318D01*
X0176402Y0132388D01*
X0176527Y0132453D01*
X0176653Y0132516D01*
X0176781Y0132574D01*
X0176911Y0132629D01*
X0177042Y0132681D01*
X0177175Y0132728D01*
X0177309Y0132772D01*
X0177444Y0132813D01*
X0177580Y0132849D01*
X0177717Y0132881D01*
X0177855Y0132910D01*
X0177993Y0132935D01*
X0178133Y0132955D01*
X0178273Y0132972D01*
X0178413Y0132985D01*
X0178554Y0132994D01*
X0178694Y0132999D01*
X0178835Y0133000D01*
X0178976Y0132997D01*
X0179117Y0132990D01*
X0179257Y0132979D01*
X0179397Y0132964D01*
X0179537Y0132945D01*
X0179676Y0132923D01*
X0179814Y0132896D01*
X0179952Y0132866D01*
X0180088Y0132831D01*
X0180224Y0132793D01*
X0180358Y0132751D01*
X0180492Y0132705D01*
X0180624Y0132656D01*
X0180754Y0132602D01*
X0180883Y0132545D01*
X0181010Y0132485D01*
X0181136Y0132421D01*
X0181259Y0132353D01*
X0181381Y0132282D01*
X0181501Y0132208D01*
X0181618Y0132130D01*
X0181733Y0132049D01*
X0181846Y0131965D01*
X0181957Y0131878D01*
X0182065Y0131787D01*
X0182170Y0131694D01*
X0182273Y0131597D01*
X0182373Y0131498D01*
X0182470Y0131396D01*
X0182564Y0131291D01*
X0182655Y0131184D01*
X0182743Y0131074D01*
X0182828Y0130962D01*
X0182910Y0130847D01*
X0182989Y0130730D01*
X0183064Y0130611D01*
X0183136Y0130490D01*
X0183204Y0130367D01*
X0183269Y0130242D01*
X0183331Y0130115D01*
X0183388Y0129986D01*
X0183443Y0129856D01*
X0183493Y0129725D01*
X0183540Y0129592D01*
X0183583Y0129458D01*
X0183622Y0129322D01*
X0183657Y0129186D01*
X0183689Y0129049D01*
X0183716Y0128911D01*
X0183740Y0128772D01*
X0183760Y0128632D01*
X0183776Y0128492D01*
X0183788Y0128352D01*
X0183796Y0128211D01*
X0183800Y0128070D01*
X0183800Y0127930D01*
X0183796Y0127789D01*
X0183788Y0127648D01*
X0183776Y0127508D01*
X0183760Y0127368D01*
X0183740Y0127228D01*
X0183716Y0127089D01*
X0183689Y0126951D01*
X0183657Y0126814D01*
X0183622Y0126678D01*
X0183583Y0126542D01*
X0183540Y0126408D01*
X0183493Y0126275D01*
X0183443Y0126144D01*
X0183388Y0126014D01*
X0183331Y0125885D01*
X0183269Y0125758D01*
X0183204Y0125633D01*
X0183136Y0125510D01*
X0183064Y0125389D01*
X0182989Y0125270D01*
X0182910Y0125153D01*
X0182828Y0125038D01*
X0182743Y0124926D01*
X0182655Y0124816D01*
X0182564Y0124709D01*
X0182470Y0124604D01*
X0182373Y0124502D01*
X0182273Y0124403D01*
X0182170Y0124306D01*
X0182065Y0124213D01*
X0181957Y0124122D01*
X0181846Y0124035D01*
X0181733Y0123951D01*
X0181618Y0123870D01*
X0181501Y0123792D01*
X0181381Y0123718D01*
X0181259Y0123647D01*
X0181136Y0123579D01*
X0181010Y0123515D01*
X0180883Y0123455D01*
X0180754Y0123398D01*
X0180624Y0123344D01*
X0180492Y0123295D01*
X0180358Y0123249D01*
X0180224Y0123207D01*
X0180088Y0123169D01*
X0179952Y0123134D01*
X0179814Y0123104D01*
X0179676Y0123077D01*
X0179537Y0123055D01*
X0179397Y0123036D01*
X0179257Y0123021D01*
X0179117Y0123010D01*
X0178976Y0123003D01*
X0178835Y0123000D01*
X0178694Y0123001D01*
X0178554Y0123006D01*
X0178413Y0123015D01*
X0178273Y0123028D01*
X0178133Y0123045D01*
X0177993Y0123065D01*
X0177855Y0123090D01*
X0177717Y0123119D01*
X0177580Y0123151D01*
X0177444Y0123187D01*
X0177309Y0123228D01*
X0177175Y0123272D01*
X0177042Y0123319D01*
X0176911Y0123371D01*
X0176781Y0123426D01*
X0176653Y0123484D01*
X0176527Y0123547D01*
X0176402Y0123612D01*
X0176280Y0123682D01*
X0176159Y0123754D01*
X0176040Y0123830D01*
X0175924Y0123910D01*
X0175810Y0123993D01*
X0175698Y0124078D01*
X0175589Y0124167D01*
X0175482Y0124259D01*
X0175378Y0124354D01*
X0175277Y0124452D01*
X0175178Y0124553D01*
X0175083Y0124656D01*
X0174990Y0124762D01*
X0174900Y0124871D01*
X0174814Y0124982D01*
X0174730Y0125095D01*
X0174650Y0125211D01*
X0174573Y0125329D01*
X0174500Y0125449D01*
X0174429Y0125572D01*
X0174363Y0125696D01*
X0174300Y0125822D01*
X0174240Y0125949D01*
X0174184Y0126078D01*
X0174132Y0126209D01*
X0174083Y0126341D01*
X0174038Y0126475D01*
X0173997Y0126610D01*
X0173960Y0126746D01*
X0173926Y0126882D01*
X0173897Y0127020D01*
X0173871Y0127159D01*
X0173850Y0127298D01*
X0173832Y0127438D01*
X0173818Y0127578D01*
X0173808Y0127718D01*
X0173802Y0127859D01*
X0173800Y0128000D01*
X0148800Y0128000D02*
X0148802Y0128141D01*
X0148808Y0128282D01*
X0148818Y0128422D01*
X0148832Y0128562D01*
X0148850Y0128702D01*
X0148871Y0128841D01*
X0148897Y0128980D01*
X0148926Y0129118D01*
X0148960Y0129254D01*
X0148997Y0129390D01*
X0149038Y0129525D01*
X0149083Y0129659D01*
X0149132Y0129791D01*
X0149184Y0129922D01*
X0149240Y0130051D01*
X0149300Y0130178D01*
X0149363Y0130304D01*
X0149429Y0130428D01*
X0149500Y0130551D01*
X0149573Y0130671D01*
X0149650Y0130789D01*
X0149730Y0130905D01*
X0149814Y0131018D01*
X0149900Y0131129D01*
X0149990Y0131238D01*
X0150083Y0131344D01*
X0150178Y0131447D01*
X0150277Y0131548D01*
X0150378Y0131646D01*
X0150482Y0131741D01*
X0150589Y0131833D01*
X0150698Y0131922D01*
X0150810Y0132007D01*
X0150924Y0132090D01*
X0151040Y0132170D01*
X0151159Y0132246D01*
X0151280Y0132318D01*
X0151402Y0132388D01*
X0151527Y0132453D01*
X0151653Y0132516D01*
X0151781Y0132574D01*
X0151911Y0132629D01*
X0152042Y0132681D01*
X0152175Y0132728D01*
X0152309Y0132772D01*
X0152444Y0132813D01*
X0152580Y0132849D01*
X0152717Y0132881D01*
X0152855Y0132910D01*
X0152993Y0132935D01*
X0153133Y0132955D01*
X0153273Y0132972D01*
X0153413Y0132985D01*
X0153554Y0132994D01*
X0153694Y0132999D01*
X0153835Y0133000D01*
X0153976Y0132997D01*
X0154117Y0132990D01*
X0154257Y0132979D01*
X0154397Y0132964D01*
X0154537Y0132945D01*
X0154676Y0132923D01*
X0154814Y0132896D01*
X0154952Y0132866D01*
X0155088Y0132831D01*
X0155224Y0132793D01*
X0155358Y0132751D01*
X0155492Y0132705D01*
X0155624Y0132656D01*
X0155754Y0132602D01*
X0155883Y0132545D01*
X0156010Y0132485D01*
X0156136Y0132421D01*
X0156259Y0132353D01*
X0156381Y0132282D01*
X0156501Y0132208D01*
X0156618Y0132130D01*
X0156733Y0132049D01*
X0156846Y0131965D01*
X0156957Y0131878D01*
X0157065Y0131787D01*
X0157170Y0131694D01*
X0157273Y0131597D01*
X0157373Y0131498D01*
X0157470Y0131396D01*
X0157564Y0131291D01*
X0157655Y0131184D01*
X0157743Y0131074D01*
X0157828Y0130962D01*
X0157910Y0130847D01*
X0157989Y0130730D01*
X0158064Y0130611D01*
X0158136Y0130490D01*
X0158204Y0130367D01*
X0158269Y0130242D01*
X0158331Y0130115D01*
X0158388Y0129986D01*
X0158443Y0129856D01*
X0158493Y0129725D01*
X0158540Y0129592D01*
X0158583Y0129458D01*
X0158622Y0129322D01*
X0158657Y0129186D01*
X0158689Y0129049D01*
X0158716Y0128911D01*
X0158740Y0128772D01*
X0158760Y0128632D01*
X0158776Y0128492D01*
X0158788Y0128352D01*
X0158796Y0128211D01*
X0158800Y0128070D01*
X0158800Y0127930D01*
X0158796Y0127789D01*
X0158788Y0127648D01*
X0158776Y0127508D01*
X0158760Y0127368D01*
X0158740Y0127228D01*
X0158716Y0127089D01*
X0158689Y0126951D01*
X0158657Y0126814D01*
X0158622Y0126678D01*
X0158583Y0126542D01*
X0158540Y0126408D01*
X0158493Y0126275D01*
X0158443Y0126144D01*
X0158388Y0126014D01*
X0158331Y0125885D01*
X0158269Y0125758D01*
X0158204Y0125633D01*
X0158136Y0125510D01*
X0158064Y0125389D01*
X0157989Y0125270D01*
X0157910Y0125153D01*
X0157828Y0125038D01*
X0157743Y0124926D01*
X0157655Y0124816D01*
X0157564Y0124709D01*
X0157470Y0124604D01*
X0157373Y0124502D01*
X0157273Y0124403D01*
X0157170Y0124306D01*
X0157065Y0124213D01*
X0156957Y0124122D01*
X0156846Y0124035D01*
X0156733Y0123951D01*
X0156618Y0123870D01*
X0156501Y0123792D01*
X0156381Y0123718D01*
X0156259Y0123647D01*
X0156136Y0123579D01*
X0156010Y0123515D01*
X0155883Y0123455D01*
X0155754Y0123398D01*
X0155624Y0123344D01*
X0155492Y0123295D01*
X0155358Y0123249D01*
X0155224Y0123207D01*
X0155088Y0123169D01*
X0154952Y0123134D01*
X0154814Y0123104D01*
X0154676Y0123077D01*
X0154537Y0123055D01*
X0154397Y0123036D01*
X0154257Y0123021D01*
X0154117Y0123010D01*
X0153976Y0123003D01*
X0153835Y0123000D01*
X0153694Y0123001D01*
X0153554Y0123006D01*
X0153413Y0123015D01*
X0153273Y0123028D01*
X0153133Y0123045D01*
X0152993Y0123065D01*
X0152855Y0123090D01*
X0152717Y0123119D01*
X0152580Y0123151D01*
X0152444Y0123187D01*
X0152309Y0123228D01*
X0152175Y0123272D01*
X0152042Y0123319D01*
X0151911Y0123371D01*
X0151781Y0123426D01*
X0151653Y0123484D01*
X0151527Y0123547D01*
X0151402Y0123612D01*
X0151280Y0123682D01*
X0151159Y0123754D01*
X0151040Y0123830D01*
X0150924Y0123910D01*
X0150810Y0123993D01*
X0150698Y0124078D01*
X0150589Y0124167D01*
X0150482Y0124259D01*
X0150378Y0124354D01*
X0150277Y0124452D01*
X0150178Y0124553D01*
X0150083Y0124656D01*
X0149990Y0124762D01*
X0149900Y0124871D01*
X0149814Y0124982D01*
X0149730Y0125095D01*
X0149650Y0125211D01*
X0149573Y0125329D01*
X0149500Y0125449D01*
X0149429Y0125572D01*
X0149363Y0125696D01*
X0149300Y0125822D01*
X0149240Y0125949D01*
X0149184Y0126078D01*
X0149132Y0126209D01*
X0149083Y0126341D01*
X0149038Y0126475D01*
X0148997Y0126610D01*
X0148960Y0126746D01*
X0148926Y0126882D01*
X0148897Y0127020D01*
X0148871Y0127159D01*
X0148850Y0127298D01*
X0148832Y0127438D01*
X0148818Y0127578D01*
X0148808Y0127718D01*
X0148802Y0127859D01*
X0148800Y0128000D01*
X0112900Y0127900D02*
X0112902Y0128041D01*
X0112908Y0128182D01*
X0112918Y0128322D01*
X0112932Y0128462D01*
X0112950Y0128602D01*
X0112971Y0128741D01*
X0112997Y0128880D01*
X0113026Y0129018D01*
X0113060Y0129154D01*
X0113097Y0129290D01*
X0113138Y0129425D01*
X0113183Y0129559D01*
X0113232Y0129691D01*
X0113284Y0129822D01*
X0113340Y0129951D01*
X0113400Y0130078D01*
X0113463Y0130204D01*
X0113529Y0130328D01*
X0113600Y0130451D01*
X0113673Y0130571D01*
X0113750Y0130689D01*
X0113830Y0130805D01*
X0113914Y0130918D01*
X0114000Y0131029D01*
X0114090Y0131138D01*
X0114183Y0131244D01*
X0114278Y0131347D01*
X0114377Y0131448D01*
X0114478Y0131546D01*
X0114582Y0131641D01*
X0114689Y0131733D01*
X0114798Y0131822D01*
X0114910Y0131907D01*
X0115024Y0131990D01*
X0115140Y0132070D01*
X0115259Y0132146D01*
X0115380Y0132218D01*
X0115502Y0132288D01*
X0115627Y0132353D01*
X0115753Y0132416D01*
X0115881Y0132474D01*
X0116011Y0132529D01*
X0116142Y0132581D01*
X0116275Y0132628D01*
X0116409Y0132672D01*
X0116544Y0132713D01*
X0116680Y0132749D01*
X0116817Y0132781D01*
X0116955Y0132810D01*
X0117093Y0132835D01*
X0117233Y0132855D01*
X0117373Y0132872D01*
X0117513Y0132885D01*
X0117654Y0132894D01*
X0117794Y0132899D01*
X0117935Y0132900D01*
X0118076Y0132897D01*
X0118217Y0132890D01*
X0118357Y0132879D01*
X0118497Y0132864D01*
X0118637Y0132845D01*
X0118776Y0132823D01*
X0118914Y0132796D01*
X0119052Y0132766D01*
X0119188Y0132731D01*
X0119324Y0132693D01*
X0119458Y0132651D01*
X0119592Y0132605D01*
X0119724Y0132556D01*
X0119854Y0132502D01*
X0119983Y0132445D01*
X0120110Y0132385D01*
X0120236Y0132321D01*
X0120359Y0132253D01*
X0120481Y0132182D01*
X0120601Y0132108D01*
X0120718Y0132030D01*
X0120833Y0131949D01*
X0120946Y0131865D01*
X0121057Y0131778D01*
X0121165Y0131687D01*
X0121270Y0131594D01*
X0121373Y0131497D01*
X0121473Y0131398D01*
X0121570Y0131296D01*
X0121664Y0131191D01*
X0121755Y0131084D01*
X0121843Y0130974D01*
X0121928Y0130862D01*
X0122010Y0130747D01*
X0122089Y0130630D01*
X0122164Y0130511D01*
X0122236Y0130390D01*
X0122304Y0130267D01*
X0122369Y0130142D01*
X0122431Y0130015D01*
X0122488Y0129886D01*
X0122543Y0129756D01*
X0122593Y0129625D01*
X0122640Y0129492D01*
X0122683Y0129358D01*
X0122722Y0129222D01*
X0122757Y0129086D01*
X0122789Y0128949D01*
X0122816Y0128811D01*
X0122840Y0128672D01*
X0122860Y0128532D01*
X0122876Y0128392D01*
X0122888Y0128252D01*
X0122896Y0128111D01*
X0122900Y0127970D01*
X0122900Y0127830D01*
X0122896Y0127689D01*
X0122888Y0127548D01*
X0122876Y0127408D01*
X0122860Y0127268D01*
X0122840Y0127128D01*
X0122816Y0126989D01*
X0122789Y0126851D01*
X0122757Y0126714D01*
X0122722Y0126578D01*
X0122683Y0126442D01*
X0122640Y0126308D01*
X0122593Y0126175D01*
X0122543Y0126044D01*
X0122488Y0125914D01*
X0122431Y0125785D01*
X0122369Y0125658D01*
X0122304Y0125533D01*
X0122236Y0125410D01*
X0122164Y0125289D01*
X0122089Y0125170D01*
X0122010Y0125053D01*
X0121928Y0124938D01*
X0121843Y0124826D01*
X0121755Y0124716D01*
X0121664Y0124609D01*
X0121570Y0124504D01*
X0121473Y0124402D01*
X0121373Y0124303D01*
X0121270Y0124206D01*
X0121165Y0124113D01*
X0121057Y0124022D01*
X0120946Y0123935D01*
X0120833Y0123851D01*
X0120718Y0123770D01*
X0120601Y0123692D01*
X0120481Y0123618D01*
X0120359Y0123547D01*
X0120236Y0123479D01*
X0120110Y0123415D01*
X0119983Y0123355D01*
X0119854Y0123298D01*
X0119724Y0123244D01*
X0119592Y0123195D01*
X0119458Y0123149D01*
X0119324Y0123107D01*
X0119188Y0123069D01*
X0119052Y0123034D01*
X0118914Y0123004D01*
X0118776Y0122977D01*
X0118637Y0122955D01*
X0118497Y0122936D01*
X0118357Y0122921D01*
X0118217Y0122910D01*
X0118076Y0122903D01*
X0117935Y0122900D01*
X0117794Y0122901D01*
X0117654Y0122906D01*
X0117513Y0122915D01*
X0117373Y0122928D01*
X0117233Y0122945D01*
X0117093Y0122965D01*
X0116955Y0122990D01*
X0116817Y0123019D01*
X0116680Y0123051D01*
X0116544Y0123087D01*
X0116409Y0123128D01*
X0116275Y0123172D01*
X0116142Y0123219D01*
X0116011Y0123271D01*
X0115881Y0123326D01*
X0115753Y0123384D01*
X0115627Y0123447D01*
X0115502Y0123512D01*
X0115380Y0123582D01*
X0115259Y0123654D01*
X0115140Y0123730D01*
X0115024Y0123810D01*
X0114910Y0123893D01*
X0114798Y0123978D01*
X0114689Y0124067D01*
X0114582Y0124159D01*
X0114478Y0124254D01*
X0114377Y0124352D01*
X0114278Y0124453D01*
X0114183Y0124556D01*
X0114090Y0124662D01*
X0114000Y0124771D01*
X0113914Y0124882D01*
X0113830Y0124995D01*
X0113750Y0125111D01*
X0113673Y0125229D01*
X0113600Y0125349D01*
X0113529Y0125472D01*
X0113463Y0125596D01*
X0113400Y0125722D01*
X0113340Y0125849D01*
X0113284Y0125978D01*
X0113232Y0126109D01*
X0113183Y0126241D01*
X0113138Y0126375D01*
X0113097Y0126510D01*
X0113060Y0126646D01*
X0113026Y0126782D01*
X0112997Y0126920D01*
X0112971Y0127059D01*
X0112950Y0127198D01*
X0112932Y0127338D01*
X0112918Y0127478D01*
X0112908Y0127618D01*
X0112902Y0127759D01*
X0112900Y0127900D01*
X0087900Y0127900D02*
X0087902Y0128041D01*
X0087908Y0128182D01*
X0087918Y0128322D01*
X0087932Y0128462D01*
X0087950Y0128602D01*
X0087971Y0128741D01*
X0087997Y0128880D01*
X0088026Y0129018D01*
X0088060Y0129154D01*
X0088097Y0129290D01*
X0088138Y0129425D01*
X0088183Y0129559D01*
X0088232Y0129691D01*
X0088284Y0129822D01*
X0088340Y0129951D01*
X0088400Y0130078D01*
X0088463Y0130204D01*
X0088529Y0130328D01*
X0088600Y0130451D01*
X0088673Y0130571D01*
X0088750Y0130689D01*
X0088830Y0130805D01*
X0088914Y0130918D01*
X0089000Y0131029D01*
X0089090Y0131138D01*
X0089183Y0131244D01*
X0089278Y0131347D01*
X0089377Y0131448D01*
X0089478Y0131546D01*
X0089582Y0131641D01*
X0089689Y0131733D01*
X0089798Y0131822D01*
X0089910Y0131907D01*
X0090024Y0131990D01*
X0090140Y0132070D01*
X0090259Y0132146D01*
X0090380Y0132218D01*
X0090502Y0132288D01*
X0090627Y0132353D01*
X0090753Y0132416D01*
X0090881Y0132474D01*
X0091011Y0132529D01*
X0091142Y0132581D01*
X0091275Y0132628D01*
X0091409Y0132672D01*
X0091544Y0132713D01*
X0091680Y0132749D01*
X0091817Y0132781D01*
X0091955Y0132810D01*
X0092093Y0132835D01*
X0092233Y0132855D01*
X0092373Y0132872D01*
X0092513Y0132885D01*
X0092654Y0132894D01*
X0092794Y0132899D01*
X0092935Y0132900D01*
X0093076Y0132897D01*
X0093217Y0132890D01*
X0093357Y0132879D01*
X0093497Y0132864D01*
X0093637Y0132845D01*
X0093776Y0132823D01*
X0093914Y0132796D01*
X0094052Y0132766D01*
X0094188Y0132731D01*
X0094324Y0132693D01*
X0094458Y0132651D01*
X0094592Y0132605D01*
X0094724Y0132556D01*
X0094854Y0132502D01*
X0094983Y0132445D01*
X0095110Y0132385D01*
X0095236Y0132321D01*
X0095359Y0132253D01*
X0095481Y0132182D01*
X0095601Y0132108D01*
X0095718Y0132030D01*
X0095833Y0131949D01*
X0095946Y0131865D01*
X0096057Y0131778D01*
X0096165Y0131687D01*
X0096270Y0131594D01*
X0096373Y0131497D01*
X0096473Y0131398D01*
X0096570Y0131296D01*
X0096664Y0131191D01*
X0096755Y0131084D01*
X0096843Y0130974D01*
X0096928Y0130862D01*
X0097010Y0130747D01*
X0097089Y0130630D01*
X0097164Y0130511D01*
X0097236Y0130390D01*
X0097304Y0130267D01*
X0097369Y0130142D01*
X0097431Y0130015D01*
X0097488Y0129886D01*
X0097543Y0129756D01*
X0097593Y0129625D01*
X0097640Y0129492D01*
X0097683Y0129358D01*
X0097722Y0129222D01*
X0097757Y0129086D01*
X0097789Y0128949D01*
X0097816Y0128811D01*
X0097840Y0128672D01*
X0097860Y0128532D01*
X0097876Y0128392D01*
X0097888Y0128252D01*
X0097896Y0128111D01*
X0097900Y0127970D01*
X0097900Y0127830D01*
X0097896Y0127689D01*
X0097888Y0127548D01*
X0097876Y0127408D01*
X0097860Y0127268D01*
X0097840Y0127128D01*
X0097816Y0126989D01*
X0097789Y0126851D01*
X0097757Y0126714D01*
X0097722Y0126578D01*
X0097683Y0126442D01*
X0097640Y0126308D01*
X0097593Y0126175D01*
X0097543Y0126044D01*
X0097488Y0125914D01*
X0097431Y0125785D01*
X0097369Y0125658D01*
X0097304Y0125533D01*
X0097236Y0125410D01*
X0097164Y0125289D01*
X0097089Y0125170D01*
X0097010Y0125053D01*
X0096928Y0124938D01*
X0096843Y0124826D01*
X0096755Y0124716D01*
X0096664Y0124609D01*
X0096570Y0124504D01*
X0096473Y0124402D01*
X0096373Y0124303D01*
X0096270Y0124206D01*
X0096165Y0124113D01*
X0096057Y0124022D01*
X0095946Y0123935D01*
X0095833Y0123851D01*
X0095718Y0123770D01*
X0095601Y0123692D01*
X0095481Y0123618D01*
X0095359Y0123547D01*
X0095236Y0123479D01*
X0095110Y0123415D01*
X0094983Y0123355D01*
X0094854Y0123298D01*
X0094724Y0123244D01*
X0094592Y0123195D01*
X0094458Y0123149D01*
X0094324Y0123107D01*
X0094188Y0123069D01*
X0094052Y0123034D01*
X0093914Y0123004D01*
X0093776Y0122977D01*
X0093637Y0122955D01*
X0093497Y0122936D01*
X0093357Y0122921D01*
X0093217Y0122910D01*
X0093076Y0122903D01*
X0092935Y0122900D01*
X0092794Y0122901D01*
X0092654Y0122906D01*
X0092513Y0122915D01*
X0092373Y0122928D01*
X0092233Y0122945D01*
X0092093Y0122965D01*
X0091955Y0122990D01*
X0091817Y0123019D01*
X0091680Y0123051D01*
X0091544Y0123087D01*
X0091409Y0123128D01*
X0091275Y0123172D01*
X0091142Y0123219D01*
X0091011Y0123271D01*
X0090881Y0123326D01*
X0090753Y0123384D01*
X0090627Y0123447D01*
X0090502Y0123512D01*
X0090380Y0123582D01*
X0090259Y0123654D01*
X0090140Y0123730D01*
X0090024Y0123810D01*
X0089910Y0123893D01*
X0089798Y0123978D01*
X0089689Y0124067D01*
X0089582Y0124159D01*
X0089478Y0124254D01*
X0089377Y0124352D01*
X0089278Y0124453D01*
X0089183Y0124556D01*
X0089090Y0124662D01*
X0089000Y0124771D01*
X0088914Y0124882D01*
X0088830Y0124995D01*
X0088750Y0125111D01*
X0088673Y0125229D01*
X0088600Y0125349D01*
X0088529Y0125472D01*
X0088463Y0125596D01*
X0088400Y0125722D01*
X0088340Y0125849D01*
X0088284Y0125978D01*
X0088232Y0126109D01*
X0088183Y0126241D01*
X0088138Y0126375D01*
X0088097Y0126510D01*
X0088060Y0126646D01*
X0088026Y0126782D01*
X0087997Y0126920D01*
X0087971Y0127059D01*
X0087950Y0127198D01*
X0087932Y0127338D01*
X0087918Y0127478D01*
X0087908Y0127618D01*
X0087902Y0127759D01*
X0087900Y0127900D01*
X0035101Y0126764D02*
X0035101Y0123762D01*
X0034350Y0122160D02*
X0029846Y0122160D01*
X0029846Y0119158D02*
X0034350Y0119158D01*
X0032849Y0120659D01*
X0034350Y0122160D01*
X0033599Y0117556D02*
X0030597Y0117556D01*
X0029846Y0116806D01*
X0029846Y0115305D01*
X0030597Y0114554D01*
X0033599Y0114554D01*
X0034350Y0115305D01*
X0034350Y0116806D01*
X0033599Y0117556D01*
X0032098Y0112953D02*
X0032849Y0112202D01*
X0032849Y0109950D01*
X0034350Y0109950D02*
X0029846Y0109950D01*
X0029846Y0112202D01*
X0030597Y0112953D01*
X0032098Y0112953D01*
X0032849Y0128366D02*
X0032849Y0130618D01*
X0032098Y0131368D01*
X0030597Y0131368D01*
X0029846Y0130618D01*
X0029846Y0128366D01*
X0034350Y0128366D01*
X0033599Y0132970D02*
X0030597Y0132970D01*
X0029846Y0133720D01*
X0029846Y0135222D01*
X0030597Y0135972D01*
X0033599Y0135972D01*
X0034350Y0135222D01*
X0034350Y0133720D01*
X0033599Y0132970D01*
X0034350Y0137574D02*
X0029846Y0137574D01*
X0029846Y0140576D02*
X0034350Y0140576D01*
X0032849Y0139075D01*
X0034350Y0137574D01*
X0202050Y0083754D02*
X0202050Y0079250D01*
X0202050Y0080751D02*
X0204302Y0080751D01*
X0205053Y0081502D01*
X0205053Y0083003D01*
X0204302Y0083754D01*
X0202050Y0083754D01*
X0206654Y0081502D02*
X0209656Y0081502D01*
X0208906Y0079250D02*
X0208906Y0083754D01*
X0206654Y0081502D01*
X0205053Y0079250D02*
X0203551Y0080751D01*
X0225150Y0081002D02*
X0225150Y0079501D01*
X0225901Y0078750D01*
X0227402Y0078750D01*
X0228153Y0079501D01*
X0228153Y0080251D01*
X0227402Y0081002D01*
X0225150Y0081002D01*
X0226651Y0082503D01*
X0228153Y0083254D01*
X0229754Y0082503D02*
X0229754Y0081753D01*
X0230505Y0081002D01*
X0232006Y0081002D01*
X0232756Y0080251D01*
X0232756Y0079501D01*
X0232006Y0078750D01*
X0230505Y0078750D01*
X0229754Y0079501D01*
X0229754Y0080251D01*
X0230505Y0081002D01*
X0232006Y0081002D02*
X0232756Y0081753D01*
X0232756Y0082503D01*
X0232006Y0083254D01*
X0230505Y0083254D01*
X0229754Y0082503D01*
X0234358Y0079501D02*
X0235108Y0079501D01*
X0235108Y0078750D01*
X0234358Y0078750D01*
X0234358Y0079501D01*
X0236660Y0079501D02*
X0237410Y0078750D01*
X0238912Y0078750D01*
X0239662Y0079501D01*
X0239662Y0081002D01*
X0238912Y0081753D01*
X0238161Y0081753D01*
X0236660Y0081002D01*
X0236660Y0083254D01*
X0239662Y0083254D01*
X0241264Y0083254D02*
X0241264Y0078750D01*
X0241264Y0080251D02*
X0243516Y0081753D01*
X0241264Y0080251D02*
X0243516Y0078750D01*
X0214650Y0056937D02*
X0214650Y0055436D01*
X0213899Y0054685D01*
X0210897Y0057688D01*
X0213899Y0057688D01*
X0214650Y0056937D01*
X0213899Y0054685D02*
X0210897Y0054685D01*
X0210146Y0055436D01*
X0210146Y0056937D01*
X0210897Y0057688D01*
X0210897Y0053084D02*
X0213899Y0050081D01*
X0214650Y0050832D01*
X0214650Y0052333D01*
X0213899Y0053084D01*
X0210897Y0053084D01*
X0210146Y0052333D01*
X0210146Y0050832D01*
X0210897Y0050081D01*
X0213899Y0050081D01*
X0213899Y0048480D02*
X0210897Y0048480D01*
X0213899Y0045477D01*
X0214650Y0046228D01*
X0214650Y0047729D01*
X0213899Y0048480D01*
X0210897Y0048480D02*
X0210146Y0047729D01*
X0210146Y0046228D01*
X0210897Y0045477D01*
X0213899Y0045477D01*
X0214650Y0043876D02*
X0214650Y0040874D01*
X0211647Y0043876D01*
X0210897Y0043876D01*
X0210146Y0043125D01*
X0210146Y0041624D01*
X0210897Y0040874D01*
X0212398Y0039272D02*
X0212398Y0036270D01*
X0212398Y0034668D02*
X0213899Y0034668D01*
X0214650Y0033918D01*
X0214650Y0032416D01*
X0213899Y0031666D01*
X0212398Y0031666D02*
X0211647Y0033167D01*
X0211647Y0033918D01*
X0212398Y0034668D01*
X0210146Y0034668D02*
X0210146Y0031666D01*
X0212398Y0031666D01*
X0210897Y0030064D02*
X0213899Y0027062D01*
X0214650Y0027812D01*
X0214650Y0029314D01*
X0213899Y0030064D01*
X0210897Y0030064D01*
X0210146Y0029314D01*
X0210146Y0027812D01*
X0210897Y0027062D01*
X0213899Y0027062D01*
X0213899Y0025460D02*
X0213149Y0025460D01*
X0212398Y0024710D01*
X0212398Y0023208D01*
X0211647Y0022458D01*
X0210897Y0022458D01*
X0210146Y0023208D01*
X0210146Y0024710D01*
X0210897Y0025460D01*
X0211647Y0025460D01*
X0212398Y0024710D01*
X0212398Y0023208D02*
X0213149Y0022458D01*
X0213899Y0022458D01*
X0214650Y0023208D01*
X0214650Y0024710D01*
X0213899Y0025460D01*
X0210897Y0020856D02*
X0213899Y0017854D01*
X0214650Y0017854D01*
X0213149Y0016253D02*
X0210146Y0016253D01*
X0210146Y0017854D02*
X0210146Y0020856D01*
X0210897Y0020856D01*
X0213149Y0016253D02*
X0214650Y0014751D01*
X0213149Y0013250D01*
X0210146Y0013250D01*
X0223400Y0011000D02*
X0234900Y0011500D01*
X0235900Y0012500D01*
X0235900Y0049500D01*
X0234900Y0050500D01*
X0223400Y0051000D01*
X0238697Y0021926D02*
X0237946Y0021175D01*
X0237946Y0019674D01*
X0238697Y0018923D01*
X0238697Y0017322D02*
X0237946Y0016571D01*
X0237946Y0015070D01*
X0238697Y0014319D01*
X0241699Y0014319D01*
X0242450Y0015070D01*
X0242450Y0016571D01*
X0241699Y0017322D01*
X0242450Y0018923D02*
X0239447Y0021926D01*
X0238697Y0021926D01*
X0242450Y0021926D02*
X0242450Y0018923D01*
X0242450Y0012751D02*
X0242450Y0011250D01*
X0242450Y0012001D02*
X0237946Y0012001D01*
X0237946Y0012751D02*
X0237946Y0011250D01*
X0232500Y0013300D02*
X0232502Y0013363D01*
X0232508Y0013425D01*
X0232518Y0013487D01*
X0232531Y0013549D01*
X0232549Y0013609D01*
X0232570Y0013668D01*
X0232595Y0013726D01*
X0232624Y0013782D01*
X0232656Y0013836D01*
X0232691Y0013888D01*
X0232729Y0013937D01*
X0232771Y0013985D01*
X0232815Y0014029D01*
X0232863Y0014071D01*
X0232912Y0014109D01*
X0232964Y0014144D01*
X0233018Y0014176D01*
X0233074Y0014205D01*
X0233132Y0014230D01*
X0233191Y0014251D01*
X0233251Y0014269D01*
X0233313Y0014282D01*
X0233375Y0014292D01*
X0233437Y0014298D01*
X0233500Y0014300D01*
X0233563Y0014298D01*
X0233625Y0014292D01*
X0233687Y0014282D01*
X0233749Y0014269D01*
X0233809Y0014251D01*
X0233868Y0014230D01*
X0233926Y0014205D01*
X0233982Y0014176D01*
X0234036Y0014144D01*
X0234088Y0014109D01*
X0234137Y0014071D01*
X0234185Y0014029D01*
X0234229Y0013985D01*
X0234271Y0013937D01*
X0234309Y0013888D01*
X0234344Y0013836D01*
X0234376Y0013782D01*
X0234405Y0013726D01*
X0234430Y0013668D01*
X0234451Y0013609D01*
X0234469Y0013549D01*
X0234482Y0013487D01*
X0234492Y0013425D01*
X0234498Y0013363D01*
X0234500Y0013300D01*
X0234498Y0013237D01*
X0234492Y0013175D01*
X0234482Y0013113D01*
X0234469Y0013051D01*
X0234451Y0012991D01*
X0234430Y0012932D01*
X0234405Y0012874D01*
X0234376Y0012818D01*
X0234344Y0012764D01*
X0234309Y0012712D01*
X0234271Y0012663D01*
X0234229Y0012615D01*
X0234185Y0012571D01*
X0234137Y0012529D01*
X0234088Y0012491D01*
X0234036Y0012456D01*
X0233982Y0012424D01*
X0233926Y0012395D01*
X0233868Y0012370D01*
X0233809Y0012349D01*
X0233749Y0012331D01*
X0233687Y0012318D01*
X0233625Y0012308D01*
X0233563Y0012302D01*
X0233500Y0012300D01*
X0233437Y0012302D01*
X0233375Y0012308D01*
X0233313Y0012318D01*
X0233251Y0012331D01*
X0233191Y0012349D01*
X0233132Y0012370D01*
X0233074Y0012395D01*
X0233018Y0012424D01*
X0232964Y0012456D01*
X0232912Y0012491D01*
X0232863Y0012529D01*
X0232815Y0012571D01*
X0232771Y0012615D01*
X0232729Y0012663D01*
X0232691Y0012712D01*
X0232656Y0012764D01*
X0232624Y0012818D01*
X0232595Y0012874D01*
X0232570Y0012932D01*
X0232549Y0012991D01*
X0232531Y0013051D01*
X0232518Y0013113D01*
X0232508Y0013175D01*
X0232502Y0013237D01*
X0232500Y0013300D01*
X0326046Y0013250D02*
X0329049Y0013250D01*
X0330550Y0014751D01*
X0329049Y0016253D01*
X0326046Y0016253D01*
X0326046Y0017854D02*
X0326046Y0020856D01*
X0326797Y0020856D01*
X0329799Y0017854D01*
X0330550Y0017854D01*
X0329799Y0022458D02*
X0329049Y0022458D01*
X0328298Y0023208D01*
X0328298Y0024710D01*
X0329049Y0025460D01*
X0329799Y0025460D01*
X0330550Y0024710D01*
X0330550Y0023208D01*
X0329799Y0022458D01*
X0328298Y0023208D02*
X0327547Y0022458D01*
X0326797Y0022458D01*
X0326046Y0023208D01*
X0326046Y0024710D01*
X0326797Y0025460D01*
X0327547Y0025460D01*
X0328298Y0024710D01*
X0326797Y0027062D02*
X0326046Y0027812D01*
X0326046Y0029314D01*
X0326797Y0030064D01*
X0329799Y0027062D01*
X0330550Y0027812D01*
X0330550Y0029314D01*
X0329799Y0030064D01*
X0326797Y0030064D01*
X0326046Y0031666D02*
X0328298Y0031666D01*
X0327547Y0033167D01*
X0327547Y0033918D01*
X0328298Y0034668D01*
X0329799Y0034668D01*
X0330550Y0033918D01*
X0330550Y0032416D01*
X0329799Y0031666D01*
X0326046Y0031666D02*
X0326046Y0034668D01*
X0328298Y0036270D02*
X0328298Y0039272D01*
X0326797Y0040874D02*
X0326046Y0041624D01*
X0326046Y0043125D01*
X0326797Y0043876D01*
X0327547Y0043876D01*
X0330550Y0040874D01*
X0330550Y0043876D01*
X0329799Y0045477D02*
X0326797Y0048480D01*
X0329799Y0048480D01*
X0330550Y0047729D01*
X0330550Y0046228D01*
X0329799Y0045477D01*
X0326797Y0045477D01*
X0326046Y0046228D01*
X0326046Y0047729D01*
X0326797Y0048480D01*
X0326797Y0050081D02*
X0326046Y0050832D01*
X0326046Y0052333D01*
X0326797Y0053084D01*
X0329799Y0050081D01*
X0330550Y0050832D01*
X0330550Y0052333D01*
X0329799Y0053084D01*
X0326797Y0053084D01*
X0326797Y0054685D02*
X0326046Y0055436D01*
X0326046Y0056937D01*
X0326797Y0057688D01*
X0329799Y0054685D01*
X0330550Y0055436D01*
X0330550Y0056937D01*
X0329799Y0057688D01*
X0326797Y0057688D01*
X0326797Y0054685D02*
X0329799Y0054685D01*
X0329799Y0050081D02*
X0326797Y0050081D01*
X0338300Y0051000D02*
X0349800Y0050500D01*
X0350800Y0049500D01*
X0350800Y0012500D01*
X0349800Y0011500D01*
X0338300Y0011000D01*
X0347400Y0013300D02*
X0347402Y0013363D01*
X0347408Y0013425D01*
X0347418Y0013487D01*
X0347431Y0013549D01*
X0347449Y0013609D01*
X0347470Y0013668D01*
X0347495Y0013726D01*
X0347524Y0013782D01*
X0347556Y0013836D01*
X0347591Y0013888D01*
X0347629Y0013937D01*
X0347671Y0013985D01*
X0347715Y0014029D01*
X0347763Y0014071D01*
X0347812Y0014109D01*
X0347864Y0014144D01*
X0347918Y0014176D01*
X0347974Y0014205D01*
X0348032Y0014230D01*
X0348091Y0014251D01*
X0348151Y0014269D01*
X0348213Y0014282D01*
X0348275Y0014292D01*
X0348337Y0014298D01*
X0348400Y0014300D01*
X0348463Y0014298D01*
X0348525Y0014292D01*
X0348587Y0014282D01*
X0348649Y0014269D01*
X0348709Y0014251D01*
X0348768Y0014230D01*
X0348826Y0014205D01*
X0348882Y0014176D01*
X0348936Y0014144D01*
X0348988Y0014109D01*
X0349037Y0014071D01*
X0349085Y0014029D01*
X0349129Y0013985D01*
X0349171Y0013937D01*
X0349209Y0013888D01*
X0349244Y0013836D01*
X0349276Y0013782D01*
X0349305Y0013726D01*
X0349330Y0013668D01*
X0349351Y0013609D01*
X0349369Y0013549D01*
X0349382Y0013487D01*
X0349392Y0013425D01*
X0349398Y0013363D01*
X0349400Y0013300D01*
X0349398Y0013237D01*
X0349392Y0013175D01*
X0349382Y0013113D01*
X0349369Y0013051D01*
X0349351Y0012991D01*
X0349330Y0012932D01*
X0349305Y0012874D01*
X0349276Y0012818D01*
X0349244Y0012764D01*
X0349209Y0012712D01*
X0349171Y0012663D01*
X0349129Y0012615D01*
X0349085Y0012571D01*
X0349037Y0012529D01*
X0348988Y0012491D01*
X0348936Y0012456D01*
X0348882Y0012424D01*
X0348826Y0012395D01*
X0348768Y0012370D01*
X0348709Y0012349D01*
X0348649Y0012331D01*
X0348587Y0012318D01*
X0348525Y0012308D01*
X0348463Y0012302D01*
X0348400Y0012300D01*
X0348337Y0012302D01*
X0348275Y0012308D01*
X0348213Y0012318D01*
X0348151Y0012331D01*
X0348091Y0012349D01*
X0348032Y0012370D01*
X0347974Y0012395D01*
X0347918Y0012424D01*
X0347864Y0012456D01*
X0347812Y0012491D01*
X0347763Y0012529D01*
X0347715Y0012571D01*
X0347671Y0012615D01*
X0347629Y0012663D01*
X0347591Y0012712D01*
X0347556Y0012764D01*
X0347524Y0012818D01*
X0347495Y0012874D01*
X0347470Y0012932D01*
X0347449Y0012991D01*
X0347431Y0013051D01*
X0347418Y0013113D01*
X0347408Y0013175D01*
X0347402Y0013237D01*
X0347400Y0013300D01*
X0352846Y0012751D02*
X0352846Y0011250D01*
X0352846Y0012001D02*
X0357350Y0012001D01*
X0357350Y0012751D02*
X0357350Y0011250D01*
X0356599Y0014319D02*
X0353597Y0014319D01*
X0352846Y0015070D01*
X0352846Y0016571D01*
X0353597Y0017322D01*
X0354347Y0018923D02*
X0352846Y0020424D01*
X0357350Y0020424D01*
X0357350Y0018923D02*
X0357350Y0021926D01*
X0356599Y0017322D02*
X0357350Y0016571D01*
X0357350Y0015070D01*
X0356599Y0014319D01*
X0329799Y0027062D02*
X0326797Y0027062D01*
X0373750Y0049201D02*
X0374501Y0048450D01*
X0376002Y0048450D01*
X0376753Y0049201D01*
X0376753Y0049951D01*
X0376002Y0050702D01*
X0374501Y0050702D01*
X0373750Y0051453D01*
X0373750Y0052203D01*
X0374501Y0052954D01*
X0376002Y0052954D01*
X0376753Y0052203D01*
X0378354Y0052954D02*
X0381356Y0052954D01*
X0379855Y0052954D02*
X0379855Y0048450D01*
X0382958Y0048450D02*
X0385960Y0048450D01*
X0387562Y0048450D02*
X0387562Y0052954D01*
X0389814Y0052954D01*
X0390564Y0052203D01*
X0390564Y0050702D01*
X0389814Y0049951D01*
X0387562Y0049951D01*
X0384459Y0050702D02*
X0382958Y0050702D01*
X0382958Y0052954D02*
X0382958Y0048450D01*
X0382958Y0052954D02*
X0385960Y0052954D01*
X0392166Y0047699D02*
X0395168Y0047699D01*
X0396770Y0049201D02*
X0397520Y0048450D01*
X0399022Y0048450D01*
X0399772Y0049201D01*
X0399772Y0050702D01*
X0398271Y0050702D01*
X0399772Y0052203D02*
X0399022Y0052954D01*
X0397520Y0052954D01*
X0396770Y0052203D01*
X0396770Y0049201D01*
X0401374Y0049951D02*
X0403625Y0049951D01*
X0404376Y0050702D01*
X0404376Y0052203D01*
X0403625Y0052954D01*
X0401374Y0052954D01*
X0401374Y0048450D01*
X0405977Y0048450D02*
X0407479Y0048450D01*
X0406728Y0048450D02*
X0406728Y0052954D01*
X0405977Y0052954D02*
X0407479Y0052954D01*
X0409047Y0052203D02*
X0409047Y0049201D01*
X0409797Y0048450D01*
X0411299Y0048450D01*
X0412049Y0049201D01*
X0412049Y0052203D01*
X0411299Y0052954D01*
X0409797Y0052954D01*
X0409047Y0052203D01*
X0418750Y0052203D02*
X0418750Y0051453D01*
X0419501Y0050702D01*
X0421002Y0050702D01*
X0421753Y0049951D01*
X0421753Y0049201D01*
X0421002Y0048450D01*
X0419501Y0048450D01*
X0418750Y0049201D01*
X0418750Y0052203D02*
X0419501Y0052954D01*
X0421002Y0052954D01*
X0421753Y0052203D01*
X0423354Y0052954D02*
X0426356Y0052954D01*
X0424855Y0052954D02*
X0424855Y0048450D01*
X0427958Y0048450D02*
X0430960Y0048450D01*
X0432562Y0048450D02*
X0432562Y0052954D01*
X0434814Y0052954D01*
X0435564Y0052203D01*
X0435564Y0050702D01*
X0434814Y0049951D01*
X0432562Y0049951D01*
X0429459Y0050702D02*
X0427958Y0050702D01*
X0427958Y0052954D02*
X0427958Y0048450D01*
X0427958Y0052954D02*
X0430960Y0052954D01*
X0437166Y0047699D02*
X0440168Y0047699D01*
X0441770Y0048450D02*
X0441770Y0052954D01*
X0444022Y0052954D01*
X0444772Y0052203D01*
X0444772Y0050702D01*
X0444022Y0049951D01*
X0441770Y0049951D01*
X0446374Y0049201D02*
X0447124Y0048450D01*
X0448625Y0048450D01*
X0449376Y0049201D01*
X0449376Y0052203D01*
X0448625Y0052954D01*
X0447124Y0052954D01*
X0446374Y0052203D01*
X0446374Y0049201D01*
X0450977Y0048450D02*
X0452479Y0049951D01*
X0453980Y0048450D01*
X0453980Y0052954D01*
X0450977Y0052954D02*
X0450977Y0048450D01*
X0391914Y0109000D02*
X0391916Y0109136D01*
X0391922Y0109272D01*
X0391932Y0109408D01*
X0391946Y0109544D01*
X0391963Y0109679D01*
X0391985Y0109814D01*
X0392011Y0109948D01*
X0392040Y0110081D01*
X0392074Y0110213D01*
X0392111Y0110344D01*
X0392152Y0110474D01*
X0392197Y0110603D01*
X0392245Y0110730D01*
X0392297Y0110856D01*
X0392353Y0110980D01*
X0392412Y0111103D01*
X0392475Y0111224D01*
X0392542Y0111343D01*
X0392612Y0111460D01*
X0392685Y0111575D01*
X0392761Y0111688D01*
X0392841Y0111798D01*
X0392924Y0111906D01*
X0393010Y0112012D01*
X0393099Y0112115D01*
X0393192Y0112216D01*
X0393286Y0112314D01*
X0393384Y0112408D01*
X0393485Y0112501D01*
X0393588Y0112590D01*
X0393694Y0112676D01*
X0393802Y0112759D01*
X0393912Y0112839D01*
X0394025Y0112915D01*
X0394140Y0112988D01*
X0394257Y0113058D01*
X0394376Y0113125D01*
X0394497Y0113188D01*
X0394620Y0113247D01*
X0394744Y0113303D01*
X0394870Y0113355D01*
X0394997Y0113403D01*
X0395126Y0113448D01*
X0395256Y0113489D01*
X0395387Y0113526D01*
X0395519Y0113560D01*
X0395652Y0113589D01*
X0395786Y0113615D01*
X0395921Y0113637D01*
X0396056Y0113654D01*
X0396192Y0113668D01*
X0396328Y0113678D01*
X0396464Y0113684D01*
X0396600Y0113686D01*
X0396736Y0113684D01*
X0396872Y0113678D01*
X0397008Y0113668D01*
X0397144Y0113654D01*
X0397279Y0113637D01*
X0397414Y0113615D01*
X0397548Y0113589D01*
X0397681Y0113560D01*
X0397813Y0113526D01*
X0397944Y0113489D01*
X0398074Y0113448D01*
X0398203Y0113403D01*
X0398330Y0113355D01*
X0398456Y0113303D01*
X0398580Y0113247D01*
X0398703Y0113188D01*
X0398824Y0113125D01*
X0398943Y0113058D01*
X0399060Y0112988D01*
X0399175Y0112915D01*
X0399288Y0112839D01*
X0399398Y0112759D01*
X0399506Y0112676D01*
X0399612Y0112590D01*
X0399715Y0112501D01*
X0399816Y0112408D01*
X0399914Y0112314D01*
X0400008Y0112216D01*
X0400101Y0112115D01*
X0400190Y0112012D01*
X0400276Y0111906D01*
X0400359Y0111798D01*
X0400439Y0111688D01*
X0400515Y0111575D01*
X0400588Y0111460D01*
X0400658Y0111343D01*
X0400725Y0111224D01*
X0400788Y0111103D01*
X0400847Y0110980D01*
X0400903Y0110856D01*
X0400955Y0110730D01*
X0401003Y0110603D01*
X0401048Y0110474D01*
X0401089Y0110344D01*
X0401126Y0110213D01*
X0401160Y0110081D01*
X0401189Y0109948D01*
X0401215Y0109814D01*
X0401237Y0109679D01*
X0401254Y0109544D01*
X0401268Y0109408D01*
X0401278Y0109272D01*
X0401284Y0109136D01*
X0401286Y0109000D01*
X0401284Y0108864D01*
X0401278Y0108728D01*
X0401268Y0108592D01*
X0401254Y0108456D01*
X0401237Y0108321D01*
X0401215Y0108186D01*
X0401189Y0108052D01*
X0401160Y0107919D01*
X0401126Y0107787D01*
X0401089Y0107656D01*
X0401048Y0107526D01*
X0401003Y0107397D01*
X0400955Y0107270D01*
X0400903Y0107144D01*
X0400847Y0107020D01*
X0400788Y0106897D01*
X0400725Y0106776D01*
X0400658Y0106657D01*
X0400588Y0106540D01*
X0400515Y0106425D01*
X0400439Y0106312D01*
X0400359Y0106202D01*
X0400276Y0106094D01*
X0400190Y0105988D01*
X0400101Y0105885D01*
X0400008Y0105784D01*
X0399914Y0105686D01*
X0399816Y0105592D01*
X0399715Y0105499D01*
X0399612Y0105410D01*
X0399506Y0105324D01*
X0399398Y0105241D01*
X0399288Y0105161D01*
X0399175Y0105085D01*
X0399060Y0105012D01*
X0398943Y0104942D01*
X0398824Y0104875D01*
X0398703Y0104812D01*
X0398580Y0104753D01*
X0398456Y0104697D01*
X0398330Y0104645D01*
X0398203Y0104597D01*
X0398074Y0104552D01*
X0397944Y0104511D01*
X0397813Y0104474D01*
X0397681Y0104440D01*
X0397548Y0104411D01*
X0397414Y0104385D01*
X0397279Y0104363D01*
X0397144Y0104346D01*
X0397008Y0104332D01*
X0396872Y0104322D01*
X0396736Y0104316D01*
X0396600Y0104314D01*
X0396464Y0104316D01*
X0396328Y0104322D01*
X0396192Y0104332D01*
X0396056Y0104346D01*
X0395921Y0104363D01*
X0395786Y0104385D01*
X0395652Y0104411D01*
X0395519Y0104440D01*
X0395387Y0104474D01*
X0395256Y0104511D01*
X0395126Y0104552D01*
X0394997Y0104597D01*
X0394870Y0104645D01*
X0394744Y0104697D01*
X0394620Y0104753D01*
X0394497Y0104812D01*
X0394376Y0104875D01*
X0394257Y0104942D01*
X0394140Y0105012D01*
X0394025Y0105085D01*
X0393912Y0105161D01*
X0393802Y0105241D01*
X0393694Y0105324D01*
X0393588Y0105410D01*
X0393485Y0105499D01*
X0393384Y0105592D01*
X0393286Y0105686D01*
X0393192Y0105784D01*
X0393099Y0105885D01*
X0393010Y0105988D01*
X0392924Y0106094D01*
X0392841Y0106202D01*
X0392761Y0106312D01*
X0392685Y0106425D01*
X0392612Y0106540D01*
X0392542Y0106657D01*
X0392475Y0106776D01*
X0392412Y0106897D01*
X0392353Y0107020D01*
X0392297Y0107144D01*
X0392245Y0107270D01*
X0392197Y0107397D01*
X0392152Y0107526D01*
X0392111Y0107656D01*
X0392074Y0107787D01*
X0392040Y0107919D01*
X0392011Y0108052D01*
X0391985Y0108186D01*
X0391963Y0108321D01*
X0391946Y0108456D01*
X0391932Y0108592D01*
X0391922Y0108728D01*
X0391916Y0108864D01*
X0391914Y0109000D01*
X0391914Y0169000D02*
X0391916Y0169136D01*
X0391922Y0169272D01*
X0391932Y0169408D01*
X0391946Y0169544D01*
X0391963Y0169679D01*
X0391985Y0169814D01*
X0392011Y0169948D01*
X0392040Y0170081D01*
X0392074Y0170213D01*
X0392111Y0170344D01*
X0392152Y0170474D01*
X0392197Y0170603D01*
X0392245Y0170730D01*
X0392297Y0170856D01*
X0392353Y0170980D01*
X0392412Y0171103D01*
X0392475Y0171224D01*
X0392542Y0171343D01*
X0392612Y0171460D01*
X0392685Y0171575D01*
X0392761Y0171688D01*
X0392841Y0171798D01*
X0392924Y0171906D01*
X0393010Y0172012D01*
X0393099Y0172115D01*
X0393192Y0172216D01*
X0393286Y0172314D01*
X0393384Y0172408D01*
X0393485Y0172501D01*
X0393588Y0172590D01*
X0393694Y0172676D01*
X0393802Y0172759D01*
X0393912Y0172839D01*
X0394025Y0172915D01*
X0394140Y0172988D01*
X0394257Y0173058D01*
X0394376Y0173125D01*
X0394497Y0173188D01*
X0394620Y0173247D01*
X0394744Y0173303D01*
X0394870Y0173355D01*
X0394997Y0173403D01*
X0395126Y0173448D01*
X0395256Y0173489D01*
X0395387Y0173526D01*
X0395519Y0173560D01*
X0395652Y0173589D01*
X0395786Y0173615D01*
X0395921Y0173637D01*
X0396056Y0173654D01*
X0396192Y0173668D01*
X0396328Y0173678D01*
X0396464Y0173684D01*
X0396600Y0173686D01*
X0396736Y0173684D01*
X0396872Y0173678D01*
X0397008Y0173668D01*
X0397144Y0173654D01*
X0397279Y0173637D01*
X0397414Y0173615D01*
X0397548Y0173589D01*
X0397681Y0173560D01*
X0397813Y0173526D01*
X0397944Y0173489D01*
X0398074Y0173448D01*
X0398203Y0173403D01*
X0398330Y0173355D01*
X0398456Y0173303D01*
X0398580Y0173247D01*
X0398703Y0173188D01*
X0398824Y0173125D01*
X0398943Y0173058D01*
X0399060Y0172988D01*
X0399175Y0172915D01*
X0399288Y0172839D01*
X0399398Y0172759D01*
X0399506Y0172676D01*
X0399612Y0172590D01*
X0399715Y0172501D01*
X0399816Y0172408D01*
X0399914Y0172314D01*
X0400008Y0172216D01*
X0400101Y0172115D01*
X0400190Y0172012D01*
X0400276Y0171906D01*
X0400359Y0171798D01*
X0400439Y0171688D01*
X0400515Y0171575D01*
X0400588Y0171460D01*
X0400658Y0171343D01*
X0400725Y0171224D01*
X0400788Y0171103D01*
X0400847Y0170980D01*
X0400903Y0170856D01*
X0400955Y0170730D01*
X0401003Y0170603D01*
X0401048Y0170474D01*
X0401089Y0170344D01*
X0401126Y0170213D01*
X0401160Y0170081D01*
X0401189Y0169948D01*
X0401215Y0169814D01*
X0401237Y0169679D01*
X0401254Y0169544D01*
X0401268Y0169408D01*
X0401278Y0169272D01*
X0401284Y0169136D01*
X0401286Y0169000D01*
X0401284Y0168864D01*
X0401278Y0168728D01*
X0401268Y0168592D01*
X0401254Y0168456D01*
X0401237Y0168321D01*
X0401215Y0168186D01*
X0401189Y0168052D01*
X0401160Y0167919D01*
X0401126Y0167787D01*
X0401089Y0167656D01*
X0401048Y0167526D01*
X0401003Y0167397D01*
X0400955Y0167270D01*
X0400903Y0167144D01*
X0400847Y0167020D01*
X0400788Y0166897D01*
X0400725Y0166776D01*
X0400658Y0166657D01*
X0400588Y0166540D01*
X0400515Y0166425D01*
X0400439Y0166312D01*
X0400359Y0166202D01*
X0400276Y0166094D01*
X0400190Y0165988D01*
X0400101Y0165885D01*
X0400008Y0165784D01*
X0399914Y0165686D01*
X0399816Y0165592D01*
X0399715Y0165499D01*
X0399612Y0165410D01*
X0399506Y0165324D01*
X0399398Y0165241D01*
X0399288Y0165161D01*
X0399175Y0165085D01*
X0399060Y0165012D01*
X0398943Y0164942D01*
X0398824Y0164875D01*
X0398703Y0164812D01*
X0398580Y0164753D01*
X0398456Y0164697D01*
X0398330Y0164645D01*
X0398203Y0164597D01*
X0398074Y0164552D01*
X0397944Y0164511D01*
X0397813Y0164474D01*
X0397681Y0164440D01*
X0397548Y0164411D01*
X0397414Y0164385D01*
X0397279Y0164363D01*
X0397144Y0164346D01*
X0397008Y0164332D01*
X0396872Y0164322D01*
X0396736Y0164316D01*
X0396600Y0164314D01*
X0396464Y0164316D01*
X0396328Y0164322D01*
X0396192Y0164332D01*
X0396056Y0164346D01*
X0395921Y0164363D01*
X0395786Y0164385D01*
X0395652Y0164411D01*
X0395519Y0164440D01*
X0395387Y0164474D01*
X0395256Y0164511D01*
X0395126Y0164552D01*
X0394997Y0164597D01*
X0394870Y0164645D01*
X0394744Y0164697D01*
X0394620Y0164753D01*
X0394497Y0164812D01*
X0394376Y0164875D01*
X0394257Y0164942D01*
X0394140Y0165012D01*
X0394025Y0165085D01*
X0393912Y0165161D01*
X0393802Y0165241D01*
X0393694Y0165324D01*
X0393588Y0165410D01*
X0393485Y0165499D01*
X0393384Y0165592D01*
X0393286Y0165686D01*
X0393192Y0165784D01*
X0393099Y0165885D01*
X0393010Y0165988D01*
X0392924Y0166094D01*
X0392841Y0166202D01*
X0392761Y0166312D01*
X0392685Y0166425D01*
X0392612Y0166540D01*
X0392542Y0166657D01*
X0392475Y0166776D01*
X0392412Y0166897D01*
X0392353Y0167020D01*
X0392297Y0167144D01*
X0392245Y0167270D01*
X0392197Y0167397D01*
X0392152Y0167526D01*
X0392111Y0167656D01*
X0392074Y0167787D01*
X0392040Y0167919D01*
X0392011Y0168052D01*
X0391985Y0168186D01*
X0391963Y0168321D01*
X0391946Y0168456D01*
X0391932Y0168592D01*
X0391922Y0168728D01*
X0391916Y0168864D01*
X0391914Y0169000D01*
X0420750Y0182450D02*
X0420750Y0186954D01*
X0423002Y0186954D01*
X0423753Y0186203D01*
X0423753Y0184702D01*
X0423002Y0183951D01*
X0420750Y0183951D01*
X0425354Y0183201D02*
X0425354Y0186954D01*
X0428356Y0186954D02*
X0428356Y0183201D01*
X0427606Y0182450D01*
X0426105Y0182450D01*
X0425354Y0183201D01*
X0429958Y0182450D02*
X0429958Y0186954D01*
X0431459Y0185453D01*
X0432960Y0186954D01*
X0432960Y0182450D01*
X0434562Y0182450D02*
X0434562Y0186954D01*
X0436814Y0186954D01*
X0437564Y0186203D01*
X0437564Y0184702D01*
X0436814Y0183951D01*
X0434562Y0183951D01*
X0439166Y0181699D02*
X0442168Y0181699D01*
X0443770Y0182450D02*
X0443770Y0186954D01*
X0446022Y0186954D01*
X0446772Y0186203D01*
X0446772Y0184702D01*
X0446022Y0183951D01*
X0443770Y0183951D01*
X0448374Y0183201D02*
X0448374Y0186203D01*
X0449124Y0186954D01*
X0450625Y0186954D01*
X0451376Y0186203D01*
X0451376Y0183201D01*
X0450625Y0182450D01*
X0449124Y0182450D01*
X0448374Y0183201D01*
X0452977Y0182450D02*
X0452977Y0186954D01*
X0455980Y0186954D02*
X0455980Y0182450D01*
X0454479Y0183951D01*
X0452977Y0182450D01*
X0401550Y0196250D02*
X0398547Y0199253D01*
X0397797Y0199253D01*
X0397046Y0198502D01*
X0397046Y0197001D01*
X0397797Y0196250D01*
X0395300Y0197752D02*
X0395300Y0214248D01*
X0397046Y0215416D02*
X0397046Y0216918D01*
X0397797Y0217668D01*
X0400799Y0214666D01*
X0401550Y0215416D01*
X0401550Y0216918D01*
X0400799Y0217668D01*
X0397797Y0217668D01*
X0398547Y0219270D02*
X0397046Y0220771D01*
X0401550Y0220771D01*
X0401550Y0219270D02*
X0401550Y0222272D01*
X0400799Y0214666D02*
X0397797Y0214666D01*
X0397046Y0215416D01*
X0397046Y0212314D02*
X0399298Y0210062D01*
X0399298Y0213064D01*
X0401550Y0212314D02*
X0397046Y0212314D01*
X0399298Y0208460D02*
X0399298Y0205458D01*
X0397046Y0207710D01*
X0401550Y0207710D01*
X0401550Y0203856D02*
X0397046Y0203856D01*
X0397046Y0200854D02*
X0401550Y0203856D01*
X0401550Y0200854D02*
X0397046Y0200854D01*
X0401550Y0199253D02*
X0401550Y0196250D01*
X0389300Y0200472D02*
X0389300Y0201528D01*
X0393272Y0196498D02*
X0393487Y0196602D01*
X0393700Y0196711D01*
X0393910Y0196825D01*
X0394117Y0196944D01*
X0394322Y0197067D01*
X0394524Y0197195D01*
X0394723Y0197328D01*
X0394918Y0197465D01*
X0395111Y0197606D01*
X0395300Y0197752D01*
X0384328Y0196500D02*
X0384098Y0196612D01*
X0383871Y0196729D01*
X0383647Y0196851D01*
X0383426Y0196979D01*
X0383209Y0197113D01*
X0382994Y0197251D01*
X0382783Y0197395D01*
X0382576Y0197544D01*
X0382372Y0197698D01*
X0382172Y0197856D01*
X0381976Y0198020D01*
X0381784Y0198188D01*
X0381596Y0198361D01*
X0381412Y0198539D01*
X0381233Y0198720D01*
X0381058Y0198907D01*
X0380888Y0199097D01*
X0380723Y0199291D01*
X0380562Y0199490D01*
X0380406Y0199692D01*
X0380255Y0199898D01*
X0380109Y0200108D01*
X0379969Y0200321D01*
X0379833Y0200537D01*
X0379703Y0200757D01*
X0379578Y0200980D01*
X0379459Y0201205D01*
X0379345Y0201434D01*
X0379237Y0201665D01*
X0379134Y0201899D01*
X0379037Y0202135D01*
X0378946Y0202374D01*
X0378861Y0202614D01*
X0378781Y0202857D01*
X0378708Y0203102D01*
X0378640Y0203348D01*
X0378579Y0203596D01*
X0378524Y0203845D01*
X0378474Y0204095D01*
X0378431Y0204347D01*
X0378394Y0204600D01*
X0378363Y0204853D01*
X0378338Y0205107D01*
X0378319Y0205362D01*
X0378307Y0205617D01*
X0378301Y0205872D01*
X0378301Y0206128D01*
X0378307Y0206383D01*
X0378319Y0206638D01*
X0378338Y0206893D01*
X0378363Y0207147D01*
X0378394Y0207400D01*
X0378431Y0207653D01*
X0378474Y0207905D01*
X0378524Y0208155D01*
X0378579Y0208404D01*
X0378640Y0208652D01*
X0378708Y0208898D01*
X0378781Y0209143D01*
X0378861Y0209386D01*
X0378946Y0209626D01*
X0379037Y0209865D01*
X0379134Y0210101D01*
X0379237Y0210335D01*
X0379345Y0210566D01*
X0379459Y0210795D01*
X0379578Y0211020D01*
X0379703Y0211243D01*
X0379833Y0211463D01*
X0379969Y0211679D01*
X0380109Y0211892D01*
X0380255Y0212102D01*
X0380406Y0212308D01*
X0380562Y0212510D01*
X0380723Y0212709D01*
X0380888Y0212903D01*
X0381058Y0213093D01*
X0381233Y0213280D01*
X0381412Y0213461D01*
X0381596Y0213639D01*
X0381784Y0213812D01*
X0381976Y0213980D01*
X0382172Y0214144D01*
X0382372Y0214302D01*
X0382576Y0214456D01*
X0382783Y0214605D01*
X0382994Y0214749D01*
X0383209Y0214887D01*
X0383426Y0215021D01*
X0383647Y0215149D01*
X0383871Y0215271D01*
X0384098Y0215388D01*
X0384328Y0215500D01*
X0389300Y0211528D02*
X0389300Y0210472D01*
X0393178Y0215546D02*
X0393403Y0215439D01*
X0393626Y0215327D01*
X0393846Y0215210D01*
X0394063Y0215088D01*
X0394278Y0214960D01*
X0394489Y0214827D01*
X0394697Y0214690D01*
X0394901Y0214547D01*
X0395103Y0214400D01*
X0395300Y0214248D01*
X0376550Y0203856D02*
X0376550Y0200854D01*
X0376550Y0202355D02*
X0372046Y0202355D01*
X0373547Y0200854D01*
X0372046Y0199253D02*
X0372046Y0196250D01*
X0372046Y0197751D02*
X0376550Y0197751D01*
X0335250Y0208973D02*
X0335250Y0210474D01*
X0335250Y0209723D02*
X0330746Y0209723D01*
X0330746Y0208973D02*
X0330746Y0210474D01*
X0331497Y0212042D02*
X0334499Y0212042D01*
X0335250Y0212793D01*
X0335250Y0214294D01*
X0334499Y0215045D01*
X0334499Y0216646D02*
X0335250Y0217397D01*
X0335250Y0218898D01*
X0334499Y0219649D01*
X0333749Y0219649D01*
X0332998Y0218898D01*
X0332998Y0218147D01*
X0332998Y0218898D02*
X0332247Y0219649D01*
X0331497Y0219649D01*
X0330746Y0218898D01*
X0330746Y0217397D01*
X0331497Y0216646D01*
X0331497Y0215045D02*
X0330746Y0214294D01*
X0330746Y0212793D01*
X0331497Y0212042D01*
X0328550Y0212793D02*
X0327799Y0212042D01*
X0328550Y0212793D02*
X0328550Y0214294D01*
X0327799Y0215045D01*
X0327049Y0215045D01*
X0326298Y0214294D01*
X0326298Y0213543D01*
X0326298Y0214294D02*
X0325547Y0215045D01*
X0324797Y0215045D01*
X0324046Y0214294D01*
X0324046Y0212793D01*
X0324797Y0212042D01*
X0324797Y0210441D02*
X0325547Y0210441D01*
X0326298Y0209690D01*
X0327049Y0210441D01*
X0327799Y0210441D01*
X0328550Y0209690D01*
X0328550Y0208189D01*
X0327799Y0207438D01*
X0327799Y0205837D02*
X0324797Y0205837D01*
X0324046Y0205086D01*
X0324046Y0202834D01*
X0328550Y0202834D01*
X0328550Y0205086D01*
X0327799Y0205837D01*
X0324797Y0207438D02*
X0324046Y0208189D01*
X0324046Y0209690D01*
X0324797Y0210441D01*
X0326298Y0209690D02*
X0326298Y0208939D01*
X0327049Y0216646D02*
X0328550Y0218147D01*
X0327049Y0219649D01*
X0324046Y0219649D01*
X0324046Y0216646D02*
X0327049Y0216646D01*
X0328550Y0201233D02*
X0328550Y0198230D01*
X0324046Y0198230D01*
X0418138Y0220750D02*
X0421141Y0223753D01*
X0421141Y0224503D01*
X0420390Y0225254D01*
X0418889Y0225254D01*
X0418138Y0224503D01*
X0418138Y0220750D02*
X0421141Y0220750D01*
X0422742Y0220750D02*
X0425745Y0223753D01*
X0425745Y0224503D01*
X0424994Y0225254D01*
X0423493Y0225254D01*
X0422742Y0224503D01*
X0422742Y0220750D02*
X0425745Y0220750D01*
X0427346Y0221501D02*
X0430349Y0224503D01*
X0430349Y0221501D01*
X0429598Y0220750D01*
X0428097Y0220750D01*
X0427346Y0221501D01*
X0427346Y0224503D01*
X0428097Y0225254D01*
X0429598Y0225254D01*
X0430349Y0224503D01*
X0425449Y0230001D02*
X0424698Y0229250D01*
X0423197Y0229250D01*
X0422446Y0230001D01*
X0422446Y0231502D02*
X0423947Y0232253D01*
X0424698Y0232253D01*
X0425449Y0231502D01*
X0425449Y0230001D01*
X0422446Y0231502D02*
X0422446Y0233754D01*
X0425449Y0233754D01*
X0420845Y0233003D02*
X0420845Y0231502D01*
X0420094Y0230751D01*
X0417842Y0230751D01*
X0417842Y0229250D02*
X0417842Y0233754D01*
X0420094Y0233754D01*
X0420845Y0233003D01*
X0419343Y0230751D02*
X0420845Y0229250D01*
D20*
X0335300Y0031000D03*
X0220400Y0031000D03*
D21*
X0222900Y0013750D03*
X0222900Y0048250D03*
X0337800Y0048250D03*
X0337800Y0013750D03*
D22*
X0337800Y0026000D03*
X0337800Y0036000D03*
X0222900Y0036000D03*
X0222900Y0026000D03*
D23*
X0339200Y0219200D03*
D24*
X0351300Y0218250D03*
X0351300Y0183750D03*
D25*
X0352300Y0191000D03*
X0352300Y0201000D03*
X0352300Y0211000D03*
D26*
X0351300Y0206000D03*
X0351300Y0196000D03*
D27*
X0273682Y0152398D03*
X0273682Y0102398D03*
D28*
X0020871Y0182500D02*
X0019870Y0182500D01*
X0019397Y0183000D02*
X0019147Y0182750D01*
X0018397Y0182750D01*
X0018397Y0184251D01*
X0019147Y0184251D01*
X0019397Y0184001D01*
X0019397Y0183751D01*
X0019147Y0183501D01*
X0018397Y0183501D01*
X0017924Y0183250D02*
X0017924Y0183000D01*
X0017674Y0182750D01*
X0017173Y0182750D01*
X0016923Y0183000D01*
X0016451Y0183000D02*
X0016451Y0184251D01*
X0016923Y0184001D02*
X0016923Y0183751D01*
X0017173Y0183501D01*
X0017674Y0183501D01*
X0017924Y0183250D01*
X0017924Y0184001D02*
X0017674Y0184251D01*
X0017173Y0184251D01*
X0016923Y0184001D01*
X0016451Y0183000D02*
X0016201Y0182750D01*
X0015700Y0182750D01*
X0015450Y0183000D01*
X0015450Y0184251D01*
X0019147Y0183501D02*
X0019397Y0183250D01*
X0019397Y0183000D01*
X0019147Y0207750D02*
X0018647Y0207750D01*
X0018397Y0208000D01*
X0017924Y0208501D02*
X0017674Y0208250D01*
X0016923Y0208250D01*
X0016923Y0207750D02*
X0016923Y0209251D01*
X0017674Y0209251D01*
X0017924Y0209001D01*
X0017924Y0208501D01*
X0018397Y0209001D02*
X0018647Y0209251D01*
X0019147Y0209251D01*
X0019397Y0209001D01*
X0019397Y0208751D01*
X0019147Y0208501D01*
X0019397Y0208250D01*
X0019397Y0208000D01*
X0019147Y0207750D01*
X0019147Y0208501D02*
X0018897Y0208501D01*
X0016451Y0209251D02*
X0015950Y0209251D01*
X0016201Y0209251D02*
X0016201Y0208000D01*
X0015950Y0207750D01*
X0015700Y0207750D01*
X0015450Y0208000D01*
X0200849Y0263631D02*
X0200849Y0264131D01*
X0200849Y0263881D02*
X0202100Y0263881D01*
X0202350Y0263631D01*
X0202350Y0263380D01*
X0202100Y0263130D01*
X0202350Y0264603D02*
X0200849Y0264603D01*
X0200849Y0265354D01*
X0201099Y0265604D01*
X0201599Y0265604D01*
X0201850Y0265354D01*
X0201850Y0264603D01*
X0202350Y0266077D02*
X0201349Y0267078D01*
X0201099Y0267078D01*
X0200849Y0266827D01*
X0200849Y0266327D01*
X0201099Y0266077D01*
X0202350Y0266077D02*
X0202350Y0267078D01*
D29*
X0219600Y0166000D03*
X0248000Y0166000D03*
X0248000Y0136000D03*
X0219600Y0136000D03*
X0219600Y0109000D03*
X0248000Y0109000D03*
X0248000Y0081000D03*
X0219600Y0081000D03*
X0408600Y0223000D03*
X0437000Y0223000D03*
M02*
