%
M48
M72
T01C0.02362
T02C0.02400
T03C0.02756
T04C0.03200
T05C0.03543
T06C0.03937
T07C0.04000
T08C0.09100
T09C0.20000
%
T01
X296600Y120600
X301600Y93400
X311800Y93300
X324000Y146100
T02
X347800Y245500
T03
X243443Y151000
X223757Y151000
X258957Y121000
X278643Y121000
X243643Y96000
X223957Y96000
X258957Y66000
X278643Y66000
T04
X253800Y81000
X213800Y81000
X213800Y109000
X253800Y109000
X253800Y136000
X213800Y136000
X213800Y166000
X253800Y166000
X248800Y191000
X238800Y191000
X228800Y191000
X258800Y191000
X268800Y191000
X278800Y191000
X288800Y191000
X298800Y191000
X298800Y221000
X288800Y221000
X278800Y221000
X268800Y221000
X258800Y221000
X248800Y221000
X238800Y221000
X228800Y221000
X180800Y241800
X150800Y241800
X121300Y243500
X91300Y243500
X388800Y216000
X388800Y206000
X388800Y196000
X402800Y223000
X442800Y223000
T05
X430300Y171000
X430300Y161000
X430300Y151000
X430300Y141000
X430300Y111000
X430300Y101000
X430300Y91000
X430300Y81000
X378800Y81000
X378800Y91000
X378800Y101000
X378800Y111000
X378800Y141000
X378800Y151000
X378800Y161000
X378800Y171000
X181400Y230000
X151400Y230000
X120500Y229900
X90500Y229900
X92900Y87900
X118100Y87900
X153800Y88000
X179000Y88000
T06
X63131Y75843
X38328Y75843
X51320Y56157
T07
X46800Y121000
X46800Y131000
X228900Y41000
X228900Y31000
X228900Y21000
X343800Y21000
X343800Y31000
X343800Y41000
X378800Y41000
X388800Y41000
X398800Y41000
X423800Y41000
X433800Y41000
X343800Y191000
X343800Y201000
X343800Y211000
X343800Y251000
X333800Y251000
X323800Y251000
X313800Y251000
X303800Y251000
X293800Y251000
X283800Y251000
X273800Y251000
X263800Y251000
X253800Y251000
X243800Y251000
X233800Y251000
X223800Y251000
X223800Y261000
X233800Y261000
X243800Y261000
X253800Y261000
X263800Y261000
X273800Y261000
X283800Y261000
X293800Y261000
X303800Y261000
X313800Y261000
X323800Y261000
X333800Y261000
X343800Y261000
X353800Y261000
X363800Y261000
X373800Y261000
X383800Y261000
X393800Y261000
X403800Y261000
X413800Y261000
X413800Y251000
X403800Y251000
X393800Y251000
X383800Y251000
X373800Y251000
X363800Y251000
X353800Y251000
X433800Y196000
X443800Y196000
X151200Y262400
X141200Y262400
X80700Y261500
X70700Y261500
T08
X42211Y223550
X42211Y171850
T09
X33800Y16000
X33800Y272000
X458800Y272000
X458800Y16000
M30
